<svg width="1160" height="1440" viewBox="0 0 1160 1440" fill="none" xmlns="http://www.w3.org/2000/svg">
<path d="M678.36 141.06L907.26 154.69V145.86L679.45 127.7L678.36 141.06Z" fill="url(#paint0_linear_502_177)"/>
<path d="M910.68 153.06L1003.56 0H976.53L902.85 148.55L910.68 153.06Z" fill="url(#paint1_linear_502_177)"/>
<path d="M904.3 153.54L1160 327.65V312.59L909.22 145.96L904.3 153.54Z" fill="#E6F0F4"/>
<path d="M761.03 564.07L512.79 772.9L518.72 779.92L766.36 569.33L761.03 564.07Z" fill="#E6F0F4"/>
<path d="M864.54 369.5L223.33 93.3799L218.46 104.64L863.35 376.77L864.54 369.5Z" fill="url(#paint2_linear_502_177)"/>
<path d="M865.95 375.72L1160 101.48V72L860.63 370.4L865.95 375.72Z" fill="url(#paint3_linear_502_177)"/>
<path d="M859.62 373.31L876.6 733.74H892.77L867.08 372.67L859.62 373.31Z" fill="url(#paint4_linear_502_177)"/>
<path d="M589.37 458.03L1160 476.92V439.96L589.37 441.9V458.03Z" fill="#D5E4EB"/>
<path d="M765.44 563.47L891.14 728.29L878.66 739.12L760.37 568.54L765.44 563.47Z" fill="url(#paint5_linear_502_177)"/>
<path d="M886.57 741.6L1160 687.2V648.62L880.33 726.84L886.57 741.6Z" fill="#D5E4EB"/>
<path d="M877.43 729.38L697.66 1082.94L708.3 1088.84L892.05 737.1L877.43 729.38Z" fill="url(#paint6_linear_502_177)"/>
<path d="M1009.7 975.5L1160 887.28V867.43L1006.76 971.76L1009.7 975.5Z" fill="url(#paint7_linear_502_177)"/>
<path d="M1010.06 971.45L882.63 865.38L881.4 866.74L1007.28 975.5L1010.06 971.45Z" fill="url(#paint8_linear_502_177)"/>
<path d="M1005.57 973.25L987.04 1074.98L988.82 1075.41L1010.43 973.74L1005.57 973.25Z" fill="url(#paint9_linear_502_177)"/>
<path d="M996.41 1237.28L1160 1100.32V1067.73L984.86 1225.77L996.41 1237.28Z" fill="#D5E4EB"/>
<path d="M987.24 1238.59L1160 1338.59V1311.78L994.1 1223.79L987.24 1238.59Z" fill="#D5E4EB"/>
<path d="M994.1 1223.79L706.15 1079.17L700.74 1090.84L987.24 1238.59L994.1 1223.79Z" fill="#D5E4EB"/>
<path d="M697.47 1087.09L793.8 1440H818.77L709.76 1083.3L697.47 1087.09Z" fill="#D5E4EB"/>
<path d="M411.65 252.97L522.79 0H499.33L402.63 248.53L411.65 252.97Z" fill="#D5E4EB"/>
<path d="M409.92 245.9L597.18 444.96L584.83 455.49L404.01 254.26L409.92 245.9Z" fill="#D5E4EB"/>
<path d="M402.25 250.44L382.55 427.8L386.26 428.16L412.33 251.41L402.25 250.44Z" fill="url(#paint10_linear_502_177)"/>
<path d="M520.13 774.17L709.76 1083.3L697.47 1087.09L511.93 778.47L520.13 774.17Z" fill="url(#paint11_linear_502_177)"/>
<path d="M511.93 774.02L391.96 1104.81L400.01 1108.93L520.62 777.61L511.93 774.02Z" fill="#E6F0F4"/>
<path d="M697.66 1082.94L512.56 1267.87L518.96 1274.26L708.3 1088.84L697.66 1082.94Z" fill="url(#paint12_linear_502_177)"/>
<path d="M398.57 1103.44L519.53 1268.27L512.56 1273.8L391.96 1109.5L398.57 1103.44Z" fill="#E6F0F4"/>
<path d="M231.14 1184.61L393.23 1103.44L398.3 1110.8L233.16 1187.67L231.14 1184.61Z" fill="url(#paint13_linear_502_177)"/>
<path d="M514.14 1266.3L364.34 1327.98L366.16 1331.49L517.55 1275.1L514.14 1266.3Z" fill="url(#paint14_linear_502_177)"/>
<path d="M512.56 1273.8L643.78 1440H673.32L519.53 1268.27L512.56 1273.8Z" fill="url(#paint15_linear_502_177)"/>
<path d="M512.56 1267.87L343.91 1440H359.5L518.96 1274.26L512.56 1267.87Z" fill="#E6F0F4"/>
<path d="M75.41 134.38L123.16 0H115.36L71.6899 134.38H75.41Z" fill="url(#paint16_linear_502_177)"/>
<path d="M74.6401 132.88L72.1201 135.55L151.77 225.92L152.97 224.38L74.6401 132.88Z" fill="url(#paint17_linear_502_177)"/>
<path d="M74.47 135.99L73.0699 132.59L4.80005 154.09L5.71997 155.81L74.47 135.99Z" fill="url(#paint18_linear_502_177)"/>
<path d="M24.5601 1334.88L79.36 1440H91.9L28.28 1333.11L24.5601 1334.88Z" fill="url(#paint19_linear_502_177)"/>
<path d="M231.14 1184.61L153.65 1258.19L154.47 1259.55L233.16 1187.67L231.14 1184.61Z" fill="#E6F0F4"/>
<path d="M233.62 1184.61L231.14 1187.37L364.34 1331.4L366.79 1328.75L233.62 1184.61Z" fill="#E6F0F4"/>
<path d="M234.22 1186.25L264.71 999.9L263.21 999.38L230.7 1185.2L234.22 1186.25Z" fill="#E6F0F4"/>
<path d="M679.45 172.52C700.514 172.52 717.59 155.444 717.59 134.38C717.59 113.316 700.514 96.24 679.45 96.24C658.386 96.24 641.31 113.316 641.31 134.38C641.31 155.444 658.386 172.52 679.45 172.52Z" fill="#D5E4EB"/>
<path d="M884.68 779.94C910.195 779.94 930.88 759.256 930.88 733.74C930.88 708.224 910.195 687.54 884.68 687.54C859.164 687.54 838.48 708.224 838.48 733.74C838.48 759.256 859.164 779.94 884.68 779.94Z" fill="#D5E4EB"/>
<path d="M407.29 279.25C423.201 279.25 436.1 266.351 436.1 250.44C436.1 234.529 423.201 221.63 407.29 221.63C391.379 221.63 378.48 234.529 378.48 250.44C378.48 266.351 391.379 279.25 407.29 279.25Z" fill="#D5E4EB"/>
<path d="M384.4 438.43C390.271 438.43 395.03 433.671 395.03 427.8C395.03 421.929 390.271 417.17 384.4 417.17C378.529 417.17 373.77 421.929 373.77 427.8C373.77 433.671 378.529 438.43 384.4 438.43Z" fill="#E6F0F4"/>
<path d="M232.38 1196.62C238.251 1196.62 243.01 1191.86 243.01 1185.99C243.01 1180.12 238.251 1175.36 232.38 1175.36C226.509 1175.36 221.75 1180.12 221.75 1185.99C221.75 1191.86 226.509 1196.62 232.38 1196.62Z" fill="#E6F0F4"/>
<path d="M1008.49 987.19C1016.09 987.19 1022.26 981.025 1022.26 973.42C1022.26 965.815 1016.09 959.65 1008.49 959.65C1000.89 959.65 994.72 965.815 994.72 973.42C994.72 981.025 1000.89 987.19 1008.49 987.19Z" fill="#E6F0F4"/>
<path d="M26.42 1344.55C32.2908 1344.55 37.05 1339.79 37.05 1333.92C37.05 1328.05 32.2908 1323.29 26.42 1323.29C20.5493 1323.29 15.79 1328.05 15.79 1333.92C15.79 1339.79 20.5493 1344.55 26.42 1344.55Z" fill="#E6F0F4"/>
<path d="M154.47 1265.03C158.248 1265.03 161.31 1261.97 161.31 1258.19C161.31 1254.41 158.248 1251.35 154.47 1251.35C150.692 1251.35 147.63 1254.41 147.63 1258.19C147.63 1261.97 150.692 1265.03 154.47 1265.03Z" fill="#E6F0F4"/>
<path d="M263.96 1006.48C267.738 1006.48 270.8 1003.42 270.8 999.64C270.8 995.862 267.738 992.8 263.96 992.8C260.182 992.8 257.12 995.862 257.12 999.64C257.12 1003.42 260.182 1006.48 263.96 1006.48Z" fill="#E6F0F4"/>
<path d="M151.77 231.22C155.548 231.22 158.61 228.158 158.61 224.38C158.61 220.602 155.548 217.54 151.77 217.54C147.992 217.54 144.93 220.602 144.93 224.38C144.93 228.158 147.992 231.22 151.77 231.22Z" fill="#E6F0F4"/>
<path d="M7.65002 160.93C11.4277 160.93 14.49 157.868 14.49 154.09C14.49 150.312 11.4277 147.25 7.65002 147.25C3.8724 147.25 0.810059 150.312 0.810059 154.09C0.810059 157.868 3.8724 160.93 7.65002 160.93Z" fill="#E6F0F4"/>
<path d="M882.35 875.73C887.42 875.73 891.53 871.62 891.53 866.55C891.53 861.48 887.42 857.37 882.35 857.37C877.28 857.37 873.17 861.48 873.17 866.55C873.17 871.62 877.28 875.73 882.35 875.73Z" fill="#E6F0F4"/>
<path d="M987.89 1081.74C991.668 1081.74 994.73 1078.68 994.73 1074.9C994.73 1071.12 991.668 1068.06 987.89 1068.06C984.112 1068.06 981.05 1071.12 981.05 1074.9C981.05 1078.68 984.112 1081.74 987.89 1081.74Z" fill="#E6F0F4"/>
<path d="M365.33 1340.47C371.201 1340.47 375.96 1335.71 375.96 1329.84C375.96 1323.97 371.201 1319.21 365.33 1319.21C359.459 1319.21 354.7 1323.97 354.7 1329.84C354.7 1335.71 359.459 1340.47 365.33 1340.47Z" fill="#E6F0F4"/>
<path d="M73.5499 145.01C79.4207 145.01 84.18 140.251 84.18 134.38C84.18 128.509 79.4207 123.75 73.5499 123.75C67.6792 123.75 62.9199 128.509 62.9199 134.38C62.9199 140.251 67.6792 145.01 73.5499 145.01Z" fill="#E6F0F4"/>
<path d="M763.64 588.07C775.42 588.07 784.97 578.52 784.97 566.74C784.97 554.96 775.42 545.41 763.64 545.41C751.86 545.41 742.31 554.96 742.31 566.74C742.31 578.52 751.86 588.07 763.64 588.07Z" fill="#E6F0F4"/>
<path d="M395.83 1133.09C410.151 1133.09 421.76 1121.48 421.76 1107.16C421.76 1092.84 410.151 1081.23 395.83 1081.23C381.509 1081.23 369.9 1092.84 369.9 1107.16C369.9 1121.48 381.509 1133.09 395.83 1133.09Z" fill="#E6F0F4"/>
<path d="M863.35 394.37C875.13 394.37 884.68 384.82 884.68 373.04C884.68 361.26 875.13 351.71 863.35 351.71C851.57 351.71 842.02 361.26 842.02 373.04C842.02 384.82 851.57 394.37 863.35 394.37Z" fill="#E6F0F4"/>
<path d="M595.37 392.34L553.91 416.27C552.162 417.28 550.651 418.652 549.476 420.294C548.302 421.936 547.491 423.81 547.1 425.79L539.81 453L632.61 477.79L640 450.4C640.605 448.522 640.809 446.538 640.599 444.576C640.389 442.614 639.769 440.717 638.78 439.01L614.84 397.55C613.909 395.924 612.665 394.499 611.18 393.356C609.696 392.214 607.999 391.376 606.19 390.892C604.38 390.407 602.492 390.286 600.635 390.535C598.778 390.783 596.989 391.397 595.37 392.34Z" fill="#D5E4EB"/>
<path d="M588.109 419.39L546.661 443.32C539.864 447.244 537.536 455.935 541.46 462.731L565.39 504.179C569.314 510.976 578.004 513.304 584.801 509.38L626.249 485.45C633.045 481.526 635.374 472.836 631.45 466.039L607.52 424.591C603.596 417.794 594.905 415.466 588.109 419.39Z" fill="#D5E4EB"/>
<path d="M740.65 1059.9L706.16 1047.35C704.705 1046.82 703.154 1046.61 701.61 1046.73C700.067 1046.85 698.567 1047.29 697.21 1048.04L677.65 1057.16L708.82 1123.89L728.52 1114.7C729.921 1114.13 731.186 1113.27 732.235 1112.18C733.284 1111.09 734.093 1109.79 734.61 1108.37L747.17 1073.88C748.159 1071.16 748.027 1068.16 746.804 1065.54C745.582 1062.92 743.368 1060.89 740.65 1059.9Z" fill="#D5E4EB"/>
<path d="M723.982 1065.05L689.475 1052.56C683.821 1050.52 677.581 1053.44 675.536 1059.1L663.054 1093.61C661.009 1099.26 663.935 1105.5 669.588 1107.54L704.096 1120.03C709.749 1122.07 715.99 1119.15 718.035 1113.49L730.516 1078.98C732.561 1073.33 729.636 1067.09 723.982 1065.05Z" fill="#D5E4EB"/>
<path d="M1045.12 1206.49L1003.12 1182.24C1001.35 1181.22 999.377 1180.59 997.34 1180.39C995.304 1180.19 993.248 1180.42 991.31 1181.08L963.76 1188.46L989.02 1282.46L1016.76 1275.03C1018.71 1274.61 1020.56 1273.78 1022.17 1272.6C1023.79 1271.42 1025.14 1269.91 1026.14 1268.18L1050.39 1226.18C1051.34 1224.54 1051.95 1222.73 1052.2 1220.86C1052.45 1218.98 1052.33 1217.07 1051.84 1215.24C1051.35 1213.41 1050.5 1211.7 1049.35 1210.2C1048.2 1208.7 1046.76 1207.44 1045.12 1206.49Z" fill="#D5E4EB"/>
<path d="M1017.72 1213.83L975.714 1189.58C968.831 1185.6 960.031 1187.96 956.057 1194.84L931.802 1236.85C927.828 1243.74 930.186 1252.54 937.069 1256.51L979.08 1280.77C985.963 1284.74 994.763 1282.38 998.737 1275.5L1022.99 1233.49C1026.97 1226.6 1024.61 1217.8 1017.72 1213.83Z" fill="#D5E4EB"/>
<path d="M260 71.6801L224.87 58.8901C223.387 58.3524 221.806 58.1375 220.233 58.26C218.66 58.3824 217.132 58.8393 215.75 59.6001L195.83 68.8901L227.58 136.89L247.64 127.54C249.066 126.954 250.355 126.077 251.422 124.965C252.49 123.852 253.313 122.529 253.84 121.08L266.63 85.9501C267.135 84.5781 267.364 83.1197 267.304 81.6588C267.244 80.198 266.896 78.7633 266.28 77.4374C265.664 76.1114 264.792 74.9202 263.715 73.9322C262.637 72.9442 261.374 72.1788 260 71.6801Z" fill="#D5E4EB"/>
<path d="M240.196 80.9232L205.07 68.1385C199.309 66.0417 192.94 69.012 190.843 74.7726L178.058 109.898C175.962 115.659 178.932 122.029 184.692 124.125L219.818 136.91C225.579 139.007 231.948 136.037 234.045 130.276L246.83 95.1502C248.927 89.3895 245.956 83.0199 240.196 80.9232Z" fill="#D5E4EB"/>
<path d="M486.62 790.4L492.25 761.48C492.856 758.374 494.509 755.569 496.933 753.535C499.357 751.5 502.406 750.358 505.57 750.3L535.03 749.78C536.571 749.751 538.098 750.068 539.5 750.706C540.903 751.344 542.145 752.288 543.135 753.468C544.125 754.648 544.839 756.035 545.224 757.527C545.609 759.019 545.656 760.578 545.36 762.09L539.73 791C539.126 794.107 537.473 796.913 535.049 798.948C532.624 800.983 529.575 802.124 526.41 802.18L496.96 802.7C495.42 802.728 493.894 802.412 492.492 801.774C491.09 801.137 489.848 800.194 488.857 799.015C487.866 797.837 487.151 796.451 486.764 794.961C486.377 793.47 486.328 791.912 486.62 790.4Z" fill="#E6F0F4"/>
<path d="M524.44 1239.35L542.67 1262.49C544.631 1264.98 545.678 1268.06 545.638 1271.22C545.598 1274.39 544.473 1277.44 542.45 1279.88L523.62 1302.54C522.635 1303.73 521.397 1304.68 519.998 1305.32C518.598 1305.97 517.071 1306.29 515.53 1306.27C513.988 1306.25 512.471 1305.89 511.088 1305.21C509.706 1304.52 508.494 1303.54 507.54 1302.33L489.31 1279.19C487.351 1276.7 486.305 1273.62 486.347 1270.45C486.388 1267.29 487.516 1264.23 489.54 1261.8L508.36 1239.14C509.345 1237.95 510.582 1237 511.982 1236.36C513.382 1235.71 514.909 1235.39 516.45 1235.41C517.992 1235.43 519.509 1235.79 520.892 1236.47C522.274 1237.16 523.486 1238.14 524.44 1239.35Z" fill="#E6F0F4"/>
<path d="M910.12 117.79L932.12 137.42C934.479 139.528 936.044 142.382 936.554 145.505C937.063 148.628 936.487 151.831 934.92 154.58L920.31 180.17C919.544 181.507 918.489 182.656 917.223 183.533C915.957 184.411 914.51 184.994 912.99 185.242C911.469 185.489 909.912 185.393 908.433 184.962C906.954 184.531 905.59 183.776 904.44 182.75L882.44 163.13C880.078 161.021 878.512 158.165 878.002 155.04C877.493 151.915 878.071 148.71 879.64 145.96L894.25 120.38C895.015 119.042 896.069 117.892 897.335 117.014C898.601 116.136 900.047 115.551 901.568 115.303C903.088 115.055 904.645 115.149 906.125 115.579C907.605 116.01 908.97 116.765 910.12 117.79Z" fill="#E6F0F4"/>
<path d="M597.18 444.96L998.31 1228.18L983.75 1235.17L582.85 453.32L597.18 444.96Z" fill="#D5E4EB"/>
<path d="M673.19 132.1L582.46 447.68L597.57 453.32L686.13 134.38L673.19 132.1Z" fill="#D5E4EB"/>
<path d="M884.68 745.87C891.379 745.87 896.81 740.439 896.81 733.74C896.81 727.041 891.379 721.61 884.68 721.61C877.981 721.61 872.55 727.041 872.55 733.74C872.55 740.439 877.981 745.87 884.68 745.87Z" fill="white"/>
<path d="M703.31 1094.48C708.386 1094.48 712.5 1090.37 712.5 1085.29C712.5 1080.21 708.386 1076.1 703.31 1076.1C698.235 1076.1 694.12 1080.21 694.12 1085.29C694.12 1090.37 698.235 1094.48 703.31 1094.48Z" fill="white"/>
<path d="M679.45 144.39C684.978 144.39 689.46 139.908 689.46 134.38C689.46 128.852 684.978 124.37 679.45 124.37C673.922 124.37 669.44 128.852 669.44 134.38C669.44 139.908 673.922 144.39 679.45 144.39Z" fill="white"/>
<path d="M407.29 255.48C410.074 255.48 412.33 253.223 412.33 250.44C412.33 247.656 410.074 245.4 407.29 245.4C404.507 245.4 402.25 247.656 402.25 250.44C402.25 253.223 404.507 255.48 407.29 255.48Z" fill="white"/>
<path d="M384.4 429.66C385.427 429.66 386.26 428.827 386.26 427.8C386.26 426.773 385.427 425.94 384.4 425.94C383.373 425.94 382.54 426.773 382.54 427.8C382.54 428.827 383.373 429.66 384.4 429.66Z" fill="white"/>
<path d="M73.55 136.24C74.5773 136.24 75.41 135.407 75.41 134.38C75.41 133.353 74.5773 132.52 73.55 132.52C72.5228 132.52 71.6899 133.353 71.6899 134.38C71.6899 135.407 72.5228 136.24 73.55 136.24Z" fill="white"/>
<path d="M395.83 1111.7C398.337 1111.7 400.37 1109.67 400.37 1107.16C400.37 1104.65 398.337 1102.62 395.83 1102.62C393.323 1102.62 391.29 1104.65 391.29 1107.16C391.29 1109.67 393.323 1111.7 395.83 1111.7Z" fill="white"/>
<path d="M365.33 1331.7C366.357 1331.7 367.19 1330.87 367.19 1329.84C367.19 1328.81 366.357 1327.98 365.33 1327.98C364.303 1327.98 363.47 1328.81 363.47 1329.84C363.47 1330.87 364.303 1331.7 365.33 1331.7Z" fill="white"/>
<path d="M232.38 1187.85C233.407 1187.85 234.24 1187.02 234.24 1185.99C234.24 1184.96 233.407 1184.13 232.38 1184.13C231.353 1184.13 230.52 1184.96 230.52 1185.99C230.52 1187.02 231.353 1187.85 232.38 1187.85Z" fill="white"/>
<path d="M26.42 1335.78C27.4473 1335.78 28.28 1334.95 28.28 1333.92C28.28 1332.89 27.4473 1332.06 26.42 1332.06C25.3928 1332.06 24.5601 1332.89 24.5601 1333.92C24.5601 1334.95 25.3928 1335.78 26.42 1335.78Z" fill="#E6F0F4"/>
<path d="M590.21 462.12C596.909 462.12 602.34 456.689 602.34 449.99C602.34 443.291 596.909 437.86 590.21 437.86C583.511 437.86 578.08 443.291 578.08 449.99C578.08 456.689 583.511 462.12 590.21 462.12Z" fill="white"/>
<path d="M221.32 108.43C226.423 108.43 230.56 104.293 230.56 99.19C230.56 94.0868 226.423 89.95 221.32 89.95C216.217 89.95 212.08 94.0868 212.08 99.19C212.08 104.293 216.217 108.43 221.32 108.43Z" fill="white"/>
<path d="M863.35 376.77C865.41 376.77 867.08 375.1 867.08 373.04C867.08 370.98 865.41 369.31 863.35 369.31C861.29 369.31 859.62 370.98 859.62 373.04C859.62 375.1 861.29 376.77 863.35 376.77Z" fill="white"/>
<path d="M763.64 570.47C765.7 570.47 767.37 568.8 767.37 566.74C767.37 564.68 765.7 563.01 763.64 563.01C761.58 563.01 759.91 564.68 759.91 566.74C759.91 568.8 761.58 570.47 763.64 570.47Z" fill="white"/>
<path d="M990.89 1243.51C997.589 1243.51 1003.02 1238.08 1003.02 1231.38C1003.02 1224.68 997.589 1219.25 990.89 1219.25C984.191 1219.25 978.76 1224.68 978.76 1231.38C978.76 1238.08 984.191 1243.51 990.89 1243.51Z" fill="white"/>
<path d="M515.99 1275.38C518.497 1275.38 520.53 1273.35 520.53 1270.84C520.53 1268.33 518.497 1266.3 515.99 1266.3C513.483 1266.3 511.45 1268.33 511.45 1270.84C511.45 1273.35 513.483 1275.38 515.99 1275.38Z" fill="white"/>
<path d="M515.99 780.87C518.547 780.87 520.62 778.797 520.62 776.24C520.62 773.683 518.547 771.61 515.99 771.61C513.433 771.61 511.36 773.683 511.36 776.24C511.36 778.797 513.433 780.87 515.99 780.87Z" fill="white"/>
<path d="M907.26 154.68C909.696 154.68 911.67 152.706 911.67 150.27C911.67 147.835 909.696 145.86 907.26 145.86C904.824 145.86 902.85 147.835 902.85 150.27C902.85 152.706 904.824 154.68 907.26 154.68Z" fill="white"/>
<path d="M1008.49 975.83C1009.82 975.83 1010.9 974.751 1010.9 973.42C1010.9 972.089 1009.82 971.01 1008.49 971.01C1007.16 971.01 1006.08 972.089 1006.08 973.42C1006.08 974.751 1007.16 975.83 1008.49 975.83Z" fill="white"/>
<defs>
<linearGradient id="paint0_linear_502_177" x1="729.83" y1="138.08" x2="864.96" y2="147.88" gradientUnits="userSpaceOnUse">
<stop stop-color="#D5E4EB"/>
<stop offset="1" stop-color="#E6F0F4"/>
</linearGradient>
<linearGradient id="paint1_linear_502_177" x1="241688" y1="-234.192" x2="230432" y2="13456.1" gradientUnits="userSpaceOnUse">
<stop stop-color="#D5E4EB"/>
<stop offset="1" stop-color="#E6F0F4"/>
</linearGradient>
<linearGradient id="paint2_linear_502_177" x1="1.08611e+06" y1="35290.4" x2="1.29745e+06" y2="243848" gradientUnits="userSpaceOnUse">
<stop stop-color="#D5E4EB"/>
<stop offset="1" stop-color="#E6F0F4"/>
</linearGradient>
<linearGradient id="paint3_linear_502_177" x1="760336" y1="32974" x2="684527" y2="102629" gradientUnits="userSpaceOnUse">
<stop stop-color="#D5E4EB"/>
<stop offset="1" stop-color="#E6F0F4"/>
</linearGradient>
<linearGradient id="paint4_linear_502_177" x1="76507.5" y1="246276" x2="34667.7" y2="171009" gradientUnits="userSpaceOnUse">
<stop stop-color="#D5E4EB"/>
<stop offset="1" stop-color="#E6F0F4"/>
</linearGradient>
<linearGradient id="paint5_linear_502_177" x1="295684" y1="121983" x2="283015" y2="108459" gradientUnits="userSpaceOnUse">
<stop stop-color="#D5E4EB"/>
<stop offset="1" stop-color="#E6F0F4"/>
</linearGradient>
<linearGradient id="paint6_linear_502_177" x1="857.22" y1="786.11" x2="734.63" y2="1029.67" gradientUnits="userSpaceOnUse">
<stop stop-color="#D5E4EB"/>
<stop offset="0.5" stop-color="#E6F0F4"/>
<stop offset="1" stop-color="#D5E4EB"/>
</linearGradient>
<linearGradient id="paint7_linear_502_177" x1="393208" y1="95722.6" x2="377676" y2="108900" gradientUnits="userSpaceOnUse">
<stop stop-color="#D5E4EB"/>
<stop offset="1" stop-color="#E6F0F4"/>
</linearGradient>
<linearGradient id="paint8_linear_502_177" x1="992.37" y1="959.42" x2="897.56" y2="877.69" gradientUnits="userSpaceOnUse">
<stop stop-color="#E6F0F4"/>
<stop offset="1" stop-color="#E6F0F4"/>
</linearGradient>
<linearGradient id="paint9_linear_502_177" x1="57180.8" y1="100542" x2="53711.3" y2="104506" gradientUnits="userSpaceOnUse">
<stop stop-color="#E6F0F4"/>
<stop offset="1" stop-color="#E6F0F4"/>
</linearGradient>
<linearGradient id="paint10_linear_502_177" x1="54027.2" y1="52562.3" x2="45527.7" y2="63004.5" gradientUnits="userSpaceOnUse">
<stop stop-color="#D5E4EB"/>
<stop offset="1" stop-color="#E6F0F4"/>
</linearGradient>
<linearGradient id="paint11_linear_502_177" x1="411241" y1="327015" x2="363846" y2="275786" gradientUnits="userSpaceOnUse">
<stop stop-color="#D5E4EB"/>
<stop offset="1" stop-color="#E6F0F4"/>
</linearGradient>
<linearGradient id="paint12_linear_502_177" x1="403811" y1="216817" x2="381290" y2="239379" gradientUnits="userSpaceOnUse">
<stop stop-color="#D5E4EB"/>
<stop offset="1" stop-color="#E6F0F4"/>
</linearGradient>
<linearGradient id="paint13_linear_502_177" x1="294807" y1="95680.5" x2="282575" y2="106925" gradientUnits="userSpaceOnUse">
<stop stop-color="#E6F0F4"/>
<stop offset="1" stop-color="#E6F0F4"/>
</linearGradient>
<linearGradient id="paint14_linear_502_177" x1="289152" y1="84863.8" x2="280019" y2="92958" gradientUnits="userSpaceOnUse">
<stop stop-color="#E6F0F4"/>
<stop offset="1" stop-color="#E6F0F4"/>
</linearGradient>
<linearGradient id="paint15_linear_502_177" x1="331699" y1="248894" x2="311834" y2="226023" gradientUnits="userSpaceOnUse">
<stop stop-color="#D5E4EB"/>
<stop offset="1" stop-color="#E6F0F4"/>
</linearGradient>
<linearGradient id="paint16_linear_502_177" x1="78314.5" y1="-350.737" x2="69647.8" y2="9354.77" gradientUnits="userSpaceOnUse">
<stop stop-color="#D5E4EB"/>
<stop offset="1" stop-color="#E6F0F4"/>
</linearGradient>
<linearGradient id="paint17_linear_502_177" x1="120134" y1="13847.9" x2="125634" y2="19496.1" gradientUnits="userSpaceOnUse">
<stop stop-color="#E6F0F4"/>
<stop offset="1" stop-color="#E6F0F4"/>
</linearGradient>
<linearGradient id="paint18_linear_502_177" x1="101674" y1="3350.65" x2="99894.3" y2="4855.72" gradientUnits="userSpaceOnUse">
<stop stop-color="#E6F0F4"/>
<stop offset="1" stop-color="#E6F0F4"/>
</linearGradient>
<linearGradient id="paint19_linear_502_177" x1="99413" y1="153406" x2="94807.9" y2="148233" gradientUnits="userSpaceOnUse">
<stop stop-color="#E6F0F4"/>
<stop offset="1" stop-color="#E6F0F4"/>
</linearGradient>
</defs>
</svg>
