<svg width="1160" height="1440" viewBox="0 0 1160 1440" fill="none" xmlns="http://www.w3.org/2000/svg">
<path d="M481.63 1298.94L252.74 1285.32V1294.14L480.55 1312.3L481.63 1298.94Z" fill="url(#paint0_linear_502_89)"/>
<path d="M249.32 1286.94L156.44 1440H183.47L257.15 1291.45L249.32 1286.94Z" fill="url(#paint1_linear_502_89)"/>
<path d="M250.78 1294.04L255.7 1286.46L0 1112.35V1127.41L250.78 1294.04Z" fill="#E6F0F4"/>
<path d="M398.96 875.93L647.21 667.1L641.28 660.08L393.64 870.67L398.96 875.93Z" fill="#E6F0F4"/>
<path d="M295.46 1070.5L936.67 1346.63L941.53 1335.36L296.65 1063.23L295.46 1070.5Z" fill="url(#paint2_linear_502_89)"/>
<path d="M299.37 1069.6L294.06 1064.28L0 1338.52V1368L299.37 1069.6Z" fill="url(#paint3_linear_502_89)"/>
<path d="M300.38 1066.69L283.4 706.26H267.23L292.92 1067.33L300.38 1066.69Z" fill="url(#paint4_linear_502_89)"/>
<path d="M570.63 998.1V981.97L0 963.08V1000.04L570.63 998.1Z" fill="#D5E4EB"/>
<path d="M394.56 876.53L268.86 711.71L281.34 700.88L399.63 871.46L394.56 876.53Z" fill="url(#paint5_linear_502_89)"/>
<path d="M279.67 713.16L273.43 698.4L0 752.8V791.38L279.67 713.16Z" fill="#D5E4EB"/>
<path d="M282.57 710.62L462.34 357.06L451.7 351.16L267.95 702.9L282.57 710.62Z" fill="url(#paint6_linear_502_89)"/>
<path d="M153.24 468.24L150.3 464.5L0 552.72V572.57L153.24 468.24Z" fill="url(#paint7_linear_502_89)"/>
<path d="M149.94 468.55L277.37 574.62L278.6 573.26L152.72 464.5L149.94 468.55Z" fill="url(#paint8_linear_502_89)"/>
<path d="M154.43 466.75L172.96 365.02L171.18 364.59L149.57 466.26L154.43 466.75Z" fill="url(#paint9_linear_502_89)"/>
<path d="M175.14 214.23L163.59 202.72L0 339.68V372.27L175.14 214.23Z" fill="#D5E4EB"/>
<path d="M165.9 216.21L172.76 201.41L0 101.41V128.22L165.9 216.21Z" fill="#D5E4EB"/>
<path d="M165.9 216.21L453.85 360.83L459.26 349.16L172.76 201.41L165.9 216.21Z" fill="#D5E4EB"/>
<path d="M462.53 352.91L366.2 0H341.23L450.24 356.7L462.53 352.91Z" fill="#D5E4EB"/>
<path d="M748.35 1187.04L637.21 1440H660.67L757.38 1191.47L748.35 1187.04Z" fill="#D5E4EB"/>
<path d="M750.08 1194.1L562.82 995.04L575.17 984.51L755.99 1185.74L750.08 1194.1Z" fill="#D5E4EB"/>
<path d="M757.75 1189.56L777.46 1012.2L773.74 1011.84L747.67 1188.59L757.75 1189.56Z" fill="url(#paint10_linear_502_89)"/>
<path d="M639.87 665.83L450.24 356.7L462.53 352.91L648.07 661.53L639.87 665.83Z" fill="url(#paint11_linear_502_89)"/>
<path d="M648.07 665.98L768.04 335.19L759.99 331.07L639.38 662.39L648.07 665.98Z" fill="#E6F0F4"/>
<path d="M462.34 357.06L647.44 172.13L641.03 165.74L451.7 351.16L462.34 357.06Z" fill="url(#paint12_linear_502_89)"/>
<path d="M761.43 336.56L640.47 171.73L647.44 166.2L768.04 330.5L761.43 336.56Z" fill="#E6F0F4"/>
<path d="M928.86 255.39L766.77 336.56L761.7 329.2L926.84 252.33L928.86 255.39Z" fill="url(#paint13_linear_502_89)"/>
<path d="M645.86 173.7L795.66 112.02L793.84 108.51L642.45 164.9L645.86 173.7Z" fill="url(#paint14_linear_502_89)"/>
<path d="M647.44 166.2L516.22 0H486.68L640.47 171.73L647.44 166.2Z" fill="url(#paint15_linear_502_89)"/>
<path d="M647.44 172.13L816.09 0H800.5L641.03 165.74L647.44 172.13Z" fill="#E6F0F4"/>
<path d="M1084.59 1305.62L1036.84 1440H1044.64L1088.31 1305.62H1084.59Z" fill="url(#paint16_linear_502_89)"/>
<path d="M1085.36 1307.12L1087.88 1304.45L1008.23 1214.08L1007.03 1215.62L1085.36 1307.12Z" fill="url(#paint17_linear_502_89)"/>
<path d="M1085.53 1304.01L1086.93 1307.41L1155.2 1285.91L1154.28 1284.19L1085.53 1304.01Z" fill="url(#paint18_linear_502_89)"/>
<path d="M1135.44 105.12L1080.64 0H1068.1L1131.72 106.89L1135.44 105.12Z" fill="url(#paint19_linear_502_89)"/>
<path d="M928.86 255.39L1006.35 181.81L1005.53 180.45L926.84 252.33L928.86 255.39Z" fill="#E6F0F4"/>
<path d="M926.38 255.39L928.86 252.63L795.66 108.6L793.21 111.25L926.38 255.39Z" fill="#E6F0F4"/>
<path d="M925.78 253.75L895.29 440.1L896.79 440.62L929.29 254.8L925.78 253.75Z" fill="#E6F0F4"/>
<path d="M480.55 1343.76C501.614 1343.76 518.69 1326.68 518.69 1305.62C518.69 1284.56 501.614 1267.48 480.55 1267.48C459.486 1267.48 442.41 1284.56 442.41 1305.62C442.41 1326.68 459.486 1343.76 480.55 1343.76Z" fill="#D5E4EB"/>
<path d="M275.32 752.46C300.836 752.46 321.52 731.776 321.52 706.26C321.52 680.745 300.836 660.06 275.32 660.06C249.804 660.06 229.12 680.745 229.12 706.26C229.12 731.776 249.804 752.46 275.32 752.46Z" fill="#D5E4EB"/>
<path d="M752.71 1218.37C768.621 1218.37 781.52 1205.47 781.52 1189.56C781.52 1173.65 768.621 1160.75 752.71 1160.75C736.799 1160.75 723.9 1173.65 723.9 1189.56C723.9 1205.47 736.799 1218.37 752.71 1218.37Z" fill="#D5E4EB"/>
<path d="M775.6 1022.83C781.471 1022.83 786.23 1018.07 786.23 1012.2C786.23 1006.33 781.471 1001.57 775.6 1001.57C769.729 1001.57 764.97 1006.33 764.97 1012.2C764.97 1018.07 769.729 1022.83 775.6 1022.83Z" fill="#E6F0F4"/>
<path d="M927.62 264.64C933.491 264.64 938.25 259.881 938.25 254.01C938.25 248.139 933.491 243.38 927.62 243.38C921.749 243.38 916.99 248.139 916.99 254.01C916.99 259.881 921.749 264.64 927.62 264.64Z" fill="#E6F0F4"/>
<path d="M151.51 480.35C159.115 480.35 165.28 474.185 165.28 466.58C165.28 458.975 159.115 452.81 151.51 452.81C143.905 452.81 137.74 458.975 137.74 466.58C137.74 474.185 143.905 480.35 151.51 480.35Z" fill="#E6F0F4"/>
<path d="M1133.58 116.71C1139.45 116.71 1144.21 111.951 1144.21 106.08C1144.21 100.209 1139.45 95.45 1133.58 95.45C1127.71 95.45 1122.95 100.209 1122.95 106.08C1122.95 111.951 1127.71 116.71 1133.58 116.71Z" fill="#E6F0F4"/>
<path d="M1005.53 188.65C1009.31 188.65 1012.37 185.588 1012.37 181.81C1012.37 178.032 1009.31 174.97 1005.53 174.97C1001.75 174.97 998.69 178.032 998.69 181.81C998.69 185.588 1001.75 188.65 1005.53 188.65Z" fill="#E6F0F4"/>
<path d="M896.04 447.2C899.818 447.2 902.88 444.138 902.88 440.36C902.88 436.582 899.818 433.52 896.04 433.52C892.262 433.52 889.2 436.582 889.2 440.36C889.2 444.138 892.262 447.2 896.04 447.2Z" fill="#E6F0F4"/>
<path d="M1008.23 1222.46C1012.01 1222.46 1015.07 1219.4 1015.07 1215.62C1015.07 1211.84 1012.01 1208.78 1008.23 1208.78C1004.45 1208.78 1001.39 1211.84 1001.39 1215.62C1001.39 1219.4 1004.45 1222.46 1008.23 1222.46Z" fill="#E6F0F4"/>
<path d="M1152.35 1292.75C1156.13 1292.75 1159.19 1289.69 1159.19 1285.91C1159.19 1282.13 1156.13 1279.07 1152.35 1279.07C1148.57 1279.07 1145.51 1282.13 1145.51 1285.91C1145.51 1289.69 1148.57 1292.75 1152.35 1292.75Z" fill="#E6F0F4"/>
<path d="M277.65 582.63C282.72 582.63 286.83 578.52 286.83 573.45C286.83 568.38 282.72 564.27 277.65 564.27C272.58 564.27 268.47 568.38 268.47 573.45C268.47 578.52 272.58 582.63 277.65 582.63Z" fill="#E6F0F4"/>
<path d="M172.11 371.94C175.888 371.94 178.95 368.878 178.95 365.1C178.95 361.322 175.888 358.26 172.11 358.26C168.332 358.26 165.27 361.322 165.27 365.1C165.27 368.878 168.332 371.94 172.11 371.94Z" fill="#E6F0F4"/>
<path d="M794.67 120.79C800.541 120.79 805.3 116.031 805.3 110.16C805.3 104.289 800.541 99.53 794.67 99.53C788.799 99.53 784.04 104.289 784.04 110.16C784.04 116.031 788.799 120.79 794.67 120.79Z" fill="#E6F0F4"/>
<path d="M1086.45 1316.25C1092.32 1316.25 1097.08 1311.49 1097.08 1305.62C1097.08 1299.75 1092.32 1294.99 1086.45 1294.99C1080.58 1294.99 1075.82 1299.75 1075.82 1305.62C1075.82 1311.49 1080.58 1316.25 1086.45 1316.25Z" fill="#E6F0F4"/>
<path d="M396.36 894.59C408.14 894.59 417.69 885.04 417.69 873.26C417.69 861.48 408.14 851.93 396.36 851.93C384.58 851.93 375.03 861.48 375.03 873.26C375.03 885.04 384.58 894.59 396.36 894.59Z" fill="#E6F0F4"/>
<path d="M764.17 358.77C778.491 358.77 790.1 347.161 790.1 332.84C790.1 318.519 778.491 306.91 764.17 306.91C749.849 306.91 738.24 318.519 738.24 332.84C738.24 347.161 749.849 358.77 764.17 358.77Z" fill="#E6F0F4"/>
<path d="M296.65 1088.29C308.43 1088.29 317.98 1078.74 317.98 1066.96C317.98 1055.18 308.43 1045.63 296.65 1045.63C284.87 1045.63 275.32 1055.18 275.32 1066.96C275.32 1078.74 284.87 1088.29 296.65 1088.29Z" fill="#E6F0F4"/>
<path d="M564.63 1047.66L606.09 1023.73C607.838 1022.72 609.349 1021.35 610.524 1019.71C611.698 1018.06 612.509 1016.19 612.9 1014.21L620.19 987L527.39 962.21L520.05 989.58C519.445 991.458 519.241 993.442 519.451 995.404C519.661 997.366 520.281 999.262 521.27 1000.97L545.21 1042.43C546.14 1044.05 547.38 1045.47 548.86 1046.61C550.34 1047.75 552.03 1048.59 553.835 1049.08C555.639 1049.56 557.521 1049.69 559.373 1049.44C561.226 1049.2 563.012 1048.59 564.63 1047.66Z" fill="#D5E4EB"/>
<path d="M571.884 1020.61L613.332 996.678C620.129 992.754 622.458 984.064 618.534 977.267L594.604 935.819C590.68 929.023 581.989 926.694 575.192 930.618L533.744 954.548C526.948 958.472 524.619 967.163 528.543 973.959L552.473 1015.41C556.397 1022.2 565.088 1024.53 571.884 1020.61Z" fill="#D5E4EB"/>
<path d="M419.35 380.1L453.84 392.65C455.302 393.186 456.862 393.402 458.415 393.283C459.968 393.164 461.477 392.713 462.84 391.96L482.4 382.84L451.23 316.11L431.53 325.3C430.129 325.872 428.864 326.73 427.815 327.82C426.766 328.911 425.957 330.208 425.44 331.63L412.88 366.12C411.889 368.832 412.013 371.826 413.226 374.447C414.439 377.067 416.641 379.1 419.35 380.1Z" fill="#D5E4EB"/>
<path d="M438.805 371.025L473.301 383.58C478.953 385.637 485.202 382.723 487.259 377.072L499.814 342.576C501.871 336.924 498.957 330.675 493.306 328.618L458.81 316.062C453.158 314.005 446.909 316.919 444.852 322.571L432.296 357.067C430.239 362.719 433.153 368.968 438.805 371.025Z" fill="#D5E4EB"/>
<path d="M114.88 233.51L156.88 257.76C158.653 258.781 160.624 259.413 162.66 259.613C164.696 259.813 166.752 259.577 168.69 258.92L196.24 251.54L170.98 157.54L143.24 165C141.285 165.425 139.441 166.254 137.826 167.434C136.211 168.613 134.86 170.118 133.86 171.85L109.61 213.85C107.704 217.156 107.188 221.084 108.176 224.771C109.164 228.457 111.576 231.6 114.88 233.51Z" fill="#D5E4EB"/>
<path d="M142.274 226.164L184.285 250.419C191.168 254.392 199.968 252.034 203.942 245.152L228.197 203.141C232.171 196.258 229.813 187.457 222.93 183.484L180.919 159.229C174.036 155.255 165.236 157.613 161.262 164.496L137.007 206.507C133.033 213.389 135.391 222.19 142.274 226.164Z" fill="#D5E4EB"/>
<path d="M900 1368.32L935.13 1381.11C936.613 1381.65 938.194 1381.86 939.767 1381.74C941.339 1381.62 942.868 1381.16 944.25 1380.4L964.17 1371.11L932.42 1303.11L912.36 1312.46C910.934 1313.05 909.645 1313.92 908.578 1315.04C907.51 1316.15 906.687 1317.47 906.16 1318.92L893.37 1354.05C892.865 1355.42 892.636 1356.88 892.696 1358.34C892.756 1359.8 893.104 1361.24 893.72 1362.56C894.336 1363.89 895.208 1365.08 896.285 1366.07C897.363 1367.06 898.626 1367.82 900 1368.32Z" fill="#D5E4EB"/>
<path d="M919.809 1359.07L954.935 1371.86C960.695 1373.95 967.065 1370.98 969.162 1365.22L981.946 1330.1C984.043 1324.34 981.073 1317.97 975.312 1315.87L940.186 1303.09C934.426 1300.99 928.056 1303.96 925.96 1309.72L913.175 1344.85C911.078 1350.61 914.048 1356.98 919.809 1359.07Z" fill="#D5E4EB"/>
<path d="M673.38 649.6L667.75 678.52C667.144 681.626 665.491 684.431 663.067 686.466C660.643 688.5 657.594 689.642 654.43 689.7L624.97 690.22C623.429 690.249 621.902 689.932 620.5 689.294C619.097 688.656 617.856 687.712 616.865 686.532C615.875 685.352 615.161 683.965 614.776 682.473C614.391 680.981 614.344 679.422 614.64 677.91L620.27 649C620.874 645.893 622.527 643.087 624.951 641.052C627.376 639.017 630.425 637.876 633.59 637.82L663.04 637.3C664.58 637.272 666.106 637.588 667.508 638.226C668.91 638.863 670.152 639.806 671.143 640.985C672.134 642.164 672.849 643.549 673.236 645.039C673.623 646.53 673.672 648.088 673.38 649.6Z" fill="#E6F0F4"/>
<path d="M635.56 200.65L617.33 177.51C615.369 175.024 614.322 171.941 614.362 168.776C614.402 165.611 615.527 162.555 617.55 160.12L636.38 137.46C637.365 136.274 638.602 135.323 640.002 134.677C641.402 134.031 642.929 133.706 644.47 133.726C646.012 133.746 647.529 134.111 648.912 134.793C650.294 135.476 651.506 136.458 652.46 137.67L670.69 160.81C672.649 163.296 673.695 166.38 673.653 169.546C673.612 172.711 672.484 175.766 670.46 178.2L651.64 200.86C650.655 202.046 649.418 202.997 648.018 203.643C646.618 204.289 645.091 204.614 643.55 204.594C642.008 204.573 640.491 204.209 639.108 203.527C637.726 202.844 636.514 201.861 635.56 200.65Z" fill="#E6F0F4"/>
<path d="M249.88 1322.21L227.88 1302.58C225.521 1300.47 223.956 1297.62 223.446 1294.49C222.937 1291.37 223.513 1288.17 225.08 1285.42L239.69 1259.83C240.456 1258.49 241.51 1257.34 242.777 1256.47C244.043 1255.59 245.49 1255.01 247.01 1254.76C248.531 1254.51 250.088 1254.61 251.567 1255.04C253.046 1255.47 254.41 1256.22 255.56 1257.25L277.56 1276.87C279.922 1278.98 281.488 1281.83 281.998 1284.96C282.507 1288.08 281.929 1291.29 280.36 1294.04L265.75 1319.62C264.985 1320.96 263.931 1322.11 262.665 1322.99C261.399 1323.86 259.953 1324.45 258.432 1324.7C256.911 1324.95 255.354 1324.85 253.875 1324.42C252.395 1323.99 251.03 1323.23 249.88 1322.21Z" fill="#E6F0F4"/>
<path d="M562.82 995.04L161.69 211.82L176.25 204.83L577.15 986.68L562.82 995.04Z" fill="#D5E4EB"/>
<path d="M486.81 1307.9L577.54 992.32L562.43 986.68L473.87 1305.62L486.81 1307.9Z" fill="#D5E4EB"/>
<path d="M275.32 718.39C282.019 718.39 287.45 712.959 287.45 706.26C287.45 699.561 282.019 694.13 275.32 694.13C268.621 694.13 263.19 699.561 263.19 706.26C263.19 712.959 268.621 718.39 275.32 718.39Z" fill="white"/>
<path d="M456.69 363.9C461.765 363.9 465.88 359.786 465.88 354.71C465.88 349.635 461.765 345.52 456.69 345.52C451.615 345.52 447.5 349.635 447.5 354.71C447.5 359.786 451.615 363.9 456.69 363.9Z" fill="white"/>
<path d="M480.55 1315.63C486.078 1315.63 490.56 1311.15 490.56 1305.62C490.56 1300.09 486.078 1295.61 480.55 1295.61C475.022 1295.61 470.54 1300.09 470.54 1305.62C470.54 1311.15 475.022 1315.63 480.55 1315.63Z" fill="white"/>
<path d="M752.71 1194.6C755.494 1194.6 757.75 1192.34 757.75 1189.56C757.75 1186.78 755.494 1184.52 752.71 1184.52C749.927 1184.52 747.67 1186.78 747.67 1189.56C747.67 1192.34 749.927 1194.6 752.71 1194.6Z" fill="white"/>
<path d="M775.6 1014.06C776.627 1014.06 777.46 1013.23 777.46 1012.2C777.46 1011.17 776.627 1010.34 775.6 1010.34C774.573 1010.34 773.74 1011.17 773.74 1012.2C773.74 1013.23 774.573 1014.06 775.6 1014.06Z" fill="white"/>
<path d="M1086.45 1307.48C1087.48 1307.48 1088.31 1306.65 1088.31 1305.62C1088.31 1304.59 1087.48 1303.76 1086.45 1303.76C1085.42 1303.76 1084.59 1304.59 1084.59 1305.62C1084.59 1306.65 1085.42 1307.48 1086.45 1307.48Z" fill="white"/>
<path d="M764.17 337.38C766.677 337.38 768.71 335.347 768.71 332.84C768.71 330.333 766.677 328.3 764.17 328.3C761.663 328.3 759.63 330.333 759.63 332.84C759.63 335.347 761.663 337.38 764.17 337.38Z" fill="white"/>
<path d="M794.67 112.02C795.697 112.02 796.53 111.187 796.53 110.16C796.53 109.133 795.697 108.3 794.67 108.3C793.643 108.3 792.81 109.133 792.81 110.16C792.81 111.187 793.643 112.02 794.67 112.02Z" fill="white"/>
<path d="M927.62 255.87C928.647 255.87 929.48 255.037 929.48 254.01C929.48 252.983 928.647 252.15 927.62 252.15C926.593 252.15 925.76 252.983 925.76 254.01C925.76 255.037 926.593 255.87 927.62 255.87Z" fill="white"/>
<path d="M1133.58 107.94C1134.61 107.94 1135.44 107.107 1135.44 106.08C1135.44 105.053 1134.61 104.22 1133.58 104.22C1132.55 104.22 1131.72 105.053 1131.72 106.08C1131.72 107.107 1132.55 107.94 1133.58 107.94Z" fill="#E6F0F4"/>
<path d="M569.79 1002.14C576.489 1002.14 581.92 996.709 581.92 990.01C581.92 983.311 576.489 977.88 569.79 977.88C563.091 977.88 557.66 983.311 557.66 990.01C557.66 996.709 563.091 1002.14 569.79 1002.14Z" fill="white"/>
<path d="M938.68 1350.05C943.783 1350.05 947.92 1345.91 947.92 1340.81C947.92 1335.71 943.783 1331.57 938.68 1331.57C933.577 1331.57 929.44 1335.71 929.44 1340.81C929.44 1345.91 933.577 1350.05 938.68 1350.05Z" fill="white"/>
<path d="M296.65 1070.69C298.71 1070.69 300.38 1069.02 300.38 1066.96C300.38 1064.9 298.71 1063.23 296.65 1063.23C294.59 1063.23 292.92 1064.9 292.92 1066.96C292.92 1069.02 294.59 1070.69 296.65 1070.69Z" fill="white"/>
<path d="M396.36 876.99C398.42 876.99 400.09 875.32 400.09 873.26C400.09 871.2 398.42 869.53 396.36 869.53C394.3 869.53 392.63 871.2 392.63 873.26C392.63 875.32 394.3 876.99 396.36 876.99Z" fill="white"/>
<path d="M169.11 220.75C175.809 220.75 181.24 215.319 181.24 208.62C181.24 201.921 175.809 196.49 169.11 196.49C162.411 196.49 156.98 201.921 156.98 208.62C156.98 215.319 162.411 220.75 169.11 220.75Z" fill="white"/>
<path d="M644.01 173.7C646.517 173.7 648.55 171.667 648.55 169.16C648.55 166.653 646.517 164.62 644.01 164.62C641.503 164.62 639.47 166.653 639.47 169.16C639.47 171.667 641.503 173.7 644.01 173.7Z" fill="white"/>
<path d="M644.01 668.39C646.567 668.39 648.64 666.317 648.64 663.76C648.64 661.203 646.567 659.13 644.01 659.13C641.453 659.13 639.38 661.203 639.38 663.76C639.38 666.317 641.453 668.39 644.01 668.39Z" fill="white"/>
<path d="M252.74 1294.14C255.176 1294.14 257.15 1292.17 257.15 1289.73C257.15 1287.29 255.176 1285.32 252.74 1285.32C250.304 1285.32 248.33 1287.29 248.33 1289.73C248.33 1292.17 250.304 1294.14 252.74 1294.14Z" fill="white"/>
<path d="M151.51 468.99C152.841 468.99 153.92 467.911 153.92 466.58C153.92 465.249 152.841 464.17 151.51 464.17C150.179 464.17 149.1 465.249 149.1 466.58C149.1 467.911 150.179 468.99 151.51 468.99Z" fill="white"/>
<defs>
<linearGradient id="paint0_linear_502_89" x1="2.19217e+06" y1="76448.3" x2="2.16962e+06" y2="62571.4" gradientUnits="userSpaceOnUse">
<stop stop-color="#D5E4EB"/>
<stop offset="1" stop-color="#E6F0F4"/>
</linearGradient>
<linearGradient id="paint1_linear_502_89" x1="18367.8" y1="218825" x2="27326.8" y2="208666" gradientUnits="userSpaceOnUse">
<stop stop-color="#D5E4EB"/>
<stop offset="1" stop-color="#E6F0F4"/>
</linearGradient>
<linearGradient id="paint2_linear_502_89" x1="6.49499e+06" y1="834971" x2="6.28364e+06" y2="626414" gradientUnits="userSpaceOnUse">
<stop stop-color="#D5E4EB"/>
<stop offset="1" stop-color="#E6F0F4"/>
</linearGradient>
<linearGradient id="paint3_linear_502_89" x1="81177.2" y1="335287" x2="5368.2" y2="404941" gradientUnits="userSpaceOnUse">
<stop stop-color="#D5E4EB"/>
<stop offset="1" stop-color="#E6F0F4"/>
</linearGradient>
<linearGradient id="paint4_linear_502_89" x1="304358" y1="863846" x2="346214" y2="939087" gradientUnits="userSpaceOnUse">
<stop stop-color="#D5E4EB"/>
<stop offset="1" stop-color="#E6F0F4"/>
</linearGradient>
<linearGradient id="paint5_linear_502_89" x1="1.23197e+06" y1="417241" x2="1.24464e+06" y2="430766" gradientUnits="userSpaceOnUse">
<stop stop-color="#D5E4EB"/>
<stop offset="1" stop-color="#E6F0F4"/>
</linearGradient>
<linearGradient id="paint6_linear_502_89" x1="1.83555e+06" y1="822571" x2="1.89028e+06" y2="763777" gradientUnits="userSpaceOnUse">
<stop stop-color="#D5E4EB"/>
<stop offset="0.5" stop-color="#E6F0F4"/>
<stop offset="1" stop-color="#D5E4EB"/>
</linearGradient>
<linearGradient id="paint7_linear_502_89" x1="149.46" y1="473.22" x2="21.1" y2="550.02" gradientUnits="userSpaceOnUse">
<stop stop-color="#E6F0F4"/>
<stop offset="1" stop-color="#D5E4EB"/>
</linearGradient>
<linearGradient id="paint8_linear_502_89" x1="1.19442e+06" y1="231414" x2="1.20497e+06" y2="242045" gradientUnits="userSpaceOnUse">
<stop stop-color="#E6F0F4"/>
<stop offset="1" stop-color="#E6F0F4"/>
</linearGradient>
<linearGradient id="paint9_linear_502_89" x1="207743" y1="208871" x2="211213" y2="204907" gradientUnits="userSpaceOnUse">
<stop stop-color="#E6F0F4"/>
<stop offset="1" stop-color="#E6F0F4"/>
</linearGradient>
<linearGradient id="paint10_linear_502_89" x1="286389" y1="492414" x2="294886" y2="481963" gradientUnits="userSpaceOnUse">
<stop stop-color="#D5E4EB"/>
<stop offset="1" stop-color="#E6F0F4"/>
</linearGradient>
<linearGradient id="paint11_linear_502_89" x1="1.90384e+06" y1="635560" x2="1.95123e+06" y2="686789" gradientUnits="userSpaceOnUse">
<stop stop-color="#D5E4EB"/>
<stop offset="1" stop-color="#E6F0F4"/>
</linearGradient>
<linearGradient id="paint12_linear_502_89" x1="1.88671e+06" y1="371725" x2="1.90923e+06" y2="349163" gradientUnits="userSpaceOnUse">
<stop stop-color="#D5E4EB"/>
<stop offset="1" stop-color="#E6F0F4"/>
</linearGradient>
<linearGradient id="paint13_linear_502_89" x1="1.65935e+06" y1="162959" x2="1.67158e+06" y2="151716" gradientUnits="userSpaceOnUse">
<stop stop-color="#E6F0F4"/>
<stop offset="1" stop-color="#E6F0F4"/>
</linearGradient>
<linearGradient id="paint14_linear_502_89" x1="1.50137e+06" y1="115439" x2="1.5105e+06" y2="107345" gradientUnits="userSpaceOnUse">
<stop stop-color="#E6F0F4"/>
<stop offset="1" stop-color="#E6F0F4"/>
</linearGradient>
<linearGradient id="paint15_linear_502_89" x1="102830" y1="28545" x2="82963" y2="5675.95" gradientUnits="userSpaceOnUse">
<stop stop-color="#D5E4EB"/>
<stop offset="1" stop-color="#E6F0F4"/>
</linearGradient>
<linearGradient id="paint16_linear_502_89" x1="54944.1" y1="191353" x2="61109.2" y2="185685" gradientUnits="userSpaceOnUse">
<stop stop-color="#D5E4EB"/>
<stop offset="1" stop-color="#E6F0F4"/>
</linearGradient>
<linearGradient id="paint17_linear_502_89" x1="819607" y1="269994" x2="814108" y2="264346" gradientUnits="userSpaceOnUse">
<stop stop-color="#E6F0F4"/>
<stop offset="1" stop-color="#E6F0F4"/>
</linearGradient>
<linearGradient id="paint18_linear_502_89" x1="706571" y1="65375.8" x2="708352" y2="63870.5" gradientUnits="userSpaceOnUse">
<stop stop-color="#E6F0F4"/>
<stop offset="1" stop-color="#E6F0F4"/>
</linearGradient>
<linearGradient id="paint19_linear_502_89" x1="76666.6" y1="9196.82" x2="72060.9" y2="4024.58" gradientUnits="userSpaceOnUse">
<stop stop-color="#E6F0F4"/>
<stop offset="1" stop-color="#E6F0F4"/>
</linearGradient>
</defs>
</svg>
