<svg width="1358" height="1110" viewBox="0 0 1358 1110" fill="none" xmlns="http://www.w3.org/2000/svg">
<g filter="url(#filter0_f_2506_1415)">
<ellipse cx="564.942" cy="621.131" rx="244.883" ry="125.556" fill="#0094FF"/>
</g>
<g filter="url(#filter1_f_2506_1415)">
<ellipse cx="851.996" cy="720.81" rx="247.279" ry="90.0938" transform="rotate(-19.459 851.996 720.81)" fill="#7553FF"/>
</g>
<g filter="url(#filter2_f_2506_1415)">
<ellipse cx="726.44" cy="360.434" rx="144.725" ry="90.0938" fill="#536EFF" fill-opacity="0.8"/>
</g>
<path d="M1028.22 681.763L909.493 610.435C893.612 600.889 873.753 600.889 857.862 610.435L804.218 642.668L778.359 627.304C778.119 627.16 777.391 626.729 777.391 625.598C777.391 624.467 778.119 624.035 778.359 623.892L948.08 523.389C960.981 515.75 968.706 502.246 968.754 487.256C968.802 472.266 961.163 458.713 948.31 450.998L882.398 411.395C854.632 394.718 819.965 394.421 791.921 410.618L701.377 462.921L593.111 397.881C566.073 381.635 532.269 381.635 505.231 397.881L383.566 470.972L225.327 378.204C221.713 376.028 221.33 372.53 221.339 371.131C221.339 369.722 221.742 366.223 225.375 364.076L417.466 250.366C443.124 235.175 474.944 235.281 500.506 250.635L560.207 286.5L558.568 287.487C551.696 291.618 551.696 301.576 558.568 305.707L677.291 377.035C693.172 386.581 713.031 386.581 728.922 377.035L847.645 305.707C854.517 301.576 854.517 291.618 847.645 287.487L728.913 216.16C713.031 206.613 693.172 206.613 677.281 216.16L588.117 269.727L515.304 225.984C480.675 205.176 437.574 205.042 402.811 225.619L210.729 339.339C199.41 346.038 192.624 357.885 192.586 371.035C192.548 384.185 199.247 396.079 210.519 402.855L353.749 488.895L303.133 519.297C291.44 526.322 291.44 543.277 303.133 550.302L505.221 671.718C532.259 687.964 566.063 687.964 593.101 671.718L795.189 550.302C806.882 543.277 806.882 526.322 795.189 519.297L729.536 479.857L806.288 435.519C825.284 424.545 848.766 424.746 867.571 436.046L933.483 475.649C939.368 479.186 939.981 484.888 939.981 487.169C939.981 489.46 939.32 495.153 933.416 498.652L763.695 599.154C754.264 604.742 748.628 614.614 748.618 625.579C748.618 636.534 754.225 646.425 763.647 652.022L776.202 659.488L739.12 681.772C732.248 685.903 732.248 695.861 739.12 699.992L857.843 771.32C873.724 780.866 893.583 780.866 909.474 771.32L1028.2 699.992C1035.07 695.861 1035.07 685.903 1028.2 681.772L1028.22 681.763Z" fill="url(#paint0_radial_2506_1415)"/>
<path d="M1028.22 681.763L909.493 610.435C893.612 600.889 873.753 600.889 857.862 610.435L804.218 642.668L778.359 627.304C778.119 627.16 777.391 626.729 777.391 625.598C777.391 624.467 778.119 624.035 778.359 623.892L948.08 523.389C960.981 515.75 968.706 502.246 968.754 487.256C968.802 472.266 961.163 458.713 948.31 450.998L882.398 411.395C854.632 394.718 819.965 394.421 791.921 410.618L701.377 462.921L593.111 397.881C566.073 381.635 532.269 381.635 505.231 397.881L383.566 470.972L225.327 378.204C221.713 376.028 221.33 372.53 221.339 371.131C221.339 369.722 221.742 366.223 225.375 364.076L417.466 250.366C443.124 235.175 474.944 235.281 500.506 250.635L560.207 286.5L558.568 287.487C551.696 291.618 551.696 301.576 558.568 305.707L677.291 377.035C693.172 386.581 713.031 386.581 728.922 377.035L847.645 305.707C854.517 301.576 854.517 291.618 847.645 287.487L728.913 216.16C713.031 206.613 693.172 206.613 677.281 216.16L588.117 269.727L515.304 225.984C480.675 205.176 437.574 205.042 402.811 225.619L210.729 339.339C199.41 346.038 192.624 357.885 192.586 371.035C192.548 384.185 199.247 396.079 210.519 402.855L353.749 488.895L303.133 519.297C291.44 526.322 291.44 543.277 303.133 550.302L505.221 671.718C532.259 687.964 566.063 687.964 593.101 671.718L795.189 550.302C806.882 543.277 806.882 526.322 795.189 519.297L729.536 479.857L806.288 435.519C825.284 424.545 848.766 424.746 867.571 436.046L933.483 475.649C939.368 479.186 939.981 484.888 939.981 487.169C939.981 489.46 939.32 495.153 933.416 498.652L763.695 599.154C754.264 604.742 748.628 614.614 748.618 625.579C748.618 636.534 754.225 646.425 763.647 652.022L776.202 659.488L739.12 681.772C732.248 685.903 732.248 695.861 739.12 699.992L857.843 771.32C873.724 780.866 893.583 780.866 909.474 771.32L1028.2 699.992C1035.07 695.861 1035.07 685.903 1028.2 681.772L1028.22 681.763Z" fill="url(#paint1_radial_2506_1415)" fill-opacity="0.7"/>
<path d="M1028.22 681.763L909.493 610.435C893.612 600.889 873.753 600.889 857.862 610.435L804.218 642.668L778.359 627.304C778.119 627.16 777.391 626.729 777.391 625.598C777.391 624.467 778.119 624.035 778.359 623.892L948.08 523.389C960.981 515.75 968.706 502.246 968.754 487.256C968.802 472.266 961.163 458.713 948.31 450.998L882.398 411.395C854.632 394.718 819.965 394.421 791.921 410.618L701.377 462.921L593.111 397.881C566.073 381.635 532.269 381.635 505.231 397.881L383.566 470.972L225.327 378.204C221.713 376.028 221.33 372.53 221.339 371.131C221.339 369.722 221.742 366.223 225.375 364.076L417.466 250.366C443.124 235.175 474.944 235.281 500.506 250.635L560.207 286.5L558.568 287.487C551.696 291.618 551.696 301.576 558.568 305.707L677.291 377.035C693.172 386.581 713.031 386.581 728.922 377.035L847.645 305.707C854.517 301.576 854.517 291.618 847.645 287.487L728.913 216.16C713.031 206.613 693.172 206.613 677.281 216.16L588.117 269.727L515.304 225.984C480.675 205.176 437.574 205.042 402.811 225.619L210.729 339.339C199.41 346.038 192.624 357.885 192.586 371.035C192.548 384.185 199.247 396.079 210.519 402.855L353.749 488.895L303.133 519.297C291.44 526.322 291.44 543.277 303.133 550.302L505.221 671.718C532.259 687.964 566.063 687.964 593.101 671.718L795.189 550.302C806.882 543.277 806.882 526.322 795.189 519.297L729.536 479.857L806.288 435.519C825.284 424.545 848.766 424.746 867.571 436.046L933.483 475.649C939.368 479.186 939.981 484.888 939.981 487.169C939.981 489.46 939.32 495.153 933.416 498.652L763.695 599.154C754.264 604.742 748.628 614.614 748.618 625.579C748.618 636.534 754.225 646.425 763.647 652.022L776.202 659.488L739.12 681.772C732.248 685.903 732.248 695.861 739.12 699.992L857.843 771.32C873.724 780.866 893.583 780.866 909.474 771.32L1028.2 699.992C1035.07 695.861 1035.07 685.903 1028.2 681.772L1028.22 681.763Z" fill="url(#paint2_radial_2506_1415)" fill-opacity="0.9"/>
<g clip-path="url(#clip0_2506_1415)">
<path d="M504.602 671.477L302.014 550.424C290.292 543.419 290.292 526.515 302.014 519.511L504.602 398.458C531.705 382.261 565.591 382.261 592.695 398.458L795.273 519.511C806.994 526.515 806.994 543.419 795.273 550.424L592.695 671.477C565.591 687.674 531.705 687.674 504.602 671.477Z" fill="url(#paint3_linear_2506_1415)"/>
<path d="M804.064 574.409L803.958 585.625C804.554 592.19 801.633 599.023 795.148 602.826L591.695 722.407C564.458 738.404 530.571 738.155 503.593 721.757L301.898 599.233C296.691 596.06 293.847 590.938 293.319 585.616L293.232 585.559V534.962C293.309 540.858 296.22 546.735 302.004 550.223L504.582 671.266C531.686 687.483 565.572 687.483 592.685 671.266L795.263 550.223C801.047 546.745 803.987 540.868 804.054 534.962V574.399L804.064 574.409Z" fill="url(#paint4_linear_2506_1415)"/>
</g>
<g clip-path="url(#clip1_2506_1415)">
<path d="M677.092 376.922L558.124 305.638C551.241 301.514 551.241 291.56 558.124 287.435L677.092 216.152C693.008 206.614 712.908 206.614 728.824 216.152L847.787 287.435C854.67 291.56 854.67 301.514 847.787 305.638L728.824 376.922C712.908 386.459 693.008 386.459 677.092 376.922Z" fill="url(#paint5_linear_2506_1415)"/>
<path d="M852.949 319.762L852.887 334.269C853.237 338.135 851.521 342.158 847.713 344.398L728.237 414.814C712.242 424.234 692.342 424.087 676.499 414.432L558.056 342.282C554.998 340.414 553.328 337.398 553.018 334.263L552.967 334.23V296.534C553.012 300.006 554.721 303.467 558.118 305.52L677.081 376.798C692.997 386.347 712.896 386.347 728.818 376.798L847.781 305.52C851.177 303.472 852.904 300.012 852.943 296.534V319.757L852.949 319.762Z" fill="url(#paint6_linear_2506_1415)"/>
</g>
<g clip-path="url(#clip2_2506_1415)">
<path opacity="0.69" d="M857.841 771.801L739.253 700.518C732.392 696.393 732.392 686.439 739.253 682.314L857.841 611.031C873.707 601.493 893.543 601.493 909.408 611.031L1027.99 682.314C1034.85 686.439 1034.85 696.393 1027.99 700.518L909.408 771.801C893.543 781.339 873.707 781.339 857.841 771.801Z" fill="url(#paint7_linear_2506_1415)"/>
<path d="M1033.14 714.642L1033.07 729.148C1033.42 733.014 1031.71 737.037 1027.92 739.277L908.823 809.693C892.879 819.113 873.043 818.967 857.251 809.311L739.186 737.161C736.137 735.293 734.473 732.277 734.163 729.143L734.113 729.109V691.413C734.158 694.885 735.862 698.346 739.248 700.4L857.83 771.677C873.695 781.226 893.531 781.226 909.402 771.677L1027.98 700.4C1031.37 698.351 1033.09 694.891 1033.13 691.413V714.636L1033.14 714.642Z" fill="url(#paint8_linear_2506_1415)"/>
</g>
<g filter="url(#filter3_f_2506_1415)">
<g clip-path="url(#clip3_2506_1415)">
<path d="M592.138 500.08L565.228 562.925L667.852 544.305C653.657 513.286 611.421 501.916 592.138 500.08Z" fill="url(#paint9_radial_2506_1415)"/>
<path d="M592.138 500.08L565.228 562.925L667.852 544.305C653.657 513.286 611.421 501.916 592.138 500.08Z" fill="url(#paint10_linear_2506_1415)" fill-opacity="0.5"/>
<path d="M592.138 500.08L565.228 562.925L667.852 544.305C653.657 513.286 611.421 501.916 592.138 500.08Z" fill="url(#paint11_radial_2506_1415)"/>
<path d="M613.644 625.647C639.045 617.235 685.228 589.05 667.852 544.305L613.644 625.647Z" fill="url(#paint12_radial_2506_1415)"/>
<path d="M613.644 625.647C639.045 617.235 685.228 589.05 667.852 544.305L613.644 625.647Z" fill="url(#paint13_linear_2506_1415)" fill-opacity="0.5"/>
<path d="M613.644 625.647C639.045 617.235 685.228 589.05 667.852 544.305L613.644 625.647Z" fill="url(#paint14_radial_2506_1415)"/>
<path d="M524.481 627.36C485.915 615.726 471.599 590.539 470.263 579.76L553.257 595.821L613.644 625.647C601 629.583 563.056 638.995 524.481 627.36Z" fill="url(#paint15_radial_2506_1415)"/>
<path d="M524.481 627.36C485.915 615.726 471.599 590.539 470.263 579.76L553.257 595.821L613.644 625.647C601 629.583 563.056 638.995 524.481 627.36Z" fill="url(#paint16_linear_2506_1415)" fill-opacity="0.8"/>
<path d="M553.257 595.821L565.218 562.925L470.263 579.76L553.257 595.821Z" fill="url(#paint17_linear_2506_1415)"/>
<path d="M553.257 595.821L565.218 562.925L470.263 579.76L553.257 595.821Z" fill="url(#paint18_radial_2506_1415)"/>
<path d="M565.228 562.925L553.267 595.821L613.654 625.647L565.238 562.925H565.228Z" fill="url(#paint19_radial_2506_1415)"/>
<path d="M565.228 562.925L553.267 595.821L613.654 625.647L565.238 562.925H565.228Z" fill="url(#paint20_linear_2506_1415)" fill-opacity="0.8"/>
<path d="M565.228 562.925L613.644 625.647L667.852 544.305L565.228 562.925Z" fill="url(#paint21_radial_2506_1415)"/>
<path d="M565.228 562.925L613.644 625.647L667.852 544.305L565.228 562.925Z" fill="url(#paint22_radial_2506_1415)" fill-opacity="0.2"/>
<path d="M454.131 515.406L467.499 565.627L482.305 535.413L454.131 515.406Z" fill="url(#paint23_radial_2506_1415)"/>
<path d="M480.552 485.366L482.305 535.413L454.131 515.406L480.552 485.366Z" fill="url(#paint24_radial_2506_1415)"/>
<path d="M480.552 485.366L482.305 535.413L454.131 515.406L480.552 485.366Z" fill="url(#paint25_radial_2506_1415)"/>
<path d="M480.552 485.366L482.305 535.413L454.131 515.406L480.552 485.366Z" fill="url(#paint26_linear_2506_1415)"/>
<path d="M445.117 480.369L454.131 515.396L480.552 485.356L445.117 480.369Z" fill="url(#paint27_radial_2506_1415)"/>
<path d="M482.306 535.413L467.52 565.27L548.006 551.127L559.233 527.347L482.296 535.413H482.306Z" fill="url(#paint28_radial_2506_1415)"/>
<path d="M482.306 535.413L467.52 565.27L548.006 551.127L559.233 527.347L482.296 535.413H482.306Z" fill="url(#paint29_linear_2506_1415)"/>
<path d="M480.552 485.366L482.306 535.413L559.243 527.347L480.552 485.366Z" fill="url(#paint30_radial_2506_1415)"/>
<path d="M480.552 485.366L482.306 535.413L559.243 527.347L480.552 485.366Z" fill="url(#paint31_radial_2506_1415)" fill-opacity="0.8"/>
<path d="M480.552 485.366L559.243 527.347L572.907 498.204L480.552 485.366Z" fill="url(#paint32_radial_2506_1415)" fill-opacity="0.9"/>
<path d="M480.552 485.366L559.243 527.347L572.907 498.204L480.552 485.366Z" fill="url(#paint33_radial_2506_1415)" fill-opacity="0.7"/>
<g filter="url(#filter4_b_2506_1415)">
<path fill-rule="evenodd" clip-rule="evenodd" d="M672.878 547.085C672.883 547.284 672.889 547.507 672.889 547.762L672.879 547.772L672.881 547.865C672.923 549.76 672.997 553.165 672.706 559.907C675.021 591.12 645.449 614.094 619.232 624.373C619.518 625.708 618.835 627.075 617.356 628.023C615.041 629.512 611.391 629.512 609.219 628.023C609.086 627.931 608.954 627.84 608.842 627.738C598.787 630.42 583.002 633.601 564.698 633.601C552.125 633.601 538.359 632.102 524.44 627.901C503.057 621.446 490.096 611.096 482.989 603.55C477.421 597.636 473.169 591.038 470.987 584.961C470.508 584.339 470.039 583.798 469.58 583.36C468.458 583.217 467.449 582.85 466.643 582.299C465.552 581.555 464.961 580.546 464.981 579.454C465.001 578.323 465.705 577.221 466.918 576.446C469.111 575.039 472.425 574.947 474.658 576.212C475.892 576.497 481.021 576.528 487.262 575.834L547.659 565.128C551.473 564.251 556.592 562.986 559.518 561.875C559.763 561.018 560.405 560.223 561.343 559.621C562.057 559.162 562.914 558.826 563.842 558.652C565.086 557.541 567.401 554.533 570.317 549.302L587.978 508.034C588.611 506.025 589.008 504.414 589.161 503.282C589.161 503.272 589.141 503.262 589.141 503.262C588.05 502.517 587.458 501.508 587.479 500.417C587.499 499.275 588.203 498.184 589.416 497.409C591.731 495.92 595.381 495.93 597.553 497.409C598.145 497.817 598.583 498.296 598.869 498.836C601.02 499.57 604.12 500.611 607.383 501.671C619.783 504.587 650.181 513.857 665.14 536.882C666.669 538.544 667.964 539.829 668.943 540.634C670.136 540.767 671.207 541.134 672.053 541.715C673.022 542.378 673.603 543.265 673.705 544.224C673.797 545.07 673.501 545.926 672.869 546.65C672.869 546.782 672.873 546.926 672.878 547.085ZM594.26 504.312C591.354 506.902 588.621 511.593 587.244 514.183V514.173L573.264 546.844C570.602 553.482 569.154 557.908 569.195 559.305C569.634 559.703 571.551 560.355 580.902 559.162L647.193 547.13C654.382 545.549 659.46 544.325 662.264 543.51C662.58 542.816 663.151 542.194 663.926 541.695C663.97 541.663 664.017 541.636 664.066 541.608C664.097 541.59 664.129 541.572 664.161 541.552C664.069 540.451 663.753 538.544 662.743 536.392C649.416 517.038 624.861 507.973 611.401 504.292C607.241 503.313 601.612 502.222 598.247 502.466C597.982 502.752 597.655 503.027 597.278 503.262C596.432 503.802 595.392 504.169 594.26 504.312ZM559.08 595.138C559.059 595.393 559.008 595.647 558.927 595.892H558.917C560.099 597.085 562.679 598.88 566.432 601.113L608.699 621.997C608.954 622.068 609.127 622.109 609.26 622.129C609.066 621.568 608.281 619.968 605.171 615.542L570.878 571.113C567.441 567.361 566.595 567.167 566.452 567.167C565.891 567.228 564.953 567.799 563.699 570.267L558.815 583.696C557.948 587.602 557.479 590.722 557.387 592.14C558.539 592.904 559.151 593.985 559.08 595.138ZM570.684 564.179C570.368 564.455 569.675 565.831 573.988 572.327L608.974 617.643C611.717 620.406 612.89 620.824 613.349 620.824C614.032 620.824 615.765 620.12 619.6 615.409L659.032 556.225C663.151 549.21 663.304 547.609 663.274 547.303C661.428 546.599 644.042 549.24 628.389 552.106L582.931 560.355C573.682 562.466 571.286 563.659 570.684 564.179ZM552.737 565.77L485.518 577.69V577.701C484.661 577.874 483.815 578.037 483.02 578.19C481.021 578.567 478.614 579.026 477.799 579.505C478.808 579.934 482.081 580.851 491.137 582.769L523.512 589.03C535.372 590.906 546.711 592.425 548.852 592.425H548.872C549.953 591.589 551.473 591.089 553.084 591.028C553.961 590.11 554.919 588.571 555.949 586.439L562.261 569.074C562.435 567.371 562.2 566.239 561.588 565.821C561.211 565.556 559.6 565.036 552.737 565.77ZM484.396 602.561C491.361 609.964 504.077 620.12 525.083 626.453C552.503 634.723 579.545 632.286 597.4 628.788C602.458 627.605 606.058 626.555 607.628 625.81C607.547 625.413 607.547 625.005 607.628 624.597C606.048 623.2 602.213 620.834 596.493 617.734L567.91 603.611C561.751 600.828 557.244 599.135 555.195 598.839C554.491 599.023 553.787 599.094 552.992 599.114C550.412 599.104 548.23 597.942 547.557 596.269C545.334 595.423 538.206 593.69 526.877 591.242L490.555 584.217C482.989 583.003 477.738 582.33 475.77 582.33C475.494 582.33 475.28 582.34 475.137 582.371C474.638 582.463 474.291 582.707 474.077 583.095C473.649 583.89 473.496 585.746 475.239 590.1C477.534 594.342 480.623 598.554 484.396 602.561ZM627.798 618.815C641.972 611.718 653.852 602.184 661.255 591.966L661.265 591.976C670.952 578.608 673.481 564.016 668.77 548.618C668.484 548.649 668.199 548.68 667.913 548.68C667.261 549.139 665.456 550.576 662.743 553.737L621.496 615.644C618.559 620.855 618.763 621.762 618.794 621.854C618.798 621.854 618.804 621.854 618.812 621.855C619.003 621.871 620.479 621.991 627.798 618.815Z" fill="url(#paint34_linear_2506_1415)" fill-opacity="0.7"/>
<path fill-rule="evenodd" clip-rule="evenodd" d="M672.878 547.085C672.883 547.284 672.889 547.507 672.889 547.762L672.879 547.772L672.881 547.865C672.923 549.76 672.997 553.165 672.706 559.907C675.021 591.12 645.449 614.094 619.232 624.373C619.518 625.708 618.835 627.075 617.356 628.023C615.041 629.512 611.391 629.512 609.219 628.023C609.086 627.931 608.954 627.84 608.842 627.738C598.787 630.42 583.002 633.601 564.698 633.601C552.125 633.601 538.359 632.102 524.44 627.901C503.057 621.446 490.096 611.096 482.989 603.55C477.421 597.636 473.169 591.038 470.987 584.961C470.508 584.339 470.039 583.798 469.58 583.36C468.458 583.217 467.449 582.85 466.643 582.299C465.552 581.555 464.961 580.546 464.981 579.454C465.001 578.323 465.705 577.221 466.918 576.446C469.111 575.039 472.425 574.947 474.658 576.212C475.892 576.497 481.021 576.528 487.262 575.834L547.659 565.128C551.473 564.251 556.592 562.986 559.518 561.875C559.763 561.018 560.405 560.223 561.343 559.621C562.057 559.162 562.914 558.826 563.842 558.652C565.086 557.541 567.401 554.533 570.317 549.302L587.978 508.034C588.611 506.025 589.008 504.414 589.161 503.282C589.161 503.272 589.141 503.262 589.141 503.262C588.05 502.517 587.458 501.508 587.479 500.417C587.499 499.275 588.203 498.184 589.416 497.409C591.731 495.92 595.381 495.93 597.553 497.409C598.145 497.817 598.583 498.296 598.869 498.836C601.02 499.57 604.12 500.611 607.383 501.671C619.783 504.587 650.181 513.857 665.14 536.882C666.669 538.544 667.964 539.829 668.943 540.634C670.136 540.767 671.207 541.134 672.053 541.715C673.022 542.378 673.603 543.265 673.705 544.224C673.797 545.07 673.501 545.926 672.869 546.65C672.869 546.782 672.873 546.926 672.878 547.085ZM594.26 504.312C591.354 506.902 588.621 511.593 587.244 514.183V514.173L573.264 546.844C570.602 553.482 569.154 557.908 569.195 559.305C569.634 559.703 571.551 560.355 580.902 559.162L647.193 547.13C654.382 545.549 659.46 544.325 662.264 543.51C662.58 542.816 663.151 542.194 663.926 541.695C663.97 541.663 664.017 541.636 664.066 541.608C664.097 541.59 664.129 541.572 664.161 541.552C664.069 540.451 663.753 538.544 662.743 536.392C649.416 517.038 624.861 507.973 611.401 504.292C607.241 503.313 601.612 502.222 598.247 502.466C597.982 502.752 597.655 503.027 597.278 503.262C596.432 503.802 595.392 504.169 594.26 504.312ZM559.08 595.138C559.059 595.393 559.008 595.647 558.927 595.892H558.917C560.099 597.085 562.679 598.88 566.432 601.113L608.699 621.997C608.954 622.068 609.127 622.109 609.26 622.129C609.066 621.568 608.281 619.968 605.171 615.542L570.878 571.113C567.441 567.361 566.595 567.167 566.452 567.167C565.891 567.228 564.953 567.799 563.699 570.267L558.815 583.696C557.948 587.602 557.479 590.722 557.387 592.14C558.539 592.904 559.151 593.985 559.08 595.138ZM570.684 564.179C570.368 564.455 569.675 565.831 573.988 572.327L608.974 617.643C611.717 620.406 612.89 620.824 613.349 620.824C614.032 620.824 615.765 620.12 619.6 615.409L659.032 556.225C663.151 549.21 663.304 547.609 663.274 547.303C661.428 546.599 644.042 549.24 628.389 552.106L582.931 560.355C573.682 562.466 571.286 563.659 570.684 564.179ZM552.737 565.77L485.518 577.69V577.701C484.661 577.874 483.815 578.037 483.02 578.19C481.021 578.567 478.614 579.026 477.799 579.505C478.808 579.934 482.081 580.851 491.137 582.769L523.512 589.03C535.372 590.906 546.711 592.425 548.852 592.425H548.872C549.953 591.589 551.473 591.089 553.084 591.028C553.961 590.11 554.919 588.571 555.949 586.439L562.261 569.074C562.435 567.371 562.2 566.239 561.588 565.821C561.211 565.556 559.6 565.036 552.737 565.77ZM484.396 602.561C491.361 609.964 504.077 620.12 525.083 626.453C552.503 634.723 579.545 632.286 597.4 628.788C602.458 627.605 606.058 626.555 607.628 625.81C607.547 625.413 607.547 625.005 607.628 624.597C606.048 623.2 602.213 620.834 596.493 617.734L567.91 603.611C561.751 600.828 557.244 599.135 555.195 598.839C554.491 599.023 553.787 599.094 552.992 599.114C550.412 599.104 548.23 597.942 547.557 596.269C545.334 595.423 538.206 593.69 526.877 591.242L490.555 584.217C482.989 583.003 477.738 582.33 475.77 582.33C475.494 582.33 475.28 582.34 475.137 582.371C474.638 582.463 474.291 582.707 474.077 583.095C473.649 583.89 473.496 585.746 475.239 590.1C477.534 594.342 480.623 598.554 484.396 602.561ZM627.798 618.815C641.972 611.718 653.852 602.184 661.255 591.966L661.265 591.976C670.952 578.608 673.481 564.016 668.77 548.618C668.484 548.649 668.199 548.68 667.913 548.68C667.261 549.139 665.456 550.576 662.743 553.737L621.496 615.644C618.559 620.855 618.763 621.762 618.794 621.854C618.798 621.854 618.804 621.854 618.812 621.855C619.003 621.871 620.479 621.991 627.798 618.815Z" fill="url(#paint35_linear_2506_1415)"/>
</g>
<g filter="url(#filter5_b_2506_1415)">
<path fill-rule="evenodd" clip-rule="evenodd" d="M568.624 495.644C570.99 494.135 574.691 494.135 576.904 495.644L576.935 495.655C579.137 497.164 579.015 499.621 576.649 501.131C575.956 501.569 575.15 501.865 574.304 502.048C572.958 503.18 570.928 505.301 569.052 508.421L566.574 513.704C565.004 517.997 563.689 522.381 563.607 525.032C565.718 526.552 565.575 528.948 563.24 530.437C562.353 530.998 561.272 531.344 560.16 531.487C559.039 532.476 557.428 534.21 555.786 536.616L551.513 545.661C551.411 546.467 551.391 547.221 551.472 547.864C551.497 547.877 551.522 547.89 551.547 547.903C551.718 547.992 551.892 548.083 552.043 548.19C554.246 549.699 554.124 552.157 551.758 553.666C549.831 554.9 547.006 555.124 544.834 554.349C542.642 554.094 538.369 553.686 534.464 554.094L485.161 562.762C481.011 563.679 476.452 564.811 473.832 565.76C473.628 566.575 473.047 567.361 472.068 567.993C469.702 569.502 466 569.502 463.788 567.993C461.86 566.677 461.728 564.648 463.288 563.149L463.186 563.037L463.553 562.854C463.553 562.854 463.563 562.854 463.584 562.833C463.59 562.827 463.597 562.821 463.605 562.814C463.623 562.799 463.644 562.78 463.665 562.752C463.726 562.68 463.788 562.578 463.859 562.425C463.992 562.119 464.124 561.681 464.196 561.059C464.338 559.815 464.297 557.908 463.798 555.114L455.977 525.726C455.395 524.186 454.804 522.83 454.223 521.718C453.672 520.658 453.142 519.873 452.642 519.373C451.5 519.241 450.429 518.894 449.573 518.313C447.37 516.803 447.493 514.346 449.858 512.837C449.894 512.816 449.927 512.796 449.96 512.776C449.993 512.755 450.027 512.735 450.062 512.714C450.542 512.103 451.286 510.512 451.357 508.105L447.819 494.37C446.361 490.729 444.23 485.865 442.751 483.693C442.16 483.5 441.599 483.255 441.119 482.929C438.907 481.42 439.029 478.972 441.405 477.443C443.771 475.933 447.472 475.933 449.685 477.443C450.48 477.993 450.96 478.656 451.153 479.36C453.325 480.084 455.997 480.94 458.536 481.654L465.633 482.653C468.733 482.602 472.679 482.633 476.238 482.827C476.248 482.822 476.256 482.814 476.262 482.808C476.269 482.801 476.274 482.796 476.279 482.796C478.645 481.287 482.346 481.287 484.559 482.796C485.314 483.316 485.783 483.938 485.997 484.591C488.199 485.315 492.462 486.212 497.173 487.069L560.956 495.94C562.485 496.063 563.943 496.144 565.208 496.175C566.401 496.195 567.37 496.165 568.063 496.073C568.09 496.05 568.118 496.027 568.145 496.004C568.292 495.882 568.444 495.756 568.624 495.644ZM568.338 501.12C567.574 500.6 567.105 499.968 566.89 499.295V499.285C565.33 498.612 562.995 497.765 560.038 497.011L489.678 487.232C488.546 487.13 487.577 487.059 486.843 487.038C486.466 487.028 486.17 487.028 485.936 487.038C485.904 487.041 485.876 487.045 485.85 487.047C485.795 487.054 485.753 487.059 485.711 487.059C485.793 487.201 485.997 487.405 486.333 487.681L532.71 512.439L533.587 512.888L533.281 513.143L533.282 513.143L533.587 512.888L534.963 513.591C535.44 513.835 535.913 514.077 536.381 514.317C541.401 516.887 545.957 519.221 549.576 520.974C551.554 521.933 553.247 522.718 554.572 523.268C555.235 523.544 555.806 523.758 556.265 523.911C556.683 524.043 556.958 524.105 557.152 524.135L557.152 524.135C557.387 524.074 557.621 524.013 557.856 523.972C558.202 523.778 558.621 523.442 559.079 522.962C559.559 522.463 560.048 521.831 560.568 521.096C561.598 519.628 562.679 517.762 563.74 515.763L569.46 503.568C569.603 502.884 569.674 502.283 569.654 501.773C569.185 501.6 568.736 501.385 568.338 501.12ZM558.093 524.26L558.09 524.258L558.091 524.261C558.092 524.261 558.093 524.26 558.093 524.26ZM536.656 516.294H536.636V516.334C536.384 516.192 536.13 516.048 535.876 515.904C533.964 514.821 531.971 513.692 529.946 512.531L497.53 495.237C494.624 493.84 491.238 492.279 488.363 491.066C486.925 490.454 485.62 489.944 484.579 489.587C484.059 489.404 483.611 489.271 483.244 489.18C482.907 489.098 482.713 489.067 482.591 489.067C482.571 489.078 482.56 489.078 482.55 489.078C482.546 489.086 482.54 489.094 482.533 489.104C482.523 489.118 482.511 489.135 482.499 489.159C482.448 489.241 482.408 489.353 482.357 489.496C482.265 489.781 482.173 490.148 482.091 490.597C481.938 491.494 481.816 492.647 481.724 493.931L482.805 524.869C483.295 527.572 484.039 530.151 485.049 531.701C485.711 531.885 486.323 532.15 486.853 532.507C487.17 532.721 487.424 532.966 487.649 533.211C489.821 533.465 493.726 533.404 498.172 533.17L543.356 528.428C545.762 528.092 547.934 527.755 549.678 527.429C551.36 527.113 552.574 526.827 553.226 526.572C553.216 526.562 553.216 526.552 553.216 526.542C553.145 526.399 552.951 526.195 552.614 525.909C551.941 525.349 550.81 524.584 549.29 523.635C546.295 521.776 541.903 519.283 536.876 516.429L536.656 516.304L536.993 516.049L536.656 516.294ZM555.449 532.018C555.49 531.63 555.48 531.304 555.429 531.059V531.079C555.378 530.814 555.276 530.682 555.194 530.631C554.888 530.427 554.389 530.233 553.685 530.07C552.992 529.917 552.115 529.795 551.095 529.703C549.056 529.529 546.476 529.509 543.6 529.591L499.926 534.169C495.348 534.75 491.065 535.362 488.312 535.882C488.077 536.647 487.516 537.391 486.588 537.983C485.518 538.666 484.172 539.033 482.815 539.094C482.04 539.859 480.725 541.409 479.155 543.724L472.139 558.03C471.833 559.04 471.639 559.958 471.588 560.702C471.568 561.079 471.578 561.395 471.629 561.66C471.68 561.936 471.772 562.119 471.874 562.231C471.894 562.252 471.915 562.272 471.945 562.293C471.966 562.303 471.984 562.313 472.001 562.323C472.019 562.333 472.037 562.344 472.057 562.354C472.282 562.466 472.669 562.558 473.24 562.619C473.811 562.68 474.515 562.701 475.321 562.69C476.932 562.67 478.91 562.517 480.99 562.293L539.542 552.004C540.358 551.739 541.153 551.453 541.887 551.147C541.857 550.087 542.468 549.006 543.733 548.2C544.579 547.66 545.599 547.313 546.659 547.16C548.056 546.385 550.014 544.784 551.452 541.827C551.55 541.638 551.637 541.438 551.726 541.235C551.757 541.164 551.787 541.093 551.819 541.022V541.001H551.85L554.735 534.893C555.113 533.792 555.368 532.792 555.449 532.018ZM468.193 561.151C468.458 560.947 468.764 560.631 469.1 560.212V560.192L479.399 539.4C479.481 539.125 479.552 538.86 479.614 538.605C479.134 538.431 478.686 538.217 478.298 537.952C476.707 536.871 476.34 535.301 477.125 533.945C476.758 533.272 475.994 532.181 474.749 530.906L466.449 525.012C464.756 523.88 462.972 522.759 461.442 521.882C460.678 521.443 459.984 521.076 459.393 520.811C458.924 520.597 458.557 520.464 458.302 520.403C458.23 520.546 458.179 520.77 458.149 521.117C458.087 521.82 458.138 522.871 458.281 524.166C458.567 526.756 459.209 530.284 459.984 533.975L466.928 560.08C467.142 560.518 467.346 560.855 467.54 561.089C467.642 561.212 467.724 561.283 467.785 561.334L467.815 561.355C467.866 561.344 467.979 561.304 468.193 561.151ZM458.813 513.43C458.917 512.788 459.314 511.904 459.933 510.838C460.576 509.727 461.442 508.472 462.411 507.157L475.596 492.167C476.575 491.239 477.462 490.485 478.145 490.016C478.482 489.781 478.737 489.649 478.91 489.587C478.981 489.689 479.063 489.873 479.155 490.148C479.267 490.495 479.379 490.954 479.481 491.484C479.685 492.545 479.858 493.911 480.011 495.369L480.858 519.455C480.513 522.9 480.339 525.6 480.209 527.613C480.201 527.745 480.193 527.874 480.185 528C480.062 529.988 479.981 531.212 479.828 531.783C479.675 531.783 479.399 531.712 478.971 531.548C478.125 531.222 476.993 530.631 475.79 529.927L467.499 524.033C464.461 521.28 461.218 518.068 459.678 515.784C459.78 514.969 459.495 514.143 458.813 513.43ZM454.233 511.735C454.416 511.746 454.59 511.756 454.763 511.766L454.743 511.756C455.446 511.215 456.813 509.961 458.506 508.34C460.321 506.617 462.442 504.516 464.399 502.568L473.669 492.035C474.678 490.526 475.422 489.139 475.677 488.058C474.851 487.395 474.433 486.589 474.413 485.763C473.638 485.366 472.608 485.009 471.446 484.703L458.842 482.929C456.803 482.715 454.671 482.551 452.897 482.531C452.01 482.531 451.235 482.562 450.613 482.633C449.971 482.704 449.583 482.827 449.389 482.949C449.318 482.99 449.216 483.092 449.114 483.275C449.022 483.449 448.93 483.683 448.859 483.959C448.706 484.509 448.635 485.233 448.604 486.069C448.553 487.732 448.716 489.791 448.951 491.78L454.009 511.44C454.022 511.458 454.035 511.476 454.047 511.493C454.113 511.584 454.173 511.667 454.233 511.735ZM469.585 560.313L469.585 560.313L469.539 560.304L469.585 560.313ZM479.897 539.485L479.868 539.482L479.897 539.485L479.897 539.485ZM471.714 562.591L471.731 562.578L471.715 562.591L471.714 562.591ZM481.08 562.621L481.072 562.578L481.086 562.621C481.084 562.621 481.082 562.621 481.08 562.621ZM443.148 483.435L443.139 483.449L443.161 483.441C443.16 483.44 443.159 483.439 443.159 483.439C443.155 483.438 443.151 483.437 443.148 483.435ZM458.285 513.472L458.291 513.469L458.285 513.469C458.285 513.47 458.285 513.471 458.285 513.472ZM454.991 512.093L454.957 512.072L454.948 512.099C454.958 512.1 454.968 512.101 454.977 512.103C454.982 512.099 454.986 512.096 454.991 512.093ZM448.449 491.811C448.449 491.811 448.449 491.811 448.449 491.811L448.451 491.81L448.449 491.811ZM456.481 525.631L456.466 525.634V525.644L456.485 525.642C456.484 525.638 456.483 525.635 456.481 525.631Z" fill="url(#paint36_radial_2506_1415)" fill-opacity="0.7"/>
</g>
<path d="M567.625 498.795L567.339 499.081L567.839 499.01L567.808 498.877L567.625 498.795Z" fill="#FF8E76"/>
<path d="M484.467 532.232L484.661 531.926L484.202 532.069L484.284 532.191L484.467 532.232Z" fill="#FF8E76"/>
<path d="M457.873 513.693L458.292 513.5L457.792 513.479L457.771 513.591L457.873 513.693Z" fill="#FF8E76"/>
<path d="M443.353 483.143L443.149 483.449L443.608 483.306L443.526 483.194L443.353 483.143Z" fill="#FF8E76"/>
<path d="M455.334 512.317L454.967 512.092L454.865 512.419L455.141 512.459L455.334 512.317Z" fill="#FF8E76"/>
<path d="M476.616 487.732L476.238 487.956L476.738 487.997L476.769 487.844L476.616 487.732Z" fill="#FF8E76"/>
<path d="M447.962 491.882L448.451 491.821L447.952 491.861V491.872L447.962 491.882Z" fill="#FF8E76"/>
<path d="M481.816 524.9V524.92V524.931L482.316 524.88L481.816 524.9Z" fill="#FF8E76"/>
<path d="M456.956 525.553L456.477 525.644L456.966 525.583V525.563L456.956 525.553Z" fill="#FF8E76"/>
<path d="M471.446 562.884L471.751 562.619L471.405 562.864L471.425 562.874L471.446 562.884Z" fill="#FF8E76"/>
<path d="M481.204 562.945L481.092 562.619L481.153 562.945H481.184H481.204Z" fill="#FF8E76"/>
<path d="M558.407 524.523L558.111 524.268L558.213 524.584L558.325 524.574L558.407 524.523Z" fill="#FF8E76"/>
</g>
</g>
<path d="M592.138 480.105L565.228 542.95L667.852 524.33C653.657 493.311 611.421 481.941 592.138 480.105Z" fill="url(#paint37_radial_2506_1415)"/>
<path d="M592.138 480.105L565.228 542.95L667.852 524.33C653.657 493.311 611.421 481.941 592.138 480.105Z" fill="url(#paint38_linear_2506_1415)" fill-opacity="0.5"/>
<path d="M592.138 480.105L565.228 542.95L667.852 524.33C653.657 493.311 611.421 481.941 592.138 480.105Z" fill="url(#paint39_radial_2506_1415)"/>
<path d="M613.644 605.673C639.045 597.26 685.228 569.075 667.852 524.33L613.644 605.673Z" fill="url(#paint40_radial_2506_1415)"/>
<path d="M613.644 605.673C639.045 597.26 685.228 569.075 667.852 524.33L613.644 605.673Z" fill="url(#paint41_linear_2506_1415)" fill-opacity="0.5"/>
<path d="M613.644 605.673C639.045 597.26 685.228 569.075 667.852 524.33L613.644 605.673Z" fill="url(#paint42_radial_2506_1415)"/>
<path d="M524.481 607.386C485.915 595.751 471.599 570.564 470.263 559.786L553.257 575.846L613.644 605.672C601 609.609 563.056 619.02 524.481 607.386Z" fill="url(#paint43_radial_2506_1415)"/>
<path d="M524.481 607.386C485.915 595.751 471.599 570.564 470.263 559.786L553.257 575.846L613.644 605.672C601 609.609 563.056 619.02 524.481 607.386Z" fill="url(#paint44_linear_2506_1415)" fill-opacity="0.8"/>
<path d="M553.257 575.846L565.218 542.95L470.263 559.786L553.257 575.846Z" fill="url(#paint45_linear_2506_1415)"/>
<path d="M553.257 575.846L565.218 542.95L470.263 559.786L553.257 575.846Z" fill="url(#paint46_radial_2506_1415)"/>
<path d="M565.228 542.95L553.267 575.846L613.654 605.673L565.238 542.95H565.228Z" fill="url(#paint47_radial_2506_1415)"/>
<path d="M565.228 542.95L553.267 575.846L613.654 605.673L565.238 542.95H565.228Z" fill="url(#paint48_linear_2506_1415)" fill-opacity="0.8"/>
<path d="M565.228 542.95L613.644 605.673L667.852 524.33L565.228 542.95Z" fill="url(#paint49_radial_2506_1415)"/>
<path d="M565.228 542.95L613.644 605.673L667.852 524.33L565.228 542.95Z" fill="url(#paint50_radial_2506_1415)" fill-opacity="0.2"/>
<path d="M454.131 495.432L467.499 545.652L482.305 515.438L454.131 495.432Z" fill="url(#paint51_radial_2506_1415)"/>
<path d="M480.552 465.391L482.305 515.438L454.131 495.432L480.552 465.391Z" fill="url(#paint52_radial_2506_1415)"/>
<path d="M480.552 465.391L482.305 515.438L454.131 495.432L480.552 465.391Z" fill="url(#paint53_radial_2506_1415)"/>
<path d="M445.117 460.395L454.131 495.422L480.552 465.381L445.117 460.395Z" fill="url(#paint54_radial_2506_1415)"/>
<path d="M482.306 515.438L467.52 545.296L548.006 531.152L559.233 507.373L482.296 515.438H482.306Z" fill="url(#paint55_radial_2506_1415)"/>
<path d="M482.306 515.438L467.52 545.296L548.006 531.152L559.233 507.373L482.296 515.438H482.306Z" fill="url(#paint56_linear_2506_1415)"/>
<path d="M480.552 465.391L482.306 515.438L559.243 507.373L480.552 465.391Z" fill="url(#paint57_radial_2506_1415)"/>
<path d="M480.552 465.391L482.306 515.438L559.243 507.373L480.552 465.391Z" fill="url(#paint58_radial_2506_1415)" fill-opacity="0.8"/>
<path d="M480.552 465.391L559.243 507.373L572.907 478.229L480.552 465.391Z" fill="url(#paint59_radial_2506_1415)" fill-opacity="0.9"/>
<path d="M480.552 465.391L559.243 507.373L572.907 478.229L480.552 465.391Z" fill="url(#paint60_radial_2506_1415)" fill-opacity="0.7"/>
<g filter="url(#filter6_b_2506_1415)">
<path fill-rule="evenodd" clip-rule="evenodd" d="M672.877 527.111C672.883 527.309 672.889 527.533 672.889 527.787L672.879 527.797L672.881 527.89C672.922 529.785 672.996 533.19 672.705 539.932C675.02 571.145 645.449 594.119 619.232 604.398C619.517 605.734 618.834 607.1 617.356 608.048C615.041 609.537 611.39 609.537 609.218 608.048C609.086 607.957 608.953 607.865 608.841 607.763C598.787 610.445 583.002 613.626 564.698 613.626C552.125 613.626 538.359 612.127 524.44 607.926C503.056 601.471 490.096 591.121 482.989 583.575C477.421 577.661 473.169 571.064 470.987 564.986C470.507 564.364 470.038 563.824 469.579 563.385C468.458 563.242 467.448 562.875 466.643 562.325C465.552 561.58 464.96 560.571 464.98 559.48C465.001 558.348 465.704 557.246 466.918 556.471C469.11 555.064 472.424 554.972 474.658 556.237C475.891 556.522 481.021 556.553 487.261 555.86L547.659 545.153C551.472 544.276 556.591 543.011 559.518 541.9C559.762 541.043 560.405 540.248 561.343 539.646C562.057 539.187 562.913 538.851 563.841 538.678C565.085 537.566 567.4 534.558 570.316 529.327L587.978 488.059C588.61 486.05 589.008 484.439 589.161 483.307C589.161 483.297 589.14 483.287 589.14 483.287C588.049 482.543 587.458 481.533 587.478 480.442C587.499 479.3 588.202 478.209 589.416 477.434C591.73 475.945 595.381 475.955 597.553 477.434C598.144 477.842 598.583 478.321 598.868 478.861C601.02 479.596 604.12 480.636 607.383 481.696C619.783 484.613 650.18 493.882 665.139 516.907C666.669 518.569 667.964 519.854 668.943 520.659C670.136 520.792 671.206 521.159 672.053 521.74C673.022 522.403 673.603 523.29 673.705 524.249C673.797 525.095 673.501 525.952 672.869 526.676C672.869 526.807 672.873 526.951 672.877 527.111ZM594.259 484.337C591.353 486.927 588.62 491.618 587.244 494.208V494.198L573.263 526.869C570.602 533.508 569.154 537.933 569.195 539.33C569.633 539.728 571.55 540.38 580.901 539.187L647.192 527.155C654.381 525.574 659.459 524.351 662.264 523.535C662.58 522.841 663.151 522.219 663.926 521.72C663.969 521.689 664.017 521.661 664.066 521.633C664.097 521.615 664.129 521.597 664.16 521.577C664.069 520.476 663.752 518.569 662.743 516.417C649.415 497.063 624.861 487.998 611.401 484.317C607.24 483.338 601.611 482.247 598.246 482.492C597.981 482.777 597.655 483.052 597.278 483.287C596.431 483.827 595.391 484.194 594.259 484.337ZM559.079 575.163C559.059 575.418 559.008 575.673 558.926 575.917H558.916C560.099 577.11 562.679 578.905 566.431 581.138L608.698 602.022C608.953 602.093 609.127 602.134 609.259 602.154C609.065 601.594 608.28 599.993 605.17 595.567L570.877 551.138C567.441 547.386 566.595 547.192 566.452 547.192C565.891 547.253 564.953 547.824 563.699 550.292L558.814 563.722C557.947 567.627 557.478 570.747 557.387 572.165C558.539 572.93 559.151 574.01 559.079 575.163ZM570.684 544.204C570.367 544.48 569.674 545.856 573.987 552.352L608.974 597.668C611.717 600.431 612.889 600.849 613.348 600.849C614.031 600.849 615.765 600.146 619.599 595.435L659.031 536.251C663.151 529.235 663.304 527.634 663.273 527.328C661.427 526.625 644.041 529.266 628.389 532.131L582.93 540.38C573.681 542.491 571.285 543.684 570.684 544.204ZM552.737 545.795L485.517 557.716V557.726C484.661 557.899 483.815 558.062 483.019 558.215C481.021 558.592 478.614 559.051 477.798 559.531C478.808 559.959 482.081 560.877 491.136 562.794L523.512 569.055C535.371 570.931 546.71 572.45 548.852 572.45H548.872C549.953 571.614 551.472 571.114 553.083 571.053C553.96 570.136 554.919 568.596 555.949 566.465L562.261 549.099C562.434 547.396 562.2 546.264 561.588 545.846C561.21 545.581 559.599 545.061 552.737 545.795ZM484.396 582.586C491.36 589.989 504.076 600.146 525.082 606.478C552.502 614.748 579.545 612.311 597.4 608.813C602.458 607.63 606.057 606.58 607.628 605.836C607.546 605.438 607.546 605.03 607.628 604.622C606.047 603.225 602.213 600.859 596.492 597.759L567.91 583.637C561.751 580.853 557.244 579.16 555.194 578.864C554.491 579.048 553.787 579.119 552.992 579.14C550.412 579.129 548.23 577.967 547.557 576.295C545.334 575.448 538.206 573.715 526.877 571.267L490.555 564.242C482.989 563.028 477.737 562.355 475.769 562.355C475.494 562.355 475.28 562.365 475.137 562.396C474.637 562.488 474.29 562.732 474.076 563.12C473.648 563.915 473.495 565.771 475.239 570.125C477.533 574.367 480.623 578.579 484.396 582.586ZM627.797 598.84C641.971 591.743 653.851 582.209 661.254 571.991L661.264 572.002C670.952 558.633 673.48 544.041 668.769 528.644C668.484 528.674 668.198 528.705 667.913 528.705C667.26 529.164 665.455 530.601 662.743 533.763L621.496 595.669C618.559 600.88 618.763 601.787 618.793 601.879C618.797 601.879 618.803 601.88 618.811 601.88C619.003 601.896 620.479 602.016 627.797 598.84Z" fill="url(#paint61_linear_2506_1415)" fill-opacity="0.7"/>
<path fill-rule="evenodd" clip-rule="evenodd" d="M672.877 527.111C672.883 527.309 672.889 527.533 672.889 527.787L672.879 527.797L672.881 527.89C672.922 529.785 672.996 533.19 672.705 539.932C675.02 571.145 645.449 594.119 619.232 604.398C619.517 605.734 618.834 607.1 617.356 608.048C615.041 609.537 611.39 609.537 609.218 608.048C609.086 607.957 608.953 607.865 608.841 607.763C598.787 610.445 583.002 613.626 564.698 613.626C552.125 613.626 538.359 612.127 524.44 607.926C503.056 601.471 490.096 591.121 482.989 583.575C477.421 577.661 473.169 571.064 470.987 564.986C470.507 564.364 470.038 563.824 469.579 563.385C468.458 563.242 467.448 562.875 466.643 562.325C465.552 561.58 464.96 560.571 464.98 559.48C465.001 558.348 465.704 557.246 466.918 556.471C469.11 555.064 472.424 554.972 474.658 556.237C475.891 556.522 481.021 556.553 487.261 555.86L547.659 545.153C551.472 544.276 556.591 543.011 559.518 541.9C559.762 541.043 560.405 540.248 561.343 539.646C562.057 539.187 562.913 538.851 563.841 538.678C565.085 537.566 567.4 534.558 570.316 529.327L587.978 488.059C588.61 486.05 589.008 484.439 589.161 483.307C589.161 483.297 589.14 483.287 589.14 483.287C588.049 482.543 587.458 481.533 587.478 480.442C587.499 479.3 588.202 478.209 589.416 477.434C591.73 475.945 595.381 475.955 597.553 477.434C598.144 477.842 598.583 478.321 598.868 478.861C601.02 479.596 604.12 480.636 607.383 481.696C619.783 484.613 650.18 493.882 665.139 516.907C666.669 518.569 667.964 519.854 668.943 520.659C670.136 520.792 671.206 521.159 672.053 521.74C673.022 522.403 673.603 523.29 673.705 524.249C673.797 525.095 673.501 525.952 672.869 526.676C672.869 526.807 672.873 526.951 672.877 527.111ZM594.259 484.337C591.353 486.927 588.62 491.618 587.244 494.208V494.198L573.263 526.869C570.602 533.508 569.154 537.933 569.195 539.33C569.633 539.728 571.55 540.38 580.901 539.187L647.192 527.155C654.381 525.574 659.459 524.351 662.264 523.535C662.58 522.841 663.151 522.219 663.926 521.72C663.969 521.689 664.017 521.661 664.066 521.633C664.097 521.615 664.129 521.597 664.16 521.577C664.069 520.476 663.752 518.569 662.743 516.417C649.415 497.063 624.861 487.998 611.401 484.317C607.24 483.338 601.611 482.247 598.246 482.492C597.981 482.777 597.655 483.052 597.278 483.287C596.431 483.827 595.391 484.194 594.259 484.337ZM559.079 575.163C559.059 575.418 559.008 575.673 558.926 575.917H558.916C560.099 577.11 562.679 578.905 566.431 581.138L608.698 602.022C608.953 602.093 609.127 602.134 609.259 602.154C609.065 601.594 608.28 599.993 605.17 595.567L570.877 551.138C567.441 547.386 566.595 547.192 566.452 547.192C565.891 547.253 564.953 547.824 563.699 550.292L558.814 563.722C557.947 567.627 557.478 570.747 557.387 572.165C558.539 572.93 559.151 574.01 559.079 575.163ZM570.684 544.204C570.367 544.48 569.674 545.856 573.987 552.352L608.974 597.668C611.717 600.431 612.889 600.849 613.348 600.849C614.031 600.849 615.765 600.146 619.599 595.435L659.031 536.251C663.151 529.235 663.304 527.634 663.273 527.328C661.427 526.625 644.041 529.266 628.389 532.131L582.93 540.38C573.681 542.491 571.285 543.684 570.684 544.204ZM552.737 545.795L485.517 557.716V557.726C484.661 557.899 483.815 558.062 483.019 558.215C481.021 558.592 478.614 559.051 477.798 559.531C478.808 559.959 482.081 560.877 491.136 562.794L523.512 569.055C535.371 570.931 546.71 572.45 548.852 572.45H548.872C549.953 571.614 551.472 571.114 553.083 571.053C553.96 570.136 554.919 568.596 555.949 566.465L562.261 549.099C562.434 547.396 562.2 546.264 561.588 545.846C561.21 545.581 559.599 545.061 552.737 545.795ZM484.396 582.586C491.36 589.989 504.076 600.146 525.082 606.478C552.502 614.748 579.545 612.311 597.4 608.813C602.458 607.63 606.057 606.58 607.628 605.836C607.546 605.438 607.546 605.03 607.628 604.622C606.047 603.225 602.213 600.859 596.492 597.759L567.91 583.637C561.751 580.853 557.244 579.16 555.194 578.864C554.491 579.048 553.787 579.119 552.992 579.14C550.412 579.129 548.23 577.967 547.557 576.295C545.334 575.448 538.206 573.715 526.877 571.267L490.555 564.242C482.989 563.028 477.737 562.355 475.769 562.355C475.494 562.355 475.28 562.365 475.137 562.396C474.637 562.488 474.29 562.732 474.076 563.12C473.648 563.915 473.495 565.771 475.239 570.125C477.533 574.367 480.623 578.579 484.396 582.586ZM627.797 598.84C641.971 591.743 653.851 582.209 661.254 571.991L661.264 572.002C670.952 558.633 673.48 544.041 668.769 528.644C668.484 528.674 668.198 528.705 667.913 528.705C667.26 529.164 665.455 530.601 662.743 533.763L621.496 595.669C618.559 600.88 618.763 601.787 618.793 601.879C618.797 601.879 618.803 601.88 618.811 601.88C619.003 601.896 620.479 602.016 627.797 598.84Z" fill="url(#paint62_linear_2506_1415)"/>
</g>
<g filter="url(#filter7_b_2506_1415)">
<path fill-rule="evenodd" clip-rule="evenodd" d="M568.624 475.67C570.99 474.161 574.691 474.161 576.904 475.67L576.935 475.68C579.137 477.189 579.015 479.647 576.649 481.156C575.956 481.594 575.15 481.89 574.304 482.074C572.958 483.205 570.928 485.326 569.052 488.447L566.574 493.729C565.004 498.022 563.689 502.407 563.607 505.058C565.718 506.577 565.575 508.973 563.24 510.462C562.353 511.023 561.272 511.37 560.16 511.513C559.039 512.502 557.428 514.235 555.786 516.642L551.513 525.686C551.411 526.492 551.391 527.247 551.472 527.889C551.497 527.902 551.522 527.915 551.547 527.928C551.718 528.017 551.892 528.109 552.043 528.215C554.246 529.725 554.124 532.182 551.758 533.691C549.831 534.925 547.006 535.149 544.834 534.374C542.642 534.119 538.369 533.712 534.464 534.119L485.161 542.787C481.011 543.705 476.452 544.837 473.832 545.785C473.628 546.601 473.047 547.386 472.068 548.018C469.702 549.527 466 549.527 463.788 548.018C461.86 546.703 461.728 544.673 463.288 543.174L463.186 543.062L463.553 542.879C463.553 542.879 463.563 542.879 463.584 542.858C463.59 542.852 463.597 542.846 463.605 542.839C463.623 542.824 463.644 542.805 463.665 542.777C463.726 542.705 463.788 542.603 463.859 542.451C463.992 542.145 464.124 541.706 464.196 541.084C464.338 539.84 464.297 537.933 463.798 535.139L455.977 505.751C455.395 504.211 454.804 502.855 454.223 501.744C453.672 500.683 453.142 499.898 452.642 499.398C451.5 499.266 450.429 498.919 449.573 498.338C447.37 496.829 447.493 494.371 449.858 492.862C449.894 492.842 449.927 492.821 449.96 492.801C449.993 492.78 450.027 492.76 450.062 492.74C450.542 492.128 451.286 490.537 451.357 488.131L447.819 474.395C446.361 470.755 444.23 465.891 442.751 463.719C442.16 463.525 441.599 463.28 441.119 462.954C438.907 461.445 439.029 458.998 441.405 457.468C443.771 455.959 447.472 455.959 449.685 457.468C450.48 458.019 450.96 458.681 451.153 459.385C453.325 460.109 455.997 460.966 458.536 461.679L465.633 462.679C468.733 462.628 472.679 462.658 476.238 462.852C476.248 462.847 476.256 462.839 476.262 462.833C476.269 462.827 476.274 462.821 476.279 462.821C478.645 461.312 482.346 461.312 484.559 462.821C485.314 463.341 485.783 463.963 485.997 464.616C488.199 465.34 492.462 466.237 497.173 467.094L560.956 475.965C562.485 476.088 563.943 476.169 565.208 476.2C566.401 476.22 567.37 476.19 568.063 476.098C568.09 476.075 568.118 476.053 568.145 476.03C568.292 475.907 568.444 475.781 568.624 475.67ZM568.338 481.146C567.574 480.626 567.105 479.993 566.89 479.32V479.31C565.33 478.637 562.995 477.791 560.038 477.036L489.678 467.257C488.546 467.155 487.577 467.084 486.843 467.063C486.466 467.053 486.17 467.053 485.936 467.063C485.904 467.067 485.876 467.07 485.85 467.073C485.795 467.079 485.753 467.084 485.711 467.084C485.793 467.227 485.997 467.43 486.333 467.706L532.71 492.464L533.587 492.913L533.281 493.168L533.282 493.169L533.587 492.913L534.963 493.617C535.44 493.861 535.913 494.103 536.381 494.343C541.401 496.913 545.957 499.246 549.576 500.999C551.554 501.958 553.247 502.743 554.572 503.294C555.235 503.569 555.806 503.783 556.265 503.936C556.683 504.069 556.958 504.13 557.152 504.16L557.152 504.16C557.387 504.099 557.621 504.038 557.856 503.997C558.202 503.804 558.621 503.467 559.079 502.988C559.559 502.488 560.048 501.856 560.568 501.122C561.598 499.653 562.679 497.787 563.74 495.789L569.46 483.593C569.603 482.91 569.674 482.308 569.654 481.798C569.185 481.625 568.736 481.411 568.338 481.146ZM558.093 504.286L558.09 504.283L558.091 504.286C558.092 504.286 558.093 504.286 558.093 504.286ZM536.656 496.319H536.636V496.36C536.384 496.217 536.13 496.073 535.876 495.929C533.964 494.846 531.971 493.717 529.946 492.556L497.53 475.262C494.624 473.865 491.238 472.305 488.363 471.091C486.925 470.479 485.62 469.97 484.579 469.613C484.059 469.429 483.611 469.297 483.244 469.205C482.907 469.123 482.713 469.093 482.591 469.093C482.571 469.103 482.56 469.103 482.55 469.103C482.546 469.111 482.54 469.12 482.533 469.13C482.523 469.144 482.511 469.16 482.499 469.184C482.448 469.266 482.408 469.378 482.357 469.521C482.265 469.806 482.173 470.174 482.091 470.622C481.938 471.52 481.816 472.672 481.724 473.957L482.805 504.895C483.295 507.597 484.039 510.177 485.049 511.727C485.711 511.91 486.323 512.175 486.853 512.532C487.17 512.746 487.424 512.991 487.649 513.236C489.821 513.491 493.726 513.43 498.172 513.195L543.356 508.453C545.762 508.117 547.934 507.78 549.678 507.454C551.36 507.138 552.574 506.852 553.226 506.598C553.216 506.587 553.216 506.577 553.216 506.567C553.145 506.424 552.951 506.22 552.614 505.935C551.941 505.374 550.81 504.609 549.29 503.661C546.295 501.801 541.903 499.308 536.876 496.454L536.656 496.329L536.993 496.074L536.656 496.319ZM555.449 512.043C555.49 511.655 555.48 511.329 555.429 511.084V511.105C555.378 510.84 555.276 510.707 555.194 510.656C554.888 510.452 554.389 510.258 553.685 510.095C552.992 509.942 552.115 509.82 551.095 509.728C549.056 509.555 546.476 509.534 543.6 509.616L499.926 514.194C495.348 514.776 491.065 515.387 488.312 515.907C488.077 516.672 487.516 517.417 486.588 518.008C485.518 518.691 484.172 519.058 482.815 519.12C482.04 519.884 480.725 521.434 479.155 523.749L472.139 538.056C471.833 539.065 471.639 539.983 471.588 540.727C471.568 541.104 471.578 541.421 471.629 541.686C471.68 541.961 471.772 542.145 471.874 542.257C471.894 542.277 471.915 542.298 471.945 542.318C471.966 542.328 471.984 542.338 472.001 542.349C472.019 542.359 472.037 542.369 472.057 542.379C472.282 542.491 472.669 542.583 473.24 542.644C473.811 542.705 474.515 542.726 475.321 542.716C476.932 542.695 478.91 542.542 480.99 542.318L539.542 532.029C540.358 531.764 541.153 531.478 541.887 531.173C541.857 530.112 542.468 529.031 543.733 528.226C544.579 527.685 545.599 527.338 546.659 527.185C548.056 526.41 550.014 524.81 551.452 521.852C551.55 521.663 551.637 521.463 551.726 521.26C551.757 521.189 551.787 521.118 551.819 521.047V521.026H551.85L554.735 514.918C555.113 513.817 555.368 512.818 555.449 512.043ZM468.193 541.176C468.458 540.972 468.764 540.656 469.1 540.238V540.217L479.399 519.425C479.481 519.15 479.552 518.885 479.614 518.63C479.134 518.457 478.686 518.243 478.298 517.977C476.707 516.897 476.34 515.326 477.125 513.97C476.758 513.297 475.994 512.206 474.749 510.931L466.449 505.037C464.756 503.905 462.972 502.784 461.442 501.907C460.678 501.468 459.984 501.101 459.393 500.836C458.924 500.622 458.557 500.489 458.302 500.428C458.23 500.571 458.179 500.795 458.149 501.142C458.087 501.846 458.138 502.896 458.281 504.191C458.567 506.781 459.209 510.309 459.984 514.001L466.928 540.105C467.142 540.544 467.346 540.88 467.54 541.115C467.642 541.237 467.724 541.308 467.785 541.359L467.815 541.38C467.866 541.37 467.979 541.329 468.193 541.176ZM458.813 493.455C458.917 492.813 459.314 491.929 459.933 490.863C460.576 489.752 461.442 488.498 462.411 487.182L475.596 472.193C476.575 471.265 477.462 470.51 478.145 470.041C478.482 469.806 478.737 469.674 478.91 469.613C478.981 469.715 479.063 469.898 479.155 470.174C479.267 470.52 479.379 470.979 479.481 471.509C479.685 472.57 479.858 473.936 480.011 475.394L480.858 499.48C480.513 502.925 480.339 505.625 480.209 507.638C480.201 507.77 480.193 507.899 480.185 508.025C480.062 510.014 479.981 511.237 479.828 511.808C479.675 511.808 479.399 511.737 478.971 511.574C478.125 511.247 476.993 510.656 475.79 509.952L467.499 504.058C464.461 501.305 461.218 498.093 459.678 495.809C459.78 494.994 459.495 494.168 458.813 493.455ZM454.233 491.761C454.416 491.771 454.59 491.781 454.763 491.791L454.743 491.781C455.446 491.241 456.813 489.986 458.506 488.365C460.321 486.642 462.442 484.541 464.399 482.594L473.669 472.06C474.678 470.551 475.422 469.164 475.677 468.083C474.851 467.42 474.433 466.615 474.413 465.789C473.638 465.391 472.608 465.034 471.446 464.728L458.842 462.954C456.803 462.74 454.671 462.577 452.897 462.556C452.01 462.556 451.235 462.587 450.613 462.658C449.971 462.73 449.583 462.852 449.389 462.974C449.318 463.015 449.216 463.117 449.114 463.301C449.022 463.474 448.93 463.709 448.859 463.984C448.706 464.535 448.635 465.259 448.604 466.095C448.553 467.757 448.716 469.817 448.951 471.805L454.009 491.465C454.022 491.483 454.035 491.501 454.047 491.518C454.113 491.609 454.173 491.692 454.233 491.761ZM469.585 540.338L469.585 540.339L469.539 540.33L469.585 540.338ZM479.897 519.51L479.868 519.507L479.897 519.51L479.897 519.51ZM471.714 542.616L471.731 542.603L471.715 542.617L471.714 542.616ZM481.08 542.647L481.072 542.603L481.086 542.646C481.084 542.646 481.082 542.646 481.08 542.647ZM443.148 463.461L443.139 463.474L443.161 463.467C443.16 463.466 443.159 463.465 443.159 463.464C443.155 463.463 443.151 463.462 443.148 463.461ZM458.285 493.497L458.291 493.494L458.285 493.494C458.285 493.495 458.285 493.496 458.285 493.497ZM454.991 492.118L454.957 492.097L454.948 492.125C454.958 492.126 454.968 492.127 454.977 492.128C454.982 492.125 454.986 492.121 454.991 492.118ZM448.449 471.836C448.449 471.836 448.449 471.836 448.449 471.836L448.451 471.836L448.449 471.836ZM456.481 505.657L456.466 505.659V505.67L456.485 505.667C456.484 505.663 456.483 505.66 456.481 505.657Z" fill="url(#paint63_radial_2506_1415)" fill-opacity="0.7"/>
</g>
<path d="M567.624 478.821L567.339 479.106L567.839 479.035L567.808 478.902L567.624 478.821Z" fill="#FF8E76"/>
<path d="M484.467 512.257L484.661 511.951L484.202 512.094L484.284 512.216L484.467 512.257Z" fill="#FF8E76"/>
<path d="M457.873 493.719L458.292 493.525L457.792 493.504L457.771 493.617L457.873 493.719Z" fill="#FF8E76"/>
<path d="M443.352 463.168L443.148 463.474L443.607 463.331L443.526 463.219L443.352 463.168Z" fill="#FF8E76"/>
<path d="M455.334 492.342L454.967 492.118L454.865 492.444L455.141 492.485L455.334 492.342Z" fill="#FF8E76"/>
<path d="M476.616 467.757L476.238 467.981L476.738 468.022L476.769 467.869L476.616 467.757Z" fill="#FF8E76"/>
<path d="M447.961 471.907L448.451 471.846L447.951 471.887V471.897L447.961 471.907Z" fill="#FF8E76"/>
<path d="M481.816 504.925V504.946V504.956L482.316 504.905L481.816 504.925Z" fill="#FF8E76"/>
<path d="M456.956 505.578L456.477 505.67L456.966 505.608V505.588L456.956 505.578Z" fill="#FF8E76"/>
<path d="M471.446 542.909L471.751 542.644L471.405 542.889L471.425 542.899L471.446 542.909Z" fill="#FF8E76"/>
<path d="M481.204 542.971L481.092 542.644L481.153 542.971H481.184H481.204Z" fill="#FF8E76"/>
<path d="M558.406 504.548L558.11 504.293L558.212 504.609L558.324 504.599L558.406 504.548Z" fill="#FF8E76"/>
<path opacity="0.6" d="M690.766 285.656L674.032 310.796L721.36 303.11L734.097 275.708L690.766 285.656Z" fill="#131217" fill-opacity="0.72"/>
<path opacity="0.45" d="M674.042 310.796L721.37 303.11L655.524 265.548L674.042 310.796Z" fill="#131217" fill-opacity="0.72"/>
<path opacity="0.8" d="M655.515 265.548L721.35 303.11L734.088 275.708L655.515 265.548Z" fill="#131217" fill-opacity="0.72"/>
<path opacity="0.45" d="M679.581 313.959L750.841 319.93L726.909 306.273L679.581 313.959Z" fill="#131217" fill-opacity="0.72"/>
<path opacity="0.8" d="M726.899 306.282L750.832 319.94L739.656 278.861L726.899 306.282Z" fill="#131217" fill-opacity="0.72"/>
<g opacity="0.4" filter="url(#filter8_f_2506_1415)">
<path d="M690.766 299.075L674.032 324.215L721.36 316.528L734.097 289.126L690.766 299.075Z" fill="#131217" fill-opacity="0.72"/>
</g>
<g opacity="0.25" filter="url(#filter9_f_2506_1415)">
<path d="M674.042 324.215L721.37 316.528L655.524 278.966L674.042 324.215Z" fill="#131217" fill-opacity="0.72"/>
</g>
<g opacity="0.6" filter="url(#filter10_f_2506_1415)">
<path d="M655.515 278.966L721.35 316.528L734.088 289.126L655.515 278.966Z" fill="#131217" fill-opacity="0.72"/>
</g>
<g opacity="0.25" filter="url(#filter11_f_2506_1415)">
<path d="M679.581 327.378L750.841 333.349L726.909 319.691L679.581 327.378Z" fill="#131217" fill-opacity="0.72"/>
</g>
<g opacity="0.6" filter="url(#filter12_f_2506_1415)">
<path d="M726.899 319.7L750.832 333.358L739.656 292.279L726.899 319.7Z" fill="#131217" fill-opacity="0.72"/>
</g>
<path d="M892.567 671.977C891.331 672.188 890.171 672.609 889.232 673.184C888.292 673.76 887.574 674.488 887.171 675.293L881.334 687.465L877.194 695.612L871.357 707.784C870.954 708.58 870.245 709.308 869.296 709.893C868.347 710.478 867.197 710.89 865.961 711.101L850.999 713.573C849.763 713.775 848.488 713.765 847.3 713.554C846.102 713.343 845.028 712.931 844.175 712.356L834.073 705.312C833.22 704.736 832.635 704.008 832.377 703.213C832.128 702.417 832.214 701.574 832.645 700.778L837.351 691.357C837.754 690.561 838.463 689.833 839.412 689.248C840.361 688.663 841.511 688.251 842.747 688.04L857.411 685.568C858.648 685.366 859.922 685.376 861.111 685.596C862.309 685.807 863.382 686.219 864.235 686.794L870.782 691.357L874.788 683.114L868.242 678.552C867.417 677.958 866.344 677.526 865.146 677.315C863.948 677.105 862.654 677.105 861.418 677.335L834.092 681.81C832.856 682.021 831.696 682.443 830.757 683.018C829.808 683.603 829.099 684.322 828.696 685.127L819.811 702.858C819.39 703.653 819.294 704.487 819.543 705.292C819.792 706.088 820.377 706.816 821.24 707.391L840.159 720.589C840.984 721.183 842.057 721.615 843.255 721.826C844.453 722.036 845.747 722.036 846.983 721.806L874.625 717.139C875.861 716.928 877.021 716.506 877.96 715.931C878.9 715.356 879.618 714.628 880.021 713.823L886.002 701.756L890.008 693.513L895.989 681.446C896.391 680.651 897.1 679.922 898.049 679.338C898.998 678.753 900.148 678.341 901.385 678.13L916.049 675.657C917.285 675.456 918.56 675.466 919.749 675.676C920.947 675.887 922.02 676.299 922.873 676.874L932.975 683.919C933.828 684.494 934.413 685.223 934.672 686.018C934.921 686.814 934.834 687.657 934.403 688.453L929.841 697.97C929.438 698.765 928.729 699.494 927.78 700.078C926.831 700.663 925.681 701.075 924.445 701.286L909.781 703.759C908.544 703.96 907.27 703.951 906.081 703.74C904.883 703.529 903.81 703.117 902.957 702.542L896.41 697.979L892.404 706.222L898.95 710.784C899.775 711.379 900.848 711.81 902.046 712.021C903.244 712.232 904.538 712.232 905.774 712.001L933.416 707.334C934.652 707.123 935.802 706.701 936.751 706.126C937.7 705.551 938.409 704.823 938.812 704.018L947.678 686.258C948.061 685.462 948.128 684.628 947.879 683.833C947.63 683.037 947.074 682.309 946.25 681.715L927.33 668.536C926.506 667.942 925.432 667.51 924.234 667.3C923.036 667.089 921.742 667.089 920.506 667.319L892.557 671.986L892.567 671.977Z" fill="url(#paint64_linear_2506_1415)"/>
<g filter="url(#filter13_f_2506_1415)">
<path d="M877.232 688.27C875.996 688.481 874.836 688.903 873.897 689.478C872.957 690.053 872.239 690.782 871.836 691.587L865.999 703.759L861.859 711.906L856.022 724.078C855.619 724.873 854.91 725.602 853.961 726.186C853.012 726.771 851.862 727.183 850.626 727.394L835.664 729.867C834.428 730.068 833.153 730.059 831.965 729.848C830.767 729.637 829.693 729.225 828.84 728.65L818.738 721.605C817.885 721.03 817.301 720.302 817.042 719.506C816.793 718.711 816.879 717.867 817.31 717.072L822.016 707.65C822.419 706.855 823.128 706.126 824.077 705.542C825.026 704.957 826.176 704.545 827.412 704.334L842.076 701.861C843.313 701.66 844.587 701.669 845.776 701.89C846.974 702.101 848.047 702.513 848.9 703.088L855.447 707.65L859.453 699.408L852.907 694.845C852.082 694.251 851.009 693.82 849.811 693.609C848.613 693.398 847.319 693.398 846.083 693.628L818.757 698.104C817.521 698.315 816.361 698.737 815.422 699.312C814.473 699.896 813.764 700.615 813.361 701.42L804.477 719.152C804.055 719.947 803.959 720.781 804.208 721.586C804.457 722.381 805.042 723.11 805.905 723.685L824.824 736.883C825.649 737.477 826.722 737.908 827.92 738.119C829.118 738.33 830.412 738.33 831.648 738.1L859.29 733.432C860.526 733.221 861.686 732.8 862.625 732.225C863.565 731.65 864.283 730.921 864.686 730.116L870.667 718.049L874.673 709.807L880.654 697.74C881.056 696.944 881.766 696.216 882.714 695.631C883.663 695.047 884.813 694.634 886.05 694.424L900.714 691.951C901.95 691.75 903.225 691.759 904.414 691.97C905.612 692.181 906.685 692.593 907.538 693.168L917.64 700.213C918.493 700.788 919.078 701.516 919.337 702.312C919.586 703.107 919.5 703.951 919.068 704.746L914.506 714.263C914.103 715.059 913.394 715.787 912.445 716.372C911.496 716.957 910.346 717.369 909.11 717.58L894.446 720.052C893.209 720.254 891.935 720.244 890.746 720.033C889.548 719.822 888.475 719.41 887.622 718.835L881.075 714.273L877.069 722.516L883.615 727.078C884.44 727.672 885.513 728.103 886.711 728.314C887.909 728.525 889.203 728.525 890.439 728.295L918.081 723.627C919.317 723.417 920.468 722.995 921.416 722.42C922.365 721.845 923.075 721.116 923.477 720.311L932.343 702.551C932.726 701.756 932.793 700.922 932.544 700.126C932.295 699.331 931.739 698.602 930.915 698.008L911.995 684.83C911.171 684.235 910.097 683.804 908.899 683.593C907.701 683.382 906.407 683.382 905.171 683.612L877.222 688.28L877.232 688.27Z" fill="#7B3FE4" fill-opacity="0.7"/>
</g>
<defs>
<filter id="filter0_f_2506_1415" x="0.059082" y="175.575" width="1129.77" height="891.113" filterUnits="userSpaceOnUse" color-interpolation-filters="sRGB">
<feFlood flood-opacity="0" result="BackgroundImageFix"/>
<feBlend mode="normal" in="SourceGraphic" in2="BackgroundImageFix" result="shape"/>
<feGaussianBlur stdDeviation="160" result="effect1_foregroundBlur_2506_1415"/>
</filter>
<filter id="filter1_f_2506_1415" x="346.892" y="332.479" width="1010.21" height="776.66" filterUnits="userSpaceOnUse" color-interpolation-filters="sRGB">
<feFlood flood-opacity="0" result="BackgroundImageFix"/>
<feBlend mode="normal" in="SourceGraphic" in2="BackgroundImageFix" result="shape"/>
<feGaussianBlur stdDeviation="135" result="effect1_foregroundBlur_2506_1415"/>
</filter>
<filter id="filter2_f_2506_1415" x="311.714" y="0.340454" width="829.45" height="720.188" filterUnits="userSpaceOnUse" color-interpolation-filters="sRGB">
<feFlood flood-opacity="0" result="BackgroundImageFix"/>
<feBlend mode="normal" in="SourceGraphic" in2="BackgroundImageFix" result="shape"/>
<feGaussianBlur stdDeviation="135" result="effect1_foregroundBlur_2506_1415"/>
</filter>
<filter id="filter3_f_2506_1415" x="385.539" y="422.321" width="342.187" height="265.28" filterUnits="userSpaceOnUse" color-interpolation-filters="sRGB">
<feFlood flood-opacity="0" result="BackgroundImageFix"/>
<feBlend mode="normal" in="SourceGraphic" in2="BackgroundImageFix" result="shape"/>
<feGaussianBlur stdDeviation="27" result="effect1_foregroundBlur_2506_1415"/>
</filter>
<filter id="filter4_b_2506_1415" x="430.98" y="462.296" width="276.741" height="205.305" filterUnits="userSpaceOnUse" color-interpolation-filters="sRGB">
<feFlood flood-opacity="0" result="BackgroundImageFix"/>
<feGaussianBlur in="BackgroundImageFix" stdDeviation="17"/>
<feComposite in2="SourceAlpha" operator="in" result="effect1_backgroundBlur_2506_1415"/>
<feBlend mode="normal" in="SourceGraphic" in2="effect1_backgroundBlur_2506_1415" result="shape"/>
</filter>
<filter id="filter5_b_2506_1415" x="395.538" y="432.311" width="226.97" height="180.814" filterUnits="userSpaceOnUse" color-interpolation-filters="sRGB">
<feFlood flood-opacity="0" result="BackgroundImageFix"/>
<feGaussianBlur in="BackgroundImageFix" stdDeviation="22"/>
<feComposite in2="SourceAlpha" operator="in" result="effect1_backgroundBlur_2506_1415"/>
<feBlend mode="normal" in="SourceGraphic" in2="effect1_backgroundBlur_2506_1415" result="shape"/>
</filter>
<filter id="filter6_b_2506_1415" x="430.98" y="442.321" width="276.741" height="205.305" filterUnits="userSpaceOnUse" color-interpolation-filters="sRGB">
<feFlood flood-opacity="0" result="BackgroundImageFix"/>
<feGaussianBlur in="BackgroundImageFix" stdDeviation="17"/>
<feComposite in2="SourceAlpha" operator="in" result="effect1_backgroundBlur_2506_1415"/>
<feBlend mode="normal" in="SourceGraphic" in2="effect1_backgroundBlur_2506_1415" result="shape"/>
</filter>
<filter id="filter7_b_2506_1415" x="395.538" y="412.336" width="226.97" height="180.814" filterUnits="userSpaceOnUse" color-interpolation-filters="sRGB">
<feFlood flood-opacity="0" result="BackgroundImageFix"/>
<feGaussianBlur in="BackgroundImageFix" stdDeviation="22"/>
<feComposite in2="SourceAlpha" operator="in" result="effect1_backgroundBlur_2506_1415"/>
<feBlend mode="normal" in="SourceGraphic" in2="effect1_backgroundBlur_2506_1415" result="shape"/>
</filter>
<filter id="filter8_f_2506_1415" x="640.032" y="255.126" width="128.066" height="103.089" filterUnits="userSpaceOnUse" color-interpolation-filters="sRGB">
<feFlood flood-opacity="0" result="BackgroundImageFix"/>
<feBlend mode="normal" in="SourceGraphic" in2="BackgroundImageFix" result="shape"/>
<feGaussianBlur stdDeviation="17" result="effect1_foregroundBlur_2506_1415"/>
</filter>
<filter id="filter9_f_2506_1415" x="621.524" y="244.966" width="133.845" height="113.248" filterUnits="userSpaceOnUse" color-interpolation-filters="sRGB">
<feFlood flood-opacity="0" result="BackgroundImageFix"/>
<feBlend mode="normal" in="SourceGraphic" in2="BackgroundImageFix" result="shape"/>
<feGaussianBlur stdDeviation="17" result="effect1_foregroundBlur_2506_1415"/>
</filter>
<filter id="filter10_f_2506_1415" x="621.515" y="244.966" width="146.573" height="105.561" filterUnits="userSpaceOnUse" color-interpolation-filters="sRGB">
<feFlood flood-opacity="0" result="BackgroundImageFix"/>
<feBlend mode="normal" in="SourceGraphic" in2="BackgroundImageFix" result="shape"/>
<feGaussianBlur stdDeviation="17" result="effect1_foregroundBlur_2506_1415"/>
</filter>
<filter id="filter11_f_2506_1415" x="645.581" y="285.691" width="139.26" height="81.6578" filterUnits="userSpaceOnUse" color-interpolation-filters="sRGB">
<feFlood flood-opacity="0" result="BackgroundImageFix"/>
<feBlend mode="normal" in="SourceGraphic" in2="BackgroundImageFix" result="shape"/>
<feGaussianBlur stdDeviation="17" result="effect1_foregroundBlur_2506_1415"/>
</filter>
<filter id="filter12_f_2506_1415" x="692.899" y="258.279" width="91.9321" height="109.079" filterUnits="userSpaceOnUse" color-interpolation-filters="sRGB">
<feFlood flood-opacity="0" result="BackgroundImageFix"/>
<feBlend mode="normal" in="SourceGraphic" in2="BackgroundImageFix" result="shape"/>
<feGaussianBlur stdDeviation="17" result="effect1_foregroundBlur_2506_1415"/>
</filter>
<filter id="filter13_f_2506_1415" x="770.072" y="649.437" width="196.619" height="122.838" filterUnits="userSpaceOnUse" color-interpolation-filters="sRGB">
<feFlood flood-opacity="0" result="BackgroundImageFix"/>
<feBlend mode="normal" in="SourceGraphic" in2="BackgroundImageFix" result="shape"/>
<feGaussianBlur stdDeviation="17" result="effect1_foregroundBlur_2506_1415"/>
</filter>
<radialGradient id="paint0_radial_2506_1415" cx="0" cy="0" r="1" gradientUnits="userSpaceOnUse" gradientTransform="translate(529.479 529.121) rotate(-0.996347) scale(275.595 275.595)">
<stop stop-color="white"/>
<stop offset="1" stop-color="white" stop-opacity="0"/>
</radialGradient>
<radialGradient id="paint1_radial_2506_1415" cx="0" cy="0" r="1" gradientUnits="userSpaceOnUse" gradientTransform="translate(699.603 193.665) rotate(159.889) scale(585.36 256.315)">
<stop stop-color="white"/>
<stop offset="1" stop-color="white" stop-opacity="0"/>
</radialGradient>
<radialGradient id="paint2_radial_2506_1415" cx="0" cy="0" r="1" gradientUnits="userSpaceOnUse" gradientTransform="translate(939.694 808.028) rotate(-135.715) scale(461.904 681.944)">
<stop stop-color="white"/>
<stop offset="1" stop-color="white" stop-opacity="0"/>
</radialGradient>
<linearGradient id="paint3_linear_2506_1415" x1="366.064" y1="345.578" x2="500.647" y2="560.441" gradientUnits="userSpaceOnUse">
<stop stop-color="white"/>
<stop offset="1" stop-color="white" stop-opacity="0"/>
</linearGradient>
<linearGradient id="paint4_linear_2506_1415" x1="280.284" y1="595.732" x2="495.486" y2="690.201" gradientUnits="userSpaceOnUse">
<stop stop-color="white"/>
<stop offset="1" stop-color="white" stop-opacity="0.3"/>
</linearGradient>
<linearGradient id="paint5_linear_2506_1415" x1="581.16" y1="221.976" x2="759.651" y2="331.829" gradientUnits="userSpaceOnUse">
<stop stop-color="white"/>
<stop offset="1" stop-color="white" stop-opacity="0.4"/>
</linearGradient>
<linearGradient id="paint6_linear_2506_1415" x1="472.452" y1="245.9" x2="769.16" y2="358.944" gradientUnits="userSpaceOnUse">
<stop stop-color="white"/>
<stop offset="1" stop-color="white" stop-opacity="0.3"/>
</linearGradient>
<linearGradient id="paint7_linear_2506_1415" x1="541.939" y1="597.17" x2="1073.48" y2="779.021" gradientUnits="userSpaceOnUse">
<stop stop-color="white"/>
<stop offset="1" stop-color="white" stop-opacity="0.4"/>
</linearGradient>
<linearGradient id="paint8_linear_2506_1415" x1="753.206" y1="637.022" x2="949.933" y2="753.039" gradientUnits="userSpaceOnUse">
<stop stop-color="white"/>
<stop offset="1" stop-color="white" stop-opacity="0.3"/>
</linearGradient>
<radialGradient id="paint9_radial_2506_1415" cx="0" cy="0" r="1" gradientUnits="userSpaceOnUse" gradientTransform="translate(677.015 500.08) rotate(147.584) scale(128.08 164.367)">
<stop stop-color="#8AFBED" stop-opacity="0.7"/>
<stop offset="0.671495" stop-color="#00A3FF" stop-opacity="0.45726"/>
<stop offset="1" stop-color="#0066FF"/>
</radialGradient>
<linearGradient id="paint10_linear_2506_1415" x1="541.475" y1="562.925" x2="625.558" y2="504.465" gradientUnits="userSpaceOnUse">
<stop stop-color="#2A26FF"/>
<stop offset="1" stop-color="#00A3FF" stop-opacity="0"/>
</linearGradient>
<radialGradient id="paint11_radial_2506_1415" cx="0" cy="0" r="1" gradientUnits="userSpaceOnUse" gradientTransform="translate(661.293 490.883) rotate(90.241) scale(45.8592 74.8862)">
<stop stop-color="#2A6BFF"/>
<stop offset="1" stop-color="#2A6BFF" stop-opacity="0"/>
</radialGradient>
<radialGradient id="paint12_radial_2506_1415" cx="0" cy="0" r="1" gradientUnits="userSpaceOnUse" gradientTransform="translate(664.194 610.348) rotate(-128.624) scale(69.3746 96.4635)">
<stop stop-color="#8AFBED" stop-opacity="0.6"/>
<stop offset="0.582168" stop-color="#00A3FF" stop-opacity="0.45726"/>
<stop offset="1" stop-color="#198CF6" stop-opacity="0.19"/>
</radialGradient>
<linearGradient id="paint13_linear_2506_1415" x1="604.783" y1="465.339" x2="683.99" y2="475.77" gradientUnits="userSpaceOnUse">
<stop stop-color="#35C2FF"/>
<stop offset="1" stop-color="#00A3FF" stop-opacity="0"/>
</linearGradient>
<radialGradient id="paint14_radial_2506_1415" cx="0" cy="0" r="1" gradientUnits="userSpaceOnUse" gradientTransform="translate(667.958 532.4) rotate(90.1053) scale(59.3568 42.3399)">
<stop stop-color="#2A6BFF"/>
<stop offset="1" stop-color="#2A6BFF" stop-opacity="0"/>
</radialGradient>
<radialGradient id="paint15_radial_2506_1415" cx="0" cy="0" r="1" gradientUnits="userSpaceOnUse" gradientTransform="translate(660.434 624.774) rotate(-171.937) scale(192.729 57.9954)">
<stop stop-color="#8AFBED" stop-opacity="0"/>
<stop offset="0.449372" stop-color="#00A3FF" stop-opacity="0.15"/>
<stop offset="1" stop-color="#198CF6"/>
</radialGradient>
<linearGradient id="paint16_linear_2506_1415" x1="469.61" y1="588.113" x2="473.563" y2="634.117" gradientUnits="userSpaceOnUse">
<stop stop-color="#35C2FF"/>
<stop offset="1" stop-color="#00A3FF" stop-opacity="0"/>
</linearGradient>
<linearGradient id="paint17_linear_2506_1415" x1="428.734" y1="561.431" x2="514.445" y2="462.631" gradientUnits="userSpaceOnUse">
<stop stop-color="#1BBBFF"/>
<stop offset="1" stop-color="#00A3FF" stop-opacity="0"/>
</linearGradient>
<radialGradient id="paint18_radial_2506_1415" cx="0" cy="0" r="1" gradientUnits="userSpaceOnUse" gradientTransform="translate(507.21 560.768) rotate(22.412) scale(55.9898 43.7344)">
<stop stop-color="#2A6BFF"/>
<stop offset="1" stop-color="#2A6BFF" stop-opacity="0"/>
</radialGradient>
<radialGradient id="paint19_radial_2506_1415" cx="0" cy="0" r="1" gradientUnits="userSpaceOnUse" gradientTransform="translate(633.361 615.975) rotate(-158.375) scale(86.453 64.1735)">
<stop stop-color="#8AFBED" stop-opacity="0"/>
<stop offset="0.449372" stop-color="#00A3FF" stop-opacity="0.15"/>
<stop offset="1" stop-color="#198CF6"/>
</radialGradient>
<linearGradient id="paint20_linear_2506_1415" x1="552.992" y1="572.769" x2="565.405" y2="624.402" gradientUnits="userSpaceOnUse">
<stop stop-color="#35C2FF"/>
<stop offset="1" stop-color="#00A3FF" stop-opacity="0"/>
</linearGradient>
<radialGradient id="paint21_radial_2506_1415" cx="0" cy="0" r="1" gradientUnits="userSpaceOnUse" gradientTransform="translate(654.399 607.258) rotate(-144.084) scale(83.4927 115.237)">
<stop stop-color="#8AFBED" stop-opacity="0.3"/>
<stop offset="0.590599" stop-color="#00A3FF" stop-opacity="0.6573"/>
<stop offset="1" stop-color="#0066FF"/>
</radialGradient>
<radialGradient id="paint22_radial_2506_1415" cx="0" cy="0" r="1" gradientUnits="userSpaceOnUse" gradientTransform="translate(547.156 492.777) rotate(59.5133) scale(103.144 257.18)">
<stop stop-color="#2A6BFF"/>
<stop offset="1" stop-color="#2A6BFF" stop-opacity="0"/>
</radialGradient>
<radialGradient id="paint23_radial_2506_1415" cx="0" cy="0" r="1" gradientUnits="userSpaceOnUse" gradientTransform="translate(454.131 558.349) rotate(-19.6773) scale(36.9007 109.727)">
<stop stop-color="#1700FF"/>
<stop offset="1" stop-color="#0085FF" stop-opacity="0"/>
</radialGradient>
<radialGradient id="paint24_radial_2506_1415" cx="0" cy="0" r="1" gradientUnits="userSpaceOnUse" gradientTransform="translate(468.218 479.804) rotate(85.3514) scale(90.1701 36.6688)">
<stop stop-color="#FFBFAB"/>
<stop offset="0.461859" stop-color="#FF67A8" stop-opacity="0.87"/>
<stop offset="1" stop-color="#6BAFFF" stop-opacity="0"/>
</radialGradient>
<radialGradient id="paint25_radial_2506_1415" cx="0" cy="0" r="1" gradientUnits="userSpaceOnUse" gradientTransform="translate(487.086 561.373) rotate(-114.186) scale(58.3684 90.0497)">
<stop stop-color="#2238FF"/>
<stop offset="1" stop-color="#0047FF" stop-opacity="0"/>
</radialGradient>
<linearGradient id="paint26_linear_2506_1415" x1="465.374" y1="529.006" x2="467.013" y2="501.873" gradientUnits="userSpaceOnUse">
<stop stop-color="#94BFFF"/>
<stop offset="0.983217" stop-color="#293EFE" stop-opacity="0"/>
</linearGradient>
<radialGradient id="paint27_radial_2506_1415" cx="0" cy="0" r="1" gradientUnits="userSpaceOnUse" gradientTransform="translate(480.552 484.936) rotate(138.024) scale(57.3275 56.7929)">
<stop stop-color="#FFBFAB"/>
<stop offset="0.50963" stop-color="#FF67A8" stop-opacity="0.87"/>
<stop offset="1" stop-color="#6BAFFF" stop-opacity="0"/>
</radialGradient>
<radialGradient id="paint28_radial_2506_1415" cx="0" cy="0" r="1" gradientUnits="userSpaceOnUse" gradientTransform="translate(467.52 525.365) rotate(29.1726) scale(87.904 78.0046)">
<stop stop-color="#3448FB"/>
<stop offset="1" stop-color="#0085FF" stop-opacity="0"/>
</radialGradient>
<linearGradient id="paint29_linear_2506_1415" x1="520.501" y1="574.77" x2="504.258" y2="540.079" gradientUnits="userSpaceOnUse">
<stop stop-color="#5FC5FF"/>
<stop offset="1" stop-color="#00A2FF" stop-opacity="0"/>
</linearGradient>
<radialGradient id="paint30_radial_2506_1415" cx="0" cy="0" r="1" gradientUnits="userSpaceOnUse" gradientTransform="translate(488.313 485.366) rotate(61.3904) scale(76.7223 94.8896)">
<stop stop-color="#FFBFAB"/>
<stop offset="0.364808" stop-color="#FF67A8" stop-opacity="0.87"/>
<stop offset="1" stop-color="#6BAFFF" stop-opacity="0"/>
</radialGradient>
<radialGradient id="paint31_radial_2506_1415" cx="0" cy="0" r="1" gradientUnits="userSpaceOnUse" gradientTransform="translate(539.448 535.413) rotate(-158.658) scale(68.7579 68.2124)">
<stop stop-color="#2238FF"/>
<stop offset="1" stop-color="#0047FF" stop-opacity="0"/>
</radialGradient>
<radialGradient id="paint32_radial_2506_1415" cx="0" cy="0" r="1" gradientUnits="userSpaceOnUse" gradientTransform="translate(498.28 474.463) rotate(57.2997) scale(97 133.657)">
<stop stop-color="#FFBFAB"/>
<stop offset="0.364808" stop-color="#FF67A8" stop-opacity="0.87"/>
<stop offset="0.723967" stop-color="#6BAFFF" stop-opacity="0"/>
</radialGradient>
<radialGradient id="paint33_radial_2506_1415" cx="0" cy="0" r="1" gradientUnits="userSpaceOnUse" gradientTransform="translate(547.528 521.869) rotate(-161.223) scale(76.0976 76.392)">
<stop stop-color="#2238FF"/>
<stop offset="1" stop-color="#0047FF" stop-opacity="0"/>
</radialGradient>
<linearGradient id="paint34_linear_2506_1415" x1="598.834" y1="504.361" x2="591.9" y2="605.179" gradientUnits="userSpaceOnUse">
<stop stop-color="#000AFF"/>
<stop offset="0.946758" stop-color="#057EFF"/>
<stop offset="1" stop-color="#0085FF"/>
</linearGradient>
<linearGradient id="paint35_linear_2506_1415" x1="407.917" y1="484.631" x2="553.347" y2="604.296" gradientUnits="userSpaceOnUse">
<stop stop-color="#5CA5FF"/>
<stop offset="1" stop-color="#3D94FF" stop-opacity="0"/>
</linearGradient>
<radialGradient id="paint36_radial_2506_1415" cx="0" cy="0" r="1" gradientUnits="userSpaceOnUse" gradientTransform="translate(454.233 463.124) rotate(61.2739) scale(134.176 114.845)">
<stop offset="0.237514" stop-color="#FF1175" stop-opacity="0.84"/>
<stop offset="0.510163" stop-color="#4E38DA"/>
<stop offset="1" stop-color="#0E34FF"/>
</radialGradient>
<radialGradient id="paint37_radial_2506_1415" cx="0" cy="0" r="1" gradientUnits="userSpaceOnUse" gradientTransform="translate(677.015 480.105) rotate(147.584) scale(128.08 164.367)">
<stop stop-color="#8AFBED" stop-opacity="0.7"/>
<stop offset="0.671495" stop-color="#00A3FF" stop-opacity="0.45726"/>
<stop offset="1" stop-color="#0066FF"/>
</radialGradient>
<linearGradient id="paint38_linear_2506_1415" x1="541.475" y1="542.95" x2="625.558" y2="484.49" gradientUnits="userSpaceOnUse">
<stop stop-color="#2A26FF"/>
<stop offset="1" stop-color="#00A3FF" stop-opacity="0"/>
</linearGradient>
<radialGradient id="paint39_radial_2506_1415" cx="0" cy="0" r="1" gradientUnits="userSpaceOnUse" gradientTransform="translate(661.293 470.908) rotate(90.241) scale(45.8592 74.8862)">
<stop stop-color="#2A6BFF"/>
<stop offset="1" stop-color="#2A6BFF" stop-opacity="0"/>
</radialGradient>
<radialGradient id="paint40_radial_2506_1415" cx="0" cy="0" r="1" gradientUnits="userSpaceOnUse" gradientTransform="translate(664.194 590.373) rotate(-128.624) scale(69.3746 96.4635)">
<stop stop-color="#8AFBED" stop-opacity="0.6"/>
<stop offset="0.582168" stop-color="#00A3FF" stop-opacity="0.45726"/>
<stop offset="1" stop-color="#198CF6" stop-opacity="0.19"/>
</radialGradient>
<linearGradient id="paint41_linear_2506_1415" x1="604.783" y1="445.364" x2="683.99" y2="455.795" gradientUnits="userSpaceOnUse">
<stop stop-color="#35C2FF"/>
<stop offset="1" stop-color="#00A3FF" stop-opacity="0"/>
</linearGradient>
<radialGradient id="paint42_radial_2506_1415" cx="0" cy="0" r="1" gradientUnits="userSpaceOnUse" gradientTransform="translate(667.958 512.426) rotate(90.1053) scale(59.3568 42.3399)">
<stop stop-color="#2A6BFF"/>
<stop offset="1" stop-color="#2A6BFF" stop-opacity="0"/>
</radialGradient>
<radialGradient id="paint43_radial_2506_1415" cx="0" cy="0" r="1" gradientUnits="userSpaceOnUse" gradientTransform="translate(660.434 604.799) rotate(-171.937) scale(192.729 57.9954)">
<stop stop-color="#8AFBED" stop-opacity="0"/>
<stop offset="0.449372" stop-color="#00A3FF" stop-opacity="0.15"/>
<stop offset="1" stop-color="#198CF6"/>
</radialGradient>
<linearGradient id="paint44_linear_2506_1415" x1="469.61" y1="568.139" x2="473.563" y2="614.142" gradientUnits="userSpaceOnUse">
<stop stop-color="#35C2FF"/>
<stop offset="1" stop-color="#00A3FF" stop-opacity="0"/>
</linearGradient>
<linearGradient id="paint45_linear_2506_1415" x1="428.734" y1="541.456" x2="514.445" y2="442.656" gradientUnits="userSpaceOnUse">
<stop stop-color="#1BBBFF"/>
<stop offset="1" stop-color="#00A3FF" stop-opacity="0"/>
</linearGradient>
<radialGradient id="paint46_radial_2506_1415" cx="0" cy="0" r="1" gradientUnits="userSpaceOnUse" gradientTransform="translate(507.21 540.794) rotate(22.412) scale(55.9898 43.7344)">
<stop stop-color="#2A6BFF"/>
<stop offset="1" stop-color="#2A6BFF" stop-opacity="0"/>
</radialGradient>
<radialGradient id="paint47_radial_2506_1415" cx="0" cy="0" r="1" gradientUnits="userSpaceOnUse" gradientTransform="translate(633.361 596) rotate(-158.375) scale(86.453 64.1735)">
<stop stop-color="#8AFBED" stop-opacity="0"/>
<stop offset="0.449372" stop-color="#00A3FF" stop-opacity="0.15"/>
<stop offset="1" stop-color="#198CF6"/>
</radialGradient>
<linearGradient id="paint48_linear_2506_1415" x1="552.992" y1="552.795" x2="565.405" y2="604.427" gradientUnits="userSpaceOnUse">
<stop stop-color="#35C2FF"/>
<stop offset="1" stop-color="#00A3FF" stop-opacity="0"/>
</linearGradient>
<radialGradient id="paint49_radial_2506_1415" cx="0" cy="0" r="1" gradientUnits="userSpaceOnUse" gradientTransform="translate(654.399 587.283) rotate(-144.084) scale(83.4927 115.237)">
<stop stop-color="#8AFBED" stop-opacity="0.3"/>
<stop offset="0.590599" stop-color="#00A3FF" stop-opacity="0.6573"/>
<stop offset="1" stop-color="#0066FF"/>
</radialGradient>
<radialGradient id="paint50_radial_2506_1415" cx="0" cy="0" r="1" gradientUnits="userSpaceOnUse" gradientTransform="translate(547.156 472.802) rotate(59.5133) scale(103.144 257.18)">
<stop stop-color="#2A6BFF"/>
<stop offset="1" stop-color="#2A6BFF" stop-opacity="0"/>
</radialGradient>
<radialGradient id="paint51_radial_2506_1415" cx="0" cy="0" r="1" gradientUnits="userSpaceOnUse" gradientTransform="translate(454.131 538.375) rotate(-43.7852) scale(43.7881 130.207)">
<stop stop-color="#0085FF"/>
<stop offset="1" stop-color="#7000FF" stop-opacity="0"/>
</radialGradient>
<radialGradient id="paint52_radial_2506_1415" cx="0" cy="0" r="1" gradientUnits="userSpaceOnUse" gradientTransform="translate(468.218 459.829) rotate(85.3514) scale(90.1701 36.6688)">
<stop stop-color="#FFBFAB"/>
<stop offset="0.461859" stop-color="#FF67A8" stop-opacity="0.87"/>
<stop offset="1" stop-color="#6BAFFF" stop-opacity="0"/>
</radialGradient>
<radialGradient id="paint53_radial_2506_1415" cx="0" cy="0" r="1" gradientUnits="userSpaceOnUse" gradientTransform="translate(482.305 524.936) rotate(-121.892) scale(40.6588 62.7276)">
<stop stop-color="#2238FF"/>
<stop offset="1" stop-color="#0047FF" stop-opacity="0"/>
</radialGradient>
<radialGradient id="paint54_radial_2506_1415" cx="0" cy="0" r="1" gradientUnits="userSpaceOnUse" gradientTransform="translate(480.552 464.961) rotate(138.024) scale(57.3275 56.7929)">
<stop stop-color="#FFBFAB"/>
<stop offset="0.50963" stop-color="#FF67A8" stop-opacity="0.87"/>
<stop offset="1" stop-color="#6BAFFF" stop-opacity="0"/>
</radialGradient>
<radialGradient id="paint55_radial_2506_1415" cx="0" cy="0" r="1" gradientUnits="userSpaceOnUse" gradientTransform="translate(467.52 505.39) rotate(29.1726) scale(87.904 78.0046)">
<stop stop-color="#3448FB"/>
<stop offset="1" stop-color="#0085FF" stop-opacity="0"/>
</radialGradient>
<linearGradient id="paint56_linear_2506_1415" x1="520.501" y1="554.795" x2="504.258" y2="520.104" gradientUnits="userSpaceOnUse">
<stop stop-color="#5FC5FF"/>
<stop offset="1" stop-color="#00A2FF" stop-opacity="0"/>
</linearGradient>
<radialGradient id="paint57_radial_2506_1415" cx="0" cy="0" r="1" gradientUnits="userSpaceOnUse" gradientTransform="translate(488.313 465.391) rotate(61.3904) scale(76.7223 94.8896)">
<stop stop-color="#FFBFAB"/>
<stop offset="0.364808" stop-color="#FF67A8" stop-opacity="0.87"/>
<stop offset="1" stop-color="#6BAFFF" stop-opacity="0"/>
</radialGradient>
<radialGradient id="paint58_radial_2506_1415" cx="0" cy="0" r="1" gradientUnits="userSpaceOnUse" gradientTransform="translate(539.448 515.438) rotate(-158.658) scale(68.7579 68.2124)">
<stop stop-color="#2238FF"/>
<stop offset="1" stop-color="#0047FF" stop-opacity="0"/>
</radialGradient>
<radialGradient id="paint59_radial_2506_1415" cx="0" cy="0" r="1" gradientUnits="userSpaceOnUse" gradientTransform="translate(498.28 454.488) rotate(57.2997) scale(97 133.657)">
<stop stop-color="#FFBFAB"/>
<stop offset="0.364808" stop-color="#FF67A8" stop-opacity="0.87"/>
<stop offset="0.723967" stop-color="#6BAFFF" stop-opacity="0"/>
</radialGradient>
<radialGradient id="paint60_radial_2506_1415" cx="0" cy="0" r="1" gradientUnits="userSpaceOnUse" gradientTransform="translate(547.528 501.894) rotate(-161.223) scale(76.0976 76.392)">
<stop stop-color="#2238FF"/>
<stop offset="1" stop-color="#0047FF" stop-opacity="0"/>
</radialGradient>
<linearGradient id="paint61_linear_2506_1415" x1="598.834" y1="484.386" x2="591.899" y2="585.205" gradientUnits="userSpaceOnUse">
<stop stop-color="#000AFF"/>
<stop offset="0.946758" stop-color="#057EFF"/>
<stop offset="1" stop-color="#0085FF"/>
</linearGradient>
<linearGradient id="paint62_linear_2506_1415" x1="407.917" y1="464.656" x2="553.347" y2="584.321" gradientUnits="userSpaceOnUse">
<stop stop-color="#5CA5FF"/>
<stop offset="1" stop-color="#3D94FF" stop-opacity="0"/>
</linearGradient>
<radialGradient id="paint63_radial_2506_1415" cx="0" cy="0" r="1" gradientUnits="userSpaceOnUse" gradientTransform="translate(454.233 443.149) rotate(61.2739) scale(134.176 114.845)">
<stop offset="0.237514" stop-color="#FF1175" stop-opacity="0.84"/>
<stop offset="0.510163" stop-color="#4E38DA"/>
<stop offset="1" stop-color="#0E34FF"/>
</radialGradient>
<linearGradient id="paint64_linear_2506_1415" x1="819.409" y1="661.386" x2="954.071" y2="714.1" gradientUnits="userSpaceOnUse">
<stop stop-color="#7B3FE4"/>
<stop offset="1" stop-color="#7B3FE4" stop-opacity="0"/>
</linearGradient>
<clipPath id="clip0_2506_1415">
<rect width="510.851" height="361.334" fill="white" transform="translate(293.223 386.312)"/>
</clipPath>
<clipPath id="clip1_2506_1415">
<rect width="299.993" height="212.775" fill="white" transform="translate(552.961 209)"/>
</clipPath>
<clipPath id="clip2_2506_1415">
<rect width="299.035" height="212.775" fill="white" transform="translate(734.107 603.879)"/>
</clipPath>
<clipPath id="clip3_2506_1415">
<rect width="234.186" height="157.28" fill="white" transform="translate(439.539 476.321)"/>
</clipPath>
</defs>
</svg>
