<svg width="1300" height="1300" viewBox="0 0 1300 1300" fill="none" xmlns="http://www.w3.org/2000/svg">
<mask id="path-1-outside-1_1561_5475" maskUnits="userSpaceOnUse" x="304.977" y="588.264" width="690" height="550" fill="black">
<rect fill="white" x="304.977" y="588.264" width="690" height="550"/>
<path fill-rule="evenodd" clip-rule="evenodd" d="M958.576 647.022C988.315 709.061 1012.26 808.002 973.535 913.522C971.484 922.858 969.824 931.772 969.333 937.832C971.659 940.861 973.042 944.651 973.042 948.763C973.042 957.168 967.267 964.226 959.465 966.192C958.258 967.444 956.763 969.092 954.716 971.345L954.712 971.35C948.406 978.296 936.872 991.001 912.45 1015.66C802.186 1145.72 646.369 1147.95 562.191 1126.73C559.158 1132.38 553.191 1136.22 546.326 1136.22C536.388 1136.22 528.332 1128.17 528.332 1118.24C528.332 1117.27 528.409 1116.32 528.557 1115.39C475.605 1093.36 372.985 1036.24 327.237 915.837C301.522 848.159 302.096 782.317 313.39 727.988C321.635 688.324 335.603 654.755 349.268 631.046C350.414 627.256 351.3 623.624 351.797 620.333C349.654 617.374 348.391 613.738 348.391 609.806C348.391 599.879 356.447 591.832 366.385 591.832C375.883 591.832 383.663 599.183 384.332 608.5L384.379 608.523C386.244 612.62 398.496 625.149 416.049 637.641L596.8 741.401C612.535 748.961 627.914 755.508 637.532 757.854C640.667 755.204 644.721 753.606 649.149 753.606C652.439 753.606 655.524 754.489 658.177 756.029C664.345 755.104 679.954 749.991 707.345 736.347L892.872 624.93C901.516 618.863 909.181 613.055 913.966 608.559C913.934 608.123 913.918 607.683 913.918 607.239C913.918 597.311 921.974 589.264 931.912 589.264C941.85 589.264 949.906 597.311 949.906 607.239C949.906 610.199 949.19 612.991 947.922 615.454C950.496 623.325 954.369 634.908 958.576 647.022ZM963.081 663.299C988.545 723.788 1005.76 812.157 973.37 906.307C968.325 916.644 962.169 925.182 957.21 930.916C956.501 930.832 955.779 930.788 955.048 930.788C951.365 930.788 947.942 931.893 945.09 933.789C934.469 929.841 915.658 920.944 895.742 911.044L696.401 798.204C677.605 785.513 663.49 773.21 668.428 767.729C674.446 761.05 698.909 744.958 722.234 730.402L869.093 642.207C886.14 633.413 907.021 624.156 921.445 621.861C924.394 623.972 928.008 625.214 931.912 625.214C933.778 625.214 935.577 624.93 937.269 624.404C945.872 630.896 955.432 647.398 963.081 663.299ZM700.164 803.285L839.142 881.957C838.344 881.534 837.563 881.12 836.801 880.715C871.075 899.974 939.11 940.289 937.053 947.479C935.817 951.802 915.624 962.53 893.851 972.91L594.422 1099.1C577.783 1104.57 562.93 1107.87 559.179 1104.12C556.711 1101.65 557.295 1092.47 559.543 1080.22L633.887 828.646C641.604 807.1 650.045 789.32 656.86 788.272C663.852 787.198 681.461 794.272 700.164 803.285ZM561.943 1063.03L634.788 816.528C637.994 801.957 639.594 791.064 637.581 789.556C634.727 787.418 627.992 789.395 618.342 794.564L559.828 833.005C544.014 845.57 530.619 857.199 525.458 862.497C525.814 867.555 524.036 872.733 520.136 876.57C519.005 877.683 517.765 878.616 516.449 879.369C514.527 887.649 514.781 903.133 515.816 918.598L543.729 1096.69C544.565 1098.87 545.355 1100.14 546.076 1100.27C546.159 1100.27 546.242 1100.27 546.326 1100.27C548.88 1099.76 555.138 1083.37 561.943 1063.03ZM533.745 1049.6L514.881 929.235C510.937 909.46 505.629 887.548 500.844 880.466C498.597 879.573 496.495 878.211 494.69 876.38C488.751 870.357 487.931 861.21 492.191 854.325C489.958 844.952 475.118 814.601 460.21 785.429L398.312 673.007C385.148 651.431 372.067 631.505 367.67 629.065C358.775 624.129 346.08 644.247 337.766 659.644C329.167 679.232 321.305 702.543 315.907 728.51C304.692 782.458 304.131 847.79 329.64 914.925C366.17 1011.07 439.288 1066.58 493.871 1096C508.136 1102.77 523.401 1109.14 530.555 1109.58C531.915 1107.11 533.837 1105 536.148 1103.42C537.888 1092.93 536.101 1070.36 533.745 1049.6ZM601.119 1131.36C699.706 1143.74 850.863 1120.29 946.191 964.414C944.833 963.645 943.585 962.706 942.476 961.624C937.309 961.831 926.906 963.573 911.483 968.266L598.204 1100.29C581.938 1108.32 568.176 1116.16 568.176 1119.53C568.176 1123.72 584.813 1128.14 601.119 1131.36ZM408.579 636.314L609.777 751.812C622.277 760.813 631.155 769.134 631.155 774.149C631.155 778.581 626.428 784.461 620.093 790.34L544.305 840.129C535.054 845.278 526.181 849.487 520.014 850.84C515.906 846.87 510.364 845.238 505.076 845.954C500.466 842.168 476.391 805.569 455.963 772.386L400.802 672.2C388.604 648.666 377.973 626.743 380.523 625.214C384.194 623.013 391.64 627.097 400.944 632.201C403.373 633.534 405.93 634.936 408.579 636.314ZM338.098 658.891C339.285 656.206 340.486 653.591 341.696 651.05C340.502 653.767 339.287 656.403 338.098 658.891Z"/>
</mask>
<path fill-rule="evenodd" clip-rule="evenodd" d="M958.576 647.022C988.315 709.061 1012.26 808.002 973.535 913.522C971.484 922.858 969.824 931.772 969.333 937.832C971.659 940.861 973.042 944.651 973.042 948.763C973.042 957.168 967.267 964.226 959.465 966.192C958.258 967.444 956.763 969.092 954.716 971.345L954.712 971.35C948.406 978.296 936.872 991.001 912.45 1015.66C802.186 1145.72 646.369 1147.95 562.191 1126.73C559.158 1132.38 553.191 1136.22 546.326 1136.22C536.388 1136.22 528.332 1128.17 528.332 1118.24C528.332 1117.27 528.409 1116.32 528.557 1115.39C475.605 1093.36 372.985 1036.24 327.237 915.837C301.522 848.159 302.096 782.317 313.39 727.988C321.635 688.324 335.603 654.755 349.268 631.046C350.414 627.256 351.3 623.624 351.797 620.333C349.654 617.374 348.391 613.738 348.391 609.806C348.391 599.879 356.447 591.832 366.385 591.832C375.883 591.832 383.663 599.183 384.332 608.5L384.379 608.523C386.244 612.62 398.496 625.149 416.049 637.641L596.8 741.401C612.535 748.961 627.914 755.508 637.532 757.854C640.667 755.204 644.721 753.606 649.149 753.606C652.439 753.606 655.524 754.489 658.177 756.029C664.345 755.104 679.954 749.991 707.345 736.347L892.872 624.93C901.516 618.863 909.181 613.055 913.966 608.559C913.934 608.123 913.918 607.683 913.918 607.239C913.918 597.311 921.974 589.264 931.912 589.264C941.85 589.264 949.906 597.311 949.906 607.239C949.906 610.199 949.19 612.991 947.922 615.454C950.496 623.325 954.369 634.908 958.576 647.022ZM963.081 663.299C988.545 723.788 1005.76 812.157 973.37 906.307C968.325 916.644 962.169 925.182 957.21 930.916C956.501 930.832 955.779 930.788 955.048 930.788C951.365 930.788 947.942 931.893 945.09 933.789C934.469 929.841 915.658 920.944 895.742 911.044L696.401 798.204C677.605 785.513 663.49 773.21 668.428 767.729C674.446 761.05 698.909 744.958 722.234 730.402L869.093 642.207C886.14 633.413 907.021 624.156 921.445 621.861C924.394 623.972 928.008 625.214 931.912 625.214C933.778 625.214 935.577 624.93 937.269 624.404C945.872 630.896 955.432 647.398 963.081 663.299ZM700.164 803.285L839.142 881.957C838.344 881.534 837.563 881.12 836.801 880.715C871.075 899.974 939.11 940.289 937.053 947.479C935.817 951.802 915.624 962.53 893.851 972.91L594.422 1099.1C577.783 1104.57 562.93 1107.87 559.179 1104.12C556.711 1101.65 557.295 1092.47 559.543 1080.22L633.887 828.646C641.604 807.1 650.045 789.32 656.86 788.272C663.852 787.198 681.461 794.272 700.164 803.285ZM561.943 1063.03L634.788 816.528C637.994 801.957 639.594 791.064 637.581 789.556C634.727 787.418 627.992 789.395 618.342 794.564L559.828 833.005C544.014 845.57 530.619 857.199 525.458 862.497C525.814 867.555 524.036 872.733 520.136 876.57C519.005 877.683 517.765 878.616 516.449 879.369C514.527 887.649 514.781 903.133 515.816 918.598L543.729 1096.69C544.565 1098.87 545.355 1100.14 546.076 1100.27C546.159 1100.27 546.242 1100.27 546.326 1100.27C548.88 1099.76 555.138 1083.37 561.943 1063.03ZM533.745 1049.6L514.881 929.235C510.937 909.46 505.629 887.548 500.844 880.466C498.597 879.573 496.495 878.211 494.69 876.38C488.751 870.357 487.931 861.21 492.191 854.325C489.958 844.952 475.118 814.601 460.21 785.429L398.312 673.007C385.148 651.431 372.067 631.505 367.67 629.065C358.775 624.129 346.08 644.247 337.766 659.644C329.167 679.232 321.305 702.543 315.907 728.51C304.692 782.458 304.131 847.79 329.64 914.925C366.17 1011.07 439.288 1066.58 493.871 1096C508.136 1102.77 523.401 1109.14 530.555 1109.58C531.915 1107.11 533.837 1105 536.148 1103.42C537.888 1092.93 536.101 1070.36 533.745 1049.6ZM601.119 1131.36C699.706 1143.74 850.863 1120.29 946.191 964.414C944.833 963.645 943.585 962.706 942.476 961.624C937.309 961.831 926.906 963.573 911.483 968.266L598.204 1100.29C581.938 1108.32 568.176 1116.16 568.176 1119.53C568.176 1123.72 584.813 1128.14 601.119 1131.36ZM408.579 636.314L609.777 751.812C622.277 760.813 631.155 769.134 631.155 774.149C631.155 778.581 626.428 784.461 620.093 790.34L544.305 840.129C535.054 845.278 526.181 849.487 520.014 850.84C515.906 846.87 510.364 845.238 505.076 845.954C500.466 842.168 476.391 805.569 455.963 772.386L400.802 672.2C388.604 648.666 377.973 626.743 380.523 625.214C384.194 623.013 391.64 627.097 400.944 632.201C403.373 633.534 405.93 634.936 408.579 636.314ZM338.098 658.891C339.285 656.206 340.486 653.591 341.696 651.05C340.502 653.767 339.287 656.403 338.098 658.891Z" fill="black"/>
<path fill-rule="evenodd" clip-rule="evenodd" d="M958.576 647.022C988.315 709.061 1012.26 808.002 973.535 913.522C971.484 922.858 969.824 931.772 969.333 937.832C971.659 940.861 973.042 944.651 973.042 948.763C973.042 957.168 967.267 964.226 959.465 966.192C958.258 967.444 956.763 969.092 954.716 971.345L954.712 971.35C948.406 978.296 936.872 991.001 912.45 1015.66C802.186 1145.72 646.369 1147.95 562.191 1126.73C559.158 1132.38 553.191 1136.22 546.326 1136.22C536.388 1136.22 528.332 1128.17 528.332 1118.24C528.332 1117.27 528.409 1116.32 528.557 1115.39C475.605 1093.36 372.985 1036.24 327.237 915.837C301.522 848.159 302.096 782.317 313.39 727.988C321.635 688.324 335.603 654.755 349.268 631.046C350.414 627.256 351.3 623.624 351.797 620.333C349.654 617.374 348.391 613.738 348.391 609.806C348.391 599.879 356.447 591.832 366.385 591.832C375.883 591.832 383.663 599.183 384.332 608.5L384.379 608.523C386.244 612.62 398.496 625.149 416.049 637.641L596.8 741.401C612.535 748.961 627.914 755.508 637.532 757.854C640.667 755.204 644.721 753.606 649.149 753.606C652.439 753.606 655.524 754.489 658.177 756.029C664.345 755.104 679.954 749.991 707.345 736.347L892.872 624.93C901.516 618.863 909.181 613.055 913.966 608.559C913.934 608.123 913.918 607.683 913.918 607.239C913.918 597.311 921.974 589.264 931.912 589.264C941.85 589.264 949.906 597.311 949.906 607.239C949.906 610.199 949.19 612.991 947.922 615.454C950.496 623.325 954.369 634.908 958.576 647.022ZM963.081 663.299C988.545 723.788 1005.76 812.157 973.37 906.307C968.325 916.644 962.169 925.182 957.21 930.916C956.501 930.832 955.779 930.788 955.048 930.788C951.365 930.788 947.942 931.893 945.09 933.789C934.469 929.841 915.658 920.944 895.742 911.044L696.401 798.204C677.605 785.513 663.49 773.21 668.428 767.729C674.446 761.05 698.909 744.958 722.234 730.402L869.093 642.207C886.14 633.413 907.021 624.156 921.445 621.861C924.394 623.972 928.008 625.214 931.912 625.214C933.778 625.214 935.577 624.93 937.269 624.404C945.872 630.896 955.432 647.398 963.081 663.299ZM700.164 803.285L839.142 881.957C838.344 881.534 837.563 881.12 836.801 880.715C871.075 899.974 939.11 940.289 937.053 947.479C935.817 951.802 915.624 962.53 893.851 972.91L594.422 1099.1C577.783 1104.57 562.93 1107.87 559.179 1104.12C556.711 1101.65 557.295 1092.47 559.543 1080.22L633.887 828.646C641.604 807.1 650.045 789.32 656.86 788.272C663.852 787.198 681.461 794.272 700.164 803.285ZM561.943 1063.03L634.788 816.528C637.994 801.957 639.594 791.064 637.581 789.556C634.727 787.418 627.992 789.395 618.342 794.564L559.828 833.005C544.014 845.57 530.619 857.199 525.458 862.497C525.814 867.555 524.036 872.733 520.136 876.57C519.005 877.683 517.765 878.616 516.449 879.369C514.527 887.649 514.781 903.133 515.816 918.598L543.729 1096.69C544.565 1098.87 545.355 1100.14 546.076 1100.27C546.159 1100.27 546.242 1100.27 546.326 1100.27C548.88 1099.76 555.138 1083.37 561.943 1063.03ZM533.745 1049.6L514.881 929.235C510.937 909.46 505.629 887.548 500.844 880.466C498.597 879.573 496.495 878.211 494.69 876.38C488.751 870.357 487.931 861.21 492.191 854.325C489.958 844.952 475.118 814.601 460.21 785.429L398.312 673.007C385.148 651.431 372.067 631.505 367.67 629.065C358.775 624.129 346.08 644.247 337.766 659.644C329.167 679.232 321.305 702.543 315.907 728.51C304.692 782.458 304.131 847.79 329.64 914.925C366.17 1011.07 439.288 1066.58 493.871 1096C508.136 1102.77 523.401 1109.14 530.555 1109.58C531.915 1107.11 533.837 1105 536.148 1103.42C537.888 1092.93 536.101 1070.36 533.745 1049.6ZM601.119 1131.36C699.706 1143.74 850.863 1120.29 946.191 964.414C944.833 963.645 943.585 962.706 942.476 961.624C937.309 961.831 926.906 963.573 911.483 968.266L598.204 1100.29C581.938 1108.32 568.176 1116.16 568.176 1119.53C568.176 1123.72 584.813 1128.14 601.119 1131.36ZM408.579 636.314L609.777 751.812C622.277 760.813 631.155 769.134 631.155 774.149C631.155 778.581 626.428 784.461 620.093 790.34L544.305 840.129C535.054 845.278 526.181 849.487 520.014 850.84C515.906 846.87 510.364 845.238 505.076 845.954C500.466 842.168 476.391 805.569 455.963 772.386L400.802 672.2C388.604 648.666 377.973 626.743 380.523 625.214C384.194 623.013 391.64 627.097 400.944 632.201C403.373 633.534 405.93 634.936 408.579 636.314ZM338.098 658.891C339.285 656.206 340.486 653.591 341.696 651.05C340.502 653.767 339.287 656.403 338.098 658.891Z" stroke="black" stroke-width="1.4" mask="url(#path-1-outside-1_1561_5475)"/>
<mask id="path-2-outside-2_1561_5475" maskUnits="userSpaceOnUse" x="389.806" y="162" width="519" height="544" fill="black">
<rect fill="white" x="389.806" y="162" width="519" height="544"/>
<path fill-rule="evenodd" clip-rule="evenodd" d="M668.428 180.975C668.428 184.854 667.198 188.446 665.107 191.383C667.828 199.367 671.324 209.393 675.033 218.399L688.61 239.264C696.312 246.629 705.875 256.37 713.756 265.738C714.068 265.722 714.383 265.714 714.699 265.714C724.636 265.714 732.693 273.762 732.693 283.689C732.693 287.349 731.598 290.753 729.718 293.593C732.305 301.613 739.639 315.619 748.072 330.366L868.874 514.926C875.372 523.226 881.729 530.318 886.2 533.072C887.269 532.874 888.371 532.771 889.498 532.771C899.436 532.771 907.492 540.818 907.492 550.746C907.492 560.673 899.436 568.721 889.498 568.721C886.383 568.721 883.454 567.93 880.899 566.539C873.624 567.533 861.056 570.634 845.334 577.978L820.97 591.786C802.095 604.152 783.283 617.627 773.819 627.483C773.821 627.582 773.822 627.682 773.822 627.781C773.822 637.709 765.766 645.756 755.828 645.756C751.849 645.756 748.171 644.466 745.192 642.281C738.985 643.273 728.713 645.93 715.914 651.213L674.061 674.822C670.765 677.791 667.77 680.862 665.584 683.702C665.764 684.722 665.858 685.771 665.858 686.842C665.858 696.769 657.801 704.817 647.864 704.817C639.637 704.817 632.699 699.302 630.554 691.771C626.266 685.596 617.282 673.601 606.247 665.599L458.881 580.58C445.493 573.981 430.132 567.047 420.449 564.446C417.31 567.112 413.243 568.721 408.8 568.721C398.862 568.721 390.806 560.673 390.806 550.746C390.806 541.705 397.487 534.223 406.186 532.959L406.229 532.771C408.963 533.112 418.129 527.191 435.295 503.93L518.862 376.08C526.749 361.857 532.312 349.981 533.311 343.391C530.994 340.365 529.617 336.582 529.617 332.478C529.617 322.551 537.673 314.503 547.611 314.503C548.005 314.503 548.397 314.516 548.785 314.541L548.896 314.503C552.463 313.316 560.112 308.956 568.925 299.882L608.384 240.251C617.678 223.035 629.853 199.315 633.752 187.726C632.906 185.642 632.44 183.363 632.44 180.975C632.44 171.048 640.496 163 650.434 163C660.372 163 668.428 171.048 668.428 180.975ZM872.547 556.793C870.668 559.019 868.017 561.445 864.957 563.906L808.848 595.703C789.85 605.546 772.44 613.282 765.122 612.387C764.179 611.817 763.179 611.332 762.133 610.941C757.631 605.106 752.176 565.709 745.571 518.004L744.754 512.108L744.231 508.333L719.96 306.043C720.271 302.099 721.033 299.922 722.41 300.38C724.128 300.952 727.81 305.118 732.553 311.35L865.855 515.006C870.472 525.287 873.187 534.421 874.525 540.774C872.616 543.627 871.504 547.057 871.504 550.746C871.504 552.867 871.872 554.903 872.547 556.793ZM624.025 672.89L448.936 571.877C437.385 563.601 427.583 555.057 426.763 549.688C426.749 549.449 426.731 549.212 426.708 548.976C426.708 548.7 426.736 548.434 426.793 548.178C427.679 544.196 434.162 538.323 442.728 532.141L509.284 495.544C521.81 490.359 530.747 487.672 535.195 486.72C538.424 489.797 542.797 491.685 547.611 491.685C551.901 491.685 555.841 490.185 558.933 487.682C567.388 492.24 580.17 500.476 593.543 509.522L713.304 596.329C727.709 609.475 737.834 621.604 737.834 629.065C737.834 632.736 730.614 638.835 721.081 645.349L688.409 663.779C688.645 663.627 688.879 663.478 689.111 663.333C690.331 662.659 691.577 661.937 692.849 661.163C691.721 661.751 690.46 662.484 689.111 663.333C674.946 671.157 664.26 672.507 657.927 671.939C655.055 670 651.592 668.867 647.864 668.867C642.188 668.867 637.126 671.492 633.828 675.593C630.587 674.931 627.278 673.993 624.025 672.89ZM526.411 483.115L429.486 536.008C424.762 537.61 421.418 538.023 420.367 536.623C419.599 535.599 420.57 532.431 422.61 528.033L496.869 414.423C518.832 383.362 539.942 355.653 542.47 359.441C545.2 363.531 546.193 381.047 546.427 397.495L545.666 439.307C544.115 447.519 541.953 453.794 540.405 457.235C534.054 460.01 529.617 466.343 529.617 473.71C529.617 475.886 530.004 477.972 530.713 479.902C529.387 480.951 527.946 482.025 526.411 483.115ZM723.882 360.307L740.832 501.586C741.726 511.973 742.645 522.094 743.518 531.721V531.722C747.677 577.566 750.82 612.219 745.546 611.09C740.194 609.945 728.519 603.145 714.706 594.173L590.825 504.379C579.117 494.402 569.173 484.916 564.933 478.592C565.371 477.04 565.605 475.402 565.605 473.71C565.605 471.091 565.044 468.603 564.036 466.359C566.993 457.922 574.523 446.078 582.929 434.643L687.905 317.068C697.277 307.934 705.367 300.795 708.051 300.398C708.4 300.536 708.755 300.665 709.115 300.782C713.402 304.678 719.727 336.135 723.882 360.307ZM599.567 412.15L681.309 320.596C690.744 309.075 698.732 298.502 699.275 295.244C699.735 292.486 691.458 293.226 680.252 295.46L596.702 319.857C582.94 324.992 570.65 330.519 565.39 335.267C564.714 339.604 562.485 343.427 559.29 346.153C554.913 358.475 551.398 378.493 549.023 396.124L548.263 437.91C549.081 448.991 550.79 458.168 554.037 455.735C556.489 453.898 561.054 449.408 568.281 442.3L568.281 442.3L568.284 442.297C575.706 434.997 585.935 424.935 599.567 412.15ZM677.109 293.703L618.364 310.856C595.489 316.053 568.903 321.801 562.365 322.186C561.693 321.226 560.929 320.334 560.086 319.524C560.203 318.721 560.482 317.76 560.895 316.674L617.314 231.413C630.013 215.474 644.684 198.95 650.434 198.95C656.092 198.95 666.13 210.695 674.354 222.067L698.244 258.782C700.122 263.043 701.489 267.262 701.912 271.042C698.83 274.152 696.876 278.379 696.715 283.062C692.183 286.755 685.1 290.384 677.109 293.703Z"/>
</mask>
<path fill-rule="evenodd" clip-rule="evenodd" d="M668.428 180.975C668.428 184.854 667.198 188.446 665.107 191.383C667.828 199.367 671.324 209.393 675.033 218.399L688.61 239.264C696.312 246.629 705.875 256.37 713.756 265.738C714.068 265.722 714.383 265.714 714.699 265.714C724.636 265.714 732.693 273.762 732.693 283.689C732.693 287.349 731.598 290.753 729.718 293.593C732.305 301.613 739.639 315.619 748.072 330.366L868.874 514.926C875.372 523.226 881.729 530.318 886.2 533.072C887.269 532.874 888.371 532.771 889.498 532.771C899.436 532.771 907.492 540.818 907.492 550.746C907.492 560.673 899.436 568.721 889.498 568.721C886.383 568.721 883.454 567.93 880.899 566.539C873.624 567.533 861.056 570.634 845.334 577.978L820.97 591.786C802.095 604.152 783.283 617.627 773.819 627.483C773.821 627.582 773.822 627.682 773.822 627.781C773.822 637.709 765.766 645.756 755.828 645.756C751.849 645.756 748.171 644.466 745.192 642.281C738.985 643.273 728.713 645.93 715.914 651.213L674.061 674.822C670.765 677.791 667.77 680.862 665.584 683.702C665.764 684.722 665.858 685.771 665.858 686.842C665.858 696.769 657.801 704.817 647.864 704.817C639.637 704.817 632.699 699.302 630.554 691.771C626.266 685.596 617.282 673.601 606.247 665.599L458.881 580.58C445.493 573.981 430.132 567.047 420.449 564.446C417.31 567.112 413.243 568.721 408.8 568.721C398.862 568.721 390.806 560.673 390.806 550.746C390.806 541.705 397.487 534.223 406.186 532.959L406.229 532.771C408.963 533.112 418.129 527.191 435.295 503.93L518.862 376.08C526.749 361.857 532.312 349.981 533.311 343.391C530.994 340.365 529.617 336.582 529.617 332.478C529.617 322.551 537.673 314.503 547.611 314.503C548.005 314.503 548.397 314.516 548.785 314.541L548.896 314.503C552.463 313.316 560.112 308.956 568.925 299.882L608.384 240.251C617.678 223.035 629.853 199.315 633.752 187.726C632.906 185.642 632.44 183.363 632.44 180.975C632.44 171.048 640.496 163 650.434 163C660.372 163 668.428 171.048 668.428 180.975ZM872.547 556.793C870.668 559.019 868.017 561.445 864.957 563.906L808.848 595.703C789.85 605.546 772.44 613.282 765.122 612.387C764.179 611.817 763.179 611.332 762.133 610.941C757.631 605.106 752.176 565.709 745.571 518.004L744.754 512.108L744.231 508.333L719.96 306.043C720.271 302.099 721.033 299.922 722.41 300.38C724.128 300.952 727.81 305.118 732.553 311.35L865.855 515.006C870.472 525.287 873.187 534.421 874.525 540.774C872.616 543.627 871.504 547.057 871.504 550.746C871.504 552.867 871.872 554.903 872.547 556.793ZM624.025 672.89L448.936 571.877C437.385 563.601 427.583 555.057 426.763 549.688C426.749 549.449 426.731 549.212 426.708 548.976C426.708 548.7 426.736 548.434 426.793 548.178C427.679 544.196 434.162 538.323 442.728 532.141L509.284 495.544C521.81 490.359 530.747 487.672 535.195 486.72C538.424 489.797 542.797 491.685 547.611 491.685C551.901 491.685 555.841 490.185 558.933 487.682C567.388 492.24 580.17 500.476 593.543 509.522L713.304 596.329C727.709 609.475 737.834 621.604 737.834 629.065C737.834 632.736 730.614 638.835 721.081 645.349L688.409 663.779C688.645 663.627 688.879 663.478 689.111 663.333C690.331 662.659 691.577 661.937 692.849 661.163C691.721 661.751 690.46 662.484 689.111 663.333C674.946 671.157 664.26 672.507 657.927 671.939C655.055 670 651.592 668.867 647.864 668.867C642.188 668.867 637.126 671.492 633.828 675.593C630.587 674.931 627.278 673.993 624.025 672.89ZM526.411 483.115L429.486 536.008C424.762 537.61 421.418 538.023 420.367 536.623C419.599 535.599 420.57 532.431 422.61 528.033L496.869 414.423C518.832 383.362 539.942 355.653 542.47 359.441C545.2 363.531 546.193 381.047 546.427 397.495L545.666 439.307C544.115 447.519 541.953 453.794 540.405 457.235C534.054 460.01 529.617 466.343 529.617 473.71C529.617 475.886 530.004 477.972 530.713 479.902C529.387 480.951 527.946 482.025 526.411 483.115ZM723.882 360.307L740.832 501.586C741.726 511.973 742.645 522.094 743.518 531.721V531.722C747.677 577.566 750.82 612.219 745.546 611.09C740.194 609.945 728.519 603.145 714.706 594.173L590.825 504.379C579.117 494.402 569.173 484.916 564.933 478.592C565.371 477.04 565.605 475.402 565.605 473.71C565.605 471.091 565.044 468.603 564.036 466.359C566.993 457.922 574.523 446.078 582.929 434.643L687.905 317.068C697.277 307.934 705.367 300.795 708.051 300.398C708.4 300.536 708.755 300.665 709.115 300.782C713.402 304.678 719.727 336.135 723.882 360.307ZM599.567 412.15L681.309 320.596C690.744 309.075 698.732 298.502 699.275 295.244C699.735 292.486 691.458 293.226 680.252 295.46L596.702 319.857C582.94 324.992 570.65 330.519 565.39 335.267C564.714 339.604 562.485 343.427 559.29 346.153C554.913 358.475 551.398 378.493 549.023 396.124L548.263 437.91C549.081 448.991 550.79 458.168 554.037 455.735C556.489 453.898 561.054 449.408 568.281 442.3L568.281 442.3L568.284 442.297C575.706 434.997 585.935 424.935 599.567 412.15ZM677.109 293.703L618.364 310.856C595.489 316.053 568.903 321.801 562.365 322.186C561.693 321.226 560.929 320.334 560.086 319.524C560.203 318.721 560.482 317.76 560.895 316.674L617.314 231.413C630.013 215.474 644.684 198.95 650.434 198.95C656.092 198.95 666.13 210.695 674.354 222.067L698.244 258.782C700.122 263.043 701.489 267.262 701.912 271.042C698.83 274.152 696.876 278.379 696.715 283.062C692.183 286.755 685.1 290.384 677.109 293.703Z" fill="black"/>
<path d="M665.107 191.383L664.537 190.977L664.328 191.269L664.444 191.609L665.107 191.383ZM675.033 218.399L674.386 218.666L674.411 218.726L674.447 218.781L675.033 218.399ZM688.61 239.264L688.023 239.646L688.068 239.714L688.126 239.77L688.61 239.264ZM713.756 265.738L713.221 266.189L713.445 266.455L713.792 266.437L713.756 265.738ZM729.718 293.593L729.134 293.206L728.948 293.487L729.051 293.808L729.718 293.593ZM748.072 330.366L747.464 330.714L747.474 330.732L747.486 330.75L748.072 330.366ZM868.874 514.926L868.288 515.31L868.304 515.335L868.323 515.358L868.874 514.926ZM886.2 533.072L885.833 533.668L886.062 533.809L886.327 533.76L886.2 533.072ZM880.899 566.539L881.234 565.925L881.032 565.815L880.804 565.846L880.899 566.539ZM845.334 577.978L845.038 577.344L845.013 577.356L844.989 577.369L845.334 577.978ZM820.97 591.786L820.625 591.177L820.605 591.188L820.586 591.2L820.97 591.786ZM773.819 627.483L773.315 626.998L773.115 627.206L773.12 627.494L773.819 627.483ZM745.192 642.281L745.605 641.717L745.37 641.544L745.081 641.59L745.192 642.281ZM715.914 651.213L715.647 650.566L715.607 650.582L715.57 650.603L715.914 651.213ZM674.061 674.822L673.717 674.213L673.65 674.251L673.592 674.302L674.061 674.822ZM665.584 683.702L665.029 683.275L664.841 683.52L664.895 683.823L665.584 683.702ZM630.554 691.771L631.228 691.579L631.196 691.467L631.129 691.372L630.554 691.771ZM606.247 665.599L606.658 665.032L606.628 665.011L606.597 664.992L606.247 665.599ZM458.881 580.58L459.231 579.973L459.211 579.962L459.191 579.952L458.881 580.58ZM420.449 564.446L420.631 563.77L420.276 563.675L419.996 563.912L420.449 564.446ZM406.186 532.959L406.287 533.652L406.764 533.582L406.869 533.113L406.186 532.959ZM406.229 532.771L406.315 532.076L405.685 531.998L405.546 532.617L406.229 532.771ZM435.295 503.93L435.858 504.345L435.87 504.329L435.881 504.313L435.295 503.93ZM518.862 376.08L519.447 376.463L519.461 376.442L519.474 376.42L518.862 376.08ZM533.311 343.391L534.004 343.496L534.048 343.202L533.867 342.965L533.311 343.391ZM548.785 314.541L548.74 315.24L548.879 315.248L549.01 315.204L548.785 314.541ZM548.896 314.503L548.675 313.839L548.671 313.84L548.896 314.503ZM568.925 299.882L569.427 300.37L569.473 300.323L569.509 300.268L568.925 299.882ZM608.384 240.251L608.968 240.637L608.985 240.611L609 240.584L608.384 240.251ZM633.752 187.726L634.416 187.949L634.498 187.703L634.401 187.463L633.752 187.726ZM864.957 563.906L865.302 564.515L865.351 564.487L865.395 564.451L864.957 563.906ZM872.547 556.793L873.082 557.244L873.342 556.936L873.207 556.557L872.547 556.793ZM808.848 595.703L809.17 596.324L809.182 596.318L809.193 596.312L808.848 595.703ZM765.122 612.387L764.76 612.986L764.888 613.063L765.037 613.081L765.122 612.387ZM762.133 610.941L761.579 611.368L761.701 611.526L761.888 611.596L762.133 610.941ZM745.571 518.004L746.264 517.908V517.908L745.571 518.004ZM744.754 512.108L745.447 512.012V512.011L744.754 512.108ZM744.231 508.333L743.535 508.417L743.537 508.429L744.231 508.333ZM719.96 306.043L719.263 305.988L719.257 306.058L719.265 306.127L719.96 306.043ZM722.41 300.38L722.189 301.044L722.41 300.38ZM732.553 311.35L733.139 310.967L733.125 310.946L733.11 310.926L732.553 311.35ZM865.855 515.006L866.493 514.72L866.471 514.669L866.44 514.623L865.855 515.006ZM874.525 540.774L875.107 541.163L875.27 540.918L875.21 540.629L874.525 540.774ZM448.936 571.877L448.529 572.446L448.557 572.466L448.587 572.483L448.936 571.877ZM624.025 672.89L623.675 673.496L623.735 673.531L623.8 673.553L624.025 672.89ZM426.763 549.688L426.064 549.728L426.066 549.761L426.071 549.793L426.763 549.688ZM426.708 548.976L426.008 548.975L426.008 549.01L426.011 549.044L426.708 548.976ZM426.793 548.178L427.477 548.33L426.793 548.178ZM442.728 532.141L442.391 531.528L442.353 531.549L442.319 531.574L442.728 532.141ZM509.284 495.544L509.016 494.897L508.98 494.912L508.947 494.931L509.284 495.544ZM535.195 486.72L535.678 486.214L535.41 485.959L535.048 486.036L535.195 486.72ZM558.933 487.682L559.265 487.066L558.854 486.845L558.492 487.138L558.933 487.682ZM593.543 509.522L593.954 508.955L593.945 508.948L593.935 508.942L593.543 509.522ZM713.304 596.329L713.776 595.812L713.747 595.786L713.715 595.762L713.304 596.329ZM721.081 645.349L721.424 645.959L721.451 645.944L721.475 645.927L721.081 645.349ZM688.409 663.779L688.03 663.191L688.753 664.389L688.409 663.779ZM692.849 661.163L693.212 661.762L692.525 660.543L692.849 661.163ZM657.927 671.939L657.536 672.519L657.685 672.62L657.865 672.636L657.927 671.939ZM633.828 675.593L633.688 676.279L634.106 676.364L634.373 676.032L633.828 675.593ZM429.486 536.008L429.711 536.671L429.768 536.652L429.822 536.623L429.486 536.008ZM526.411 483.115L526.746 483.73L526.782 483.71L526.816 483.686L526.411 483.115ZM420.367 536.623L420.927 536.202H420.927L420.367 536.623ZM422.61 528.033L422.024 527.65L421.996 527.692L421.975 527.738L422.61 528.033ZM496.869 414.423L496.298 414.019L496.29 414.03L496.283 414.04L496.869 414.423ZM542.47 359.441L543.052 359.052V359.052L542.47 359.441ZM546.427 397.495L547.127 397.508L547.127 397.497L547.127 397.485L546.427 397.495ZM545.666 439.307L546.354 439.437L546.365 439.379L546.366 439.32L545.666 439.307ZM540.405 457.235L540.685 457.876L540.932 457.768L541.043 457.522L540.405 457.235ZM530.713 479.902L531.147 480.452L531.545 480.137L531.37 479.661L530.713 479.902ZM740.832 501.586L741.53 501.526L741.529 501.514L741.527 501.502L740.832 501.586ZM723.882 360.307L724.577 360.223L724.575 360.206L724.572 360.188L723.882 360.307ZM743.518 531.721H744.218V531.69L744.215 531.658L743.518 531.721ZM743.518 531.722H742.818V531.754L742.821 531.785L743.518 531.722ZM745.546 611.09L745.399 611.775L745.546 611.09ZM714.706 594.173L714.296 594.74L714.31 594.75L714.325 594.76L714.706 594.173ZM590.825 504.379L590.371 504.912L590.392 504.929L590.414 504.946L590.825 504.379ZM564.933 478.592L564.26 478.402L564.172 478.714L564.352 478.982L564.933 478.592ZM564.036 466.359L563.376 466.127L563.283 466.391L563.398 466.646L564.036 466.359ZM582.929 434.643L582.407 434.177L582.384 434.201L582.365 434.228L582.929 434.643ZM687.905 317.068L687.416 316.566L687.399 316.583L687.382 316.601L687.905 317.068ZM708.051 300.398L708.309 299.747L708.135 299.678L707.948 299.705L708.051 300.398ZM709.115 300.782L709.585 300.264L709.474 300.163L709.331 300.116L709.115 300.782ZM681.309 320.596L681.832 321.063L681.841 321.051L681.851 321.04L681.309 320.596ZM599.567 412.15L600.046 412.661L600.068 412.639L600.089 412.616L599.567 412.15ZM699.275 295.244L698.585 295.129L699.275 295.244ZM680.252 295.46L680.115 294.774L680.085 294.78L680.056 294.788L680.252 295.46ZM596.702 319.857L596.505 319.185L596.481 319.192L596.457 319.201L596.702 319.857ZM565.39 335.267L564.921 334.748L564.736 334.914L564.698 335.159L565.39 335.267ZM559.29 346.153L558.836 345.62L558.694 345.742L558.631 345.918L559.29 346.153ZM549.023 396.124L548.33 396.03L548.324 396.071L548.323 396.111L549.023 396.124ZM548.263 437.91L547.563 437.897L547.562 437.929L547.565 437.961L548.263 437.91ZM554.037 455.735L553.618 455.175L554.037 455.735ZM568.281 442.3L568.772 442.799L568.776 442.795L568.281 442.3ZM568.281 442.3L567.792 441.799L567.787 441.804L568.281 442.3ZM568.284 442.297L568.774 442.797L568.775 442.796L568.284 442.297ZM618.364 310.856L618.519 311.539L618.54 311.534L618.56 311.528L618.364 310.856ZM677.109 293.703L677.306 294.375L677.342 294.364L677.378 294.349L677.109 293.703ZM562.365 322.186L561.792 322.588L562.016 322.908L562.407 322.885L562.365 322.186ZM560.086 319.524L559.393 319.423L559.341 319.779L559.601 320.029L560.086 319.524ZM560.895 316.674L560.311 316.288L560.268 316.353L560.241 316.425L560.895 316.674ZM617.314 231.413L616.766 230.977L616.747 231.001L616.73 231.027L617.314 231.413ZM674.354 222.067L674.941 221.685L674.931 221.671L674.921 221.657L674.354 222.067ZM698.244 258.782L698.884 258.499L698.862 258.447L698.831 258.4L698.244 258.782ZM701.912 271.042L702.409 271.535L702.645 271.297L702.607 270.964L701.912 271.042ZM696.715 283.062L697.158 283.604L697.404 283.403L697.415 283.086L696.715 283.062ZM665.677 191.789C667.85 188.737 669.128 185.004 669.128 180.975H667.728C667.728 184.703 666.546 188.154 664.537 190.977L665.677 191.789ZM675.681 218.133C671.98 209.148 668.49 199.14 665.769 191.157L664.444 191.609C667.166 199.594 670.668 209.638 674.386 218.666L675.681 218.133ZM689.197 238.883L675.62 218.017L674.447 218.781L688.023 239.646L689.197 238.883ZM714.292 265.288C706.388 255.893 696.806 246.133 689.094 238.759L688.126 239.77C695.818 247.125 705.361 256.847 713.221 266.189L714.292 265.288ZM714.699 265.014C714.37 265.014 714.044 265.023 713.72 265.039L713.792 266.437C714.092 266.422 714.395 266.414 714.699 266.414V265.014ZM733.393 283.689C733.393 273.374 725.022 265.014 714.699 265.014V266.414C724.251 266.414 731.993 274.149 731.993 283.689H733.393ZM730.301 293.979C732.255 291.028 733.393 287.49 733.393 283.689H731.993C731.993 287.207 730.941 290.477 729.134 293.206L730.301 293.979ZM748.679 330.019C740.24 315.26 732.945 301.317 730.384 293.378L729.051 293.808C731.665 301.909 739.038 315.978 747.464 330.714L748.679 330.019ZM869.459 514.543L748.657 329.983L747.486 330.75L868.288 515.31L869.459 514.543ZM868.323 515.358C871.579 519.517 874.807 523.382 877.787 526.558C880.757 529.723 883.516 532.24 885.833 533.668L886.567 532.476C884.413 531.149 881.758 528.744 878.807 525.6C875.866 522.466 872.667 518.635 869.425 514.495L868.323 515.358ZM889.498 532.071C888.328 532.071 887.183 532.178 886.072 532.384L886.327 533.76C887.354 533.57 888.414 533.471 889.498 533.471V532.071ZM908.192 550.746C908.192 540.431 899.822 532.071 889.498 532.071V533.471C899.05 533.471 906.792 541.206 906.792 550.746H908.192ZM889.498 569.421C899.822 569.421 908.192 561.06 908.192 550.746H906.792C906.792 560.286 899.05 568.021 889.498 568.021V569.421ZM880.564 567.154C883.219 568.6 886.264 569.421 889.498 569.421V568.021C886.503 568.021 883.688 567.261 881.234 565.925L880.564 567.154ZM880.804 565.846C873.453 566.85 860.817 569.973 845.038 577.344L845.63 578.613C861.294 571.295 873.795 568.216 880.994 567.233L880.804 565.846ZM821.315 592.395L845.679 578.587L844.989 577.369L820.625 591.177L821.315 592.395ZM774.324 627.968C783.726 618.177 802.472 604.741 821.354 592.371L820.586 591.2C801.718 603.562 782.841 617.077 773.315 626.998L774.324 627.968ZM774.522 627.781C774.522 627.678 774.521 627.575 774.519 627.472L773.12 627.494C773.121 627.59 773.122 627.686 773.122 627.781H774.522ZM755.828 646.456C766.152 646.456 774.522 638.096 774.522 627.781H773.122C773.122 637.321 765.38 645.056 755.828 645.056V646.456ZM744.778 642.846C747.873 645.116 751.695 646.456 755.828 646.456V645.056C752.002 645.056 748.469 643.816 745.605 641.717L744.778 642.846ZM716.181 651.86C728.939 646.594 739.158 643.954 745.302 642.973L745.081 641.59C738.812 642.592 728.487 645.266 715.647 650.566L716.181 651.86ZM674.405 675.432L716.258 651.823L715.57 650.603L673.717 674.213L674.405 675.432ZM666.139 684.129C668.289 681.335 671.251 678.295 674.529 675.342L673.592 674.302C670.279 677.287 667.251 680.389 665.029 683.275L666.139 684.129ZM666.558 686.842C666.558 685.73 666.46 684.64 666.273 683.58L664.895 683.823C665.067 684.803 665.158 685.812 665.158 686.842H666.558ZM647.864 705.517C658.187 705.517 666.558 697.157 666.558 686.842H665.158C665.158 696.382 657.415 704.117 647.864 704.117V705.517ZM629.881 691.963C632.11 699.787 639.316 705.517 647.864 705.517V704.117C639.957 704.117 633.289 698.817 631.228 691.579L629.881 691.963ZM605.836 666.165C616.771 674.095 625.699 686.007 629.979 692.17L631.129 691.372C626.833 685.184 617.793 673.108 606.658 665.032L605.836 666.165ZM458.532 581.186L605.897 666.205L606.597 664.992L459.231 579.973L458.532 581.186ZM420.268 565.122C429.875 567.703 445.178 574.606 458.572 581.207L459.191 579.952C445.808 573.356 430.389 566.391 420.631 563.77L420.268 565.122ZM408.8 569.421C413.415 569.421 417.641 567.749 420.902 564.979L419.996 563.912C416.979 566.475 413.071 568.021 408.8 568.021V569.421ZM390.106 550.746C390.106 561.06 398.476 569.421 408.8 569.421V568.021C399.248 568.021 391.506 560.286 391.506 550.746H390.106ZM406.086 532.266C397.048 533.58 390.106 541.352 390.106 550.746H391.506C391.506 542.058 397.926 534.867 406.287 533.652L406.086 532.266ZM405.546 532.617L405.503 532.805L406.869 533.113L406.912 532.925L405.546 532.617ZM434.731 503.514C426.164 515.124 419.612 522.38 414.879 526.683C412.512 528.836 410.614 530.236 409.16 531.073C407.671 531.931 406.758 532.131 406.315 532.076L406.142 533.465C407.066 533.581 408.325 533.169 409.859 532.286C411.429 531.382 413.409 529.912 415.821 527.719C420.646 523.332 427.26 515.997 435.858 504.345L434.731 503.514ZM518.276 375.697L434.709 503.547L435.881 504.313L519.447 376.463L518.276 375.697ZM532.619 343.286C532.135 346.482 530.528 351.025 528.031 356.586C525.54 362.132 522.188 368.638 518.249 375.741L519.474 376.42C523.422 369.299 526.795 362.755 529.308 357.16C531.814 351.58 533.489 346.89 534.004 343.496L532.619 343.286ZM528.917 332.478C528.917 336.742 530.348 340.673 532.756 343.817L533.867 342.965C531.64 340.058 530.317 336.423 530.317 332.478H528.917ZM547.611 313.803C537.287 313.803 528.917 322.164 528.917 332.478H530.317C530.317 322.938 538.059 315.203 547.611 315.203V313.803ZM548.83 313.842C548.427 313.816 548.02 313.803 547.611 313.803V315.203C547.99 315.203 548.367 315.216 548.74 315.24L548.83 313.842ZM548.671 313.84L548.56 313.878L549.01 315.204L549.121 315.166L548.671 313.84ZM568.423 299.394C559.658 308.418 552.101 312.698 548.675 313.839L549.117 315.167C552.824 313.933 560.565 309.494 569.427 300.37L568.423 299.394ZM607.8 239.865L568.341 299.496L569.509 300.268L608.968 240.637L607.8 239.865ZM633.089 187.503C629.213 199.023 617.07 222.688 607.768 239.919L609 240.584C618.285 223.383 630.494 199.606 634.416 187.949L633.089 187.503ZM631.74 180.975C631.74 183.454 632.224 185.823 633.104 187.989L634.401 187.463C633.588 185.46 633.14 183.271 633.14 180.975H631.74ZM650.434 162.3C640.11 162.3 631.74 170.66 631.74 180.975H633.14C633.14 171.435 640.882 163.7 650.434 163.7V162.3ZM669.128 180.975C669.128 170.66 660.758 162.3 650.434 162.3V163.7C659.986 163.7 667.728 171.435 667.728 180.975H669.128ZM865.395 564.451C868.471 561.978 871.162 559.52 873.082 557.244L872.012 556.341C870.175 558.519 867.562 560.912 864.518 563.36L865.395 564.451ZM809.193 596.312L865.302 564.515L864.611 563.297L808.503 595.094L809.193 596.312ZM765.037 613.081C766.997 613.321 769.559 612.98 772.543 612.22C775.542 611.457 779.029 610.254 782.865 608.722C790.538 605.657 799.664 601.25 809.17 596.324L808.526 595.081C799.034 599.999 789.956 604.382 782.346 607.422C778.54 608.942 775.115 610.121 772.197 610.864C769.265 611.61 766.906 611.9 765.207 611.692L765.037 613.081ZM761.888 611.596C762.893 611.972 763.854 612.439 764.76 612.986L765.484 611.787C764.504 611.196 763.465 610.691 762.378 610.285L761.888 611.596ZM744.877 518.1C748.179 541.949 751.196 563.735 753.95 580.289C755.327 588.565 756.64 595.545 757.893 600.828C758.52 603.469 759.134 605.697 759.737 607.456C760.334 609.196 760.941 610.543 761.579 611.368L762.687 610.513C762.199 609.88 761.651 608.72 761.062 607.002C760.479 605.303 759.877 603.124 759.256 600.505C758.013 595.269 756.706 588.325 755.331 580.059C752.581 563.529 749.567 541.764 746.264 517.908L744.877 518.1ZM744.061 512.204L744.877 518.1L746.264 517.908L745.447 512.012L744.061 512.204ZM743.537 508.429L744.061 512.204L745.447 512.011L744.924 508.237L743.537 508.429ZM719.265 306.127L743.536 508.417L744.926 508.25L720.655 305.96L719.265 306.127ZM722.631 299.716C722.078 299.532 721.532 299.612 721.072 299.956C720.654 300.267 720.359 300.755 720.138 301.295C719.693 302.381 719.419 304.003 719.263 305.988L720.658 306.098C720.812 304.139 721.075 302.7 721.433 301.826C721.613 301.386 721.786 301.169 721.909 301.078C721.988 301.019 722.054 300.999 722.189 301.044L722.631 299.716ZM733.11 310.926C730.734 307.803 728.613 305.185 726.864 303.27C725.99 302.314 725.199 301.522 724.509 300.928C723.836 300.349 723.197 299.904 722.631 299.716L722.189 301.044C722.482 301.142 722.948 301.432 723.596 301.99C724.227 302.533 724.976 303.279 725.83 304.215C727.538 306.084 729.63 308.665 731.996 311.774L733.11 310.926ZM866.44 514.623L733.139 310.967L731.968 311.733L865.269 515.39L866.44 514.623ZM875.21 540.629C873.862 534.228 871.131 525.046 866.493 514.72L865.216 515.293C869.813 525.529 872.513 534.615 873.84 540.918L875.21 540.629ZM872.204 550.746C872.204 547.199 873.273 543.905 875.107 541.163L873.943 540.384C871.96 543.349 870.804 546.914 870.804 550.746H872.204ZM873.207 556.557C872.558 554.742 872.204 552.786 872.204 550.746H870.804C870.804 552.949 871.186 555.064 871.888 557.028L873.207 556.557ZM448.587 572.483L623.675 673.496L624.375 672.284L449.286 571.27L448.587 572.483ZM426.071 549.793C426.301 551.296 427.141 552.944 428.381 554.665C429.629 556.397 431.325 558.259 433.34 560.197C437.372 564.072 442.741 568.299 448.529 572.446L449.344 571.308C443.58 567.178 438.273 562.996 434.31 559.187C432.329 557.283 430.698 555.485 429.517 553.847C428.328 552.197 427.635 550.763 427.455 549.582L426.071 549.793ZM426.011 549.044C426.033 549.271 426.051 549.499 426.064 549.728L427.462 549.647C427.448 549.399 427.428 549.153 427.404 548.908L426.011 549.044ZM426.11 548.026C426.041 548.335 426.008 548.652 426.008 548.975L427.408 548.978C427.408 548.748 427.432 548.533 427.477 548.33L426.11 548.026ZM442.319 531.574C438.023 534.674 434.229 537.711 431.391 540.484C429.973 541.871 428.781 543.202 427.884 544.453C426.991 545.698 426.36 546.9 426.11 548.026L427.477 548.33C427.669 547.464 428.182 546.439 429.021 545.27C429.856 544.106 430.987 542.837 432.37 541.485C435.137 538.781 438.868 535.791 443.138 532.709L442.319 531.574ZM508.947 494.931L442.391 531.528L443.066 532.755L509.621 496.158L508.947 494.931ZM535.048 486.036C530.544 486.999 521.565 489.703 509.016 494.897L509.552 496.191C522.056 491.015 530.949 488.344 535.341 487.405L535.048 486.036ZM547.611 490.985C542.983 490.985 538.782 489.171 535.678 486.214L534.712 487.227C538.066 490.422 542.61 492.385 547.611 492.385V490.985ZM558.492 487.138C555.52 489.544 551.735 490.985 547.611 490.985V492.385C552.067 492.385 556.161 490.827 559.373 488.226L558.492 487.138ZM593.935 508.942C580.563 499.897 567.754 491.642 559.265 487.066L558.6 488.298C567.021 492.837 579.778 501.056 593.151 510.101L593.935 508.942ZM713.715 595.762L593.954 508.955L593.132 510.088L712.893 596.896L713.715 595.762ZM738.534 629.065C738.534 627.051 737.854 624.784 736.655 622.343C735.453 619.895 733.708 617.228 731.525 614.401C727.158 608.748 720.993 602.398 713.776 595.812L712.832 596.846C720.02 603.406 726.12 609.694 730.417 615.257C732.565 618.039 734.252 620.624 735.398 622.96C736.548 625.302 737.134 627.349 737.134 629.065H738.534ZM721.475 645.927C726.252 642.663 730.475 639.487 733.51 636.653C735.027 635.237 736.267 633.888 737.132 632.641C737.987 631.41 738.534 630.196 738.534 629.065H737.134C737.134 629.77 736.779 630.695 735.982 631.843C735.195 632.976 734.034 634.248 732.555 635.629C729.597 638.391 725.442 641.521 720.686 644.771L721.475 645.927ZM688.753 664.389L721.424 645.959L720.737 644.74L688.065 663.17L688.753 664.389ZM688.738 662.74C688.504 662.887 688.268 663.037 688.03 663.191L688.788 664.368C689.022 664.217 689.254 664.07 689.483 663.925L688.738 662.74ZM689.449 663.946C690.678 663.267 691.933 662.54 693.212 661.762L692.485 660.565C691.222 661.334 689.984 662.051 688.772 662.72L689.449 663.946ZM692.525 660.543C691.376 661.141 690.099 661.884 688.738 662.74L689.483 663.925C690.821 663.084 692.065 662.361 693.172 661.784L692.525 660.543ZM657.865 672.636C664.361 673.219 675.185 671.824 689.449 663.946L688.772 662.72C674.707 670.489 664.159 671.795 657.99 671.242L657.865 672.636ZM647.864 669.567C651.448 669.567 654.775 670.655 657.536 672.519L658.319 671.359C655.334 669.344 651.735 668.167 647.864 668.167V669.567ZM634.373 676.032C637.544 672.089 642.409 669.567 647.864 669.567V668.167C641.967 668.167 636.708 670.895 633.283 675.154L634.373 676.032ZM623.8 673.553C627.075 674.663 630.413 675.61 633.688 676.279L633.968 674.907C630.762 674.252 627.481 673.322 624.25 672.227L623.8 673.553ZM429.822 536.623L526.746 483.73L526.075 482.501L429.151 535.394L429.822 536.623ZM419.808 537.043C420.573 538.062 422.028 538.269 423.607 538.139C425.249 538.003 427.329 537.479 429.711 536.671L429.262 535.345C426.919 536.14 424.965 536.622 423.492 536.743C421.955 536.87 421.213 536.583 420.927 536.202L419.808 537.043ZM421.975 527.738C420.949 529.95 420.177 531.883 419.76 533.409C419.552 534.17 419.424 534.859 419.407 535.447C419.39 536.017 419.474 536.599 419.808 537.043L420.927 536.202C420.876 536.134 420.793 535.937 420.806 535.488C420.819 535.056 420.917 534.486 421.111 533.778C421.497 532.364 422.231 530.514 423.245 528.328L421.975 527.738ZM496.283 414.04L422.024 527.65L423.196 528.416L497.455 414.806L496.283 414.04ZM543.052 359.052C542.751 358.601 542.289 358.389 541.777 358.393C541.314 358.397 540.829 358.574 540.358 358.823C539.407 359.326 538.232 360.275 536.884 361.559C534.171 364.142 530.586 368.251 526.413 373.424C518.059 383.778 507.281 398.486 496.298 414.019L497.441 414.827C508.42 399.3 519.178 384.622 527.502 374.303C531.668 369.139 535.207 365.09 537.849 362.573C539.179 361.306 540.24 360.469 541.013 360.061C541.404 359.854 541.653 359.794 541.788 359.793C541.874 359.792 541.873 359.807 541.888 359.829L543.052 359.052ZM547.127 397.485C547.01 389.254 546.703 380.743 546.082 373.772C545.771 370.287 545.381 367.174 544.894 364.666C544.413 362.191 543.82 360.203 543.052 359.052L541.888 359.829C542.485 360.724 543.039 362.46 543.52 364.933C543.994 367.374 544.379 370.434 544.687 373.896C545.304 380.817 545.61 389.288 545.727 397.505L547.127 397.485ZM546.366 439.32L547.127 397.508L545.727 397.482L544.966 439.295L546.366 439.32ZM541.043 457.522C542.617 454.025 544.794 447.696 546.354 439.437L544.979 439.177C543.436 447.342 541.289 453.563 539.766 456.947L541.043 457.522ZM530.317 473.71C530.317 466.631 534.58 460.545 540.685 457.876L540.124 456.593C533.528 459.476 528.917 466.054 528.917 473.71H530.317ZM531.37 479.661C530.689 477.807 530.317 475.803 530.317 473.71H528.917C528.917 475.97 529.319 478.137 530.056 480.144L531.37 479.661ZM526.816 483.686C528.359 482.59 529.811 481.509 531.147 480.452L530.279 479.353C528.964 480.393 527.532 481.46 526.005 482.544L526.816 483.686ZM741.527 501.502L724.577 360.223L723.187 360.39L740.137 501.669L741.527 501.502ZM744.215 531.658C743.342 522.03 742.424 511.911 741.53 501.526L740.135 501.646C741.029 512.035 741.947 522.157 742.821 531.785L744.215 531.658ZM744.218 531.722V531.721H742.818V531.722H744.218ZM745.399 611.775C745.932 611.889 746.437 611.77 746.863 611.445C747.26 611.141 747.555 610.685 747.784 610.168C748.241 609.133 748.543 607.601 748.735 605.682C749.123 601.821 749.092 596.119 748.769 588.989C748.121 574.717 746.294 554.574 744.215 531.659L742.821 531.785C744.901 554.714 746.724 574.82 747.37 589.053C747.693 596.175 747.719 601.79 747.342 605.542C747.153 607.43 746.867 608.778 746.503 609.601C746.321 610.013 746.147 610.23 746.013 610.332C745.907 610.413 745.818 610.433 745.692 610.406L745.399 611.775ZM714.325 594.76C721.237 599.25 727.624 603.202 732.958 606.178C738.265 609.139 742.607 611.177 745.399 611.775L745.692 610.406C743.132 609.858 738.961 607.924 733.64 604.955C728.345 602.002 721.988 598.068 715.088 593.586L714.325 594.76ZM590.414 504.946L714.296 594.74L715.117 593.606L591.236 503.812L590.414 504.946ZM564.352 478.982C568.653 485.398 578.672 494.943 590.371 504.912L591.279 503.846C579.562 493.861 569.692 484.434 565.515 478.203L564.352 478.982ZM564.905 473.71C564.905 475.338 564.68 476.911 564.26 478.402L565.607 478.782C566.062 477.169 566.305 475.467 566.305 473.71H564.905ZM563.398 466.646C564.366 468.801 564.905 471.192 564.905 473.71H566.305C566.305 470.99 565.723 468.405 564.675 466.072L563.398 466.646ZM582.365 434.228C573.958 445.665 566.37 457.583 563.376 466.127L564.697 466.59C567.616 458.262 575.088 446.491 583.493 435.057L582.365 434.228ZM687.382 316.601L582.407 434.177L583.451 435.109L688.427 317.534L687.382 316.601ZM707.948 299.705C707.504 299.771 707.006 299.964 706.483 300.229C705.952 300.498 705.352 300.862 704.697 301.306C703.385 302.194 701.808 303.426 700.035 304.921C696.486 307.914 692.106 311.995 687.416 316.566L688.393 317.569C693.075 313.006 697.426 308.952 700.937 305.992C702.693 304.511 704.228 303.314 705.481 302.465C706.108 302.041 706.654 301.711 707.115 301.478C707.585 301.24 707.927 301.124 708.154 301.09L707.948 299.705ZM709.331 300.116C708.986 300.004 708.645 299.88 708.309 299.747L707.793 301.048C708.155 301.192 708.524 301.326 708.898 301.447L709.331 300.116ZM724.572 360.188C722.493 348.097 719.871 334.175 717.23 322.783C715.91 317.089 714.582 312.013 713.312 308.111C712.677 306.16 712.052 304.488 711.445 303.173C710.848 301.881 710.232 300.852 709.585 300.264L708.644 301.3C709.068 301.686 709.588 302.492 710.174 303.76C710.749 305.006 711.355 306.62 711.981 308.544C713.232 312.39 714.549 317.421 715.866 323.099C718.498 334.453 721.116 348.345 723.192 360.425L724.572 360.188ZM680.787 320.13L599.045 411.684L600.089 412.616L681.832 321.063L680.787 320.13ZM698.585 295.129C698.473 295.797 697.941 296.965 696.964 298.601C696.007 300.205 694.676 302.174 693.059 304.412C689.827 308.885 685.482 314.397 680.768 320.153L681.851 321.04C686.572 315.275 690.938 309.739 694.194 305.231C695.822 302.978 697.179 300.973 698.167 299.318C699.135 297.696 699.805 296.32 699.966 295.36L698.585 295.129ZM680.389 296.147C685.985 295.031 690.81 294.297 694.163 294.18C695.853 294.12 697.094 294.222 697.859 294.467C698.241 294.589 698.432 294.724 698.517 294.824C698.577 294.895 698.611 294.973 698.585 295.129L699.966 295.36C700.055 294.826 699.93 294.324 699.582 293.916C699.259 293.537 698.791 293.295 698.286 293.134C697.279 292.811 695.836 292.72 694.114 292.78C690.642 292.902 685.725 293.655 680.115 294.774L680.389 296.147ZM596.898 320.529L680.448 296.132L680.056 294.788L596.505 319.185L596.898 320.529ZM565.859 335.787C568.41 333.484 572.721 330.95 578.161 328.338C583.585 325.733 590.076 323.076 596.946 320.513L596.457 319.201C589.565 321.772 583.031 324.446 577.555 327.076C572.094 329.698 567.63 332.302 564.921 334.748L565.859 335.787ZM559.745 346.685C563.063 343.855 565.379 339.882 566.081 335.375L564.698 335.159C564.049 339.325 561.908 343 558.836 345.62L559.745 346.685ZM549.717 396.217C552.092 378.586 555.6 358.633 559.95 346.387L558.631 345.918C554.227 358.317 550.705 378.4 548.33 396.03L549.717 396.217ZM548.963 437.923L549.723 396.137L548.323 396.111L547.563 437.897L548.963 437.923ZM553.618 455.175C553.306 455.408 553.098 455.441 552.968 455.427C552.832 455.412 552.641 455.33 552.398 455.063C551.888 454.503 551.378 453.379 550.914 451.703C549.998 448.399 549.37 443.393 548.961 437.858L547.565 437.961C547.974 443.508 548.61 448.631 549.565 452.077C550.036 453.777 550.614 455.184 551.363 456.006C551.749 456.43 552.231 456.754 552.814 456.818C553.401 456.883 553.957 456.67 554.457 456.295L553.618 455.175ZM567.79 441.801C560.538 448.934 556.021 453.375 553.618 455.175L554.457 456.295C556.958 454.422 561.57 449.883 568.772 442.799L567.79 441.801ZM567.787 441.804L567.786 441.805L568.776 442.795L568.776 442.795L567.787 441.804ZM567.795 441.796L567.792 441.799L568.771 442.8L568.774 442.797L567.795 441.796ZM599.088 411.639C585.45 424.431 575.216 434.497 567.794 441.798L568.775 442.796C576.197 435.496 586.421 425.44 600.046 412.661L599.088 411.639ZM618.56 311.528L677.306 294.375L676.913 293.031L618.168 310.184L618.56 311.528ZM562.407 322.885C565.738 322.688 574.078 321.141 584.38 319.011C594.709 316.875 607.08 314.138 618.519 311.539L618.209 310.174C606.773 312.772 594.413 315.507 584.096 317.64C573.751 319.779 565.53 321.298 562.324 321.488L562.407 322.885ZM559.601 320.029C560.411 320.808 561.146 321.665 561.792 322.588L562.939 321.785C562.24 320.787 561.446 319.861 560.571 319.019L559.601 320.029ZM560.241 316.425C559.818 317.536 559.52 318.549 559.393 319.423L560.778 319.625C560.885 318.892 561.145 317.985 561.549 316.923L560.241 316.425ZM616.73 231.027L560.311 316.288L561.479 317.06L617.897 231.8L616.73 231.027ZM650.434 198.25C649.561 198.25 648.59 198.559 647.57 199.064C646.541 199.573 645.409 200.308 644.197 201.222C641.774 203.051 638.976 205.643 635.979 208.716C629.981 214.864 623.121 223.001 616.766 230.977L617.861 231.85C624.205 223.886 631.031 215.792 636.981 209.693C639.957 206.642 642.699 204.107 645.041 202.34C646.212 201.456 647.268 200.775 648.191 200.319C649.124 199.857 649.87 199.65 650.434 199.65V198.25ZM674.921 221.657C670.801 215.959 666.212 210.149 661.933 205.756C659.795 203.56 657.716 201.701 655.798 200.386C653.9 199.084 652.066 198.25 650.434 198.25V199.65C651.632 199.65 653.174 200.284 655.006 201.54C656.818 202.783 658.824 204.57 660.93 206.733C665.141 211.055 669.683 216.803 673.787 222.477L674.921 221.657ZM698.831 258.4L674.941 221.685L673.767 222.449L697.657 259.163L698.831 258.4ZM702.607 270.964C702.174 267.086 700.777 262.794 698.884 258.499L697.603 259.064C699.467 263.292 700.805 267.438 701.216 271.12L702.607 270.964ZM697.415 283.086C697.569 278.586 699.446 274.524 702.409 271.535L701.415 270.549C698.213 273.779 696.183 278.172 696.016 283.037L697.415 283.086ZM677.378 294.349C685.382 291.025 692.544 287.365 697.158 283.604L696.273 282.519C691.823 286.146 684.817 289.744 676.841 293.056L677.378 294.349Z" fill="black" mask="url(#path-2-outside-2_1561_5475)"/>
</svg>
