<svg width="1300" height="1301" viewBox="0 0 1300 1301" fill="none" xmlns="http://www.w3.org/2000/svg">
<rect width="1300" height="1300" transform="translate(0 0.758789)" fill="black"/>
<mask id="path-1-outside-1_1672_15470" maskUnits="userSpaceOnUse" x="304.977" y="589.022" width="690" height="550" fill="black">
<rect fill="white" x="304.977" y="589.022" width="690" height="550"/>
<path fill-rule="evenodd" clip-rule="evenodd" d="M958.576 647.781C988.315 709.82 1012.26 808.761 973.535 914.281C971.484 923.617 969.824 932.531 969.333 938.591C971.659 941.62 973.042 945.41 973.042 949.522C973.042 957.927 967.267 964.984 959.465 966.951C958.258 968.203 956.763 969.85 954.716 972.104L954.712 972.109C948.406 979.054 936.872 991.759 912.45 1016.42C802.186 1146.48 646.369 1148.71 562.191 1127.49C559.158 1133.13 553.191 1136.98 546.326 1136.98C536.388 1136.98 528.332 1128.93 528.332 1119C528.332 1118.03 528.409 1117.07 528.557 1116.14C475.605 1094.12 372.985 1037 327.237 916.595C301.522 848.918 302.096 783.076 313.39 728.746C321.635 689.083 335.603 655.514 349.268 631.805C350.414 628.015 351.3 624.383 351.797 621.091C349.654 618.133 348.391 614.496 348.391 610.565C348.391 600.638 356.447 592.59 366.385 592.59C375.883 592.59 383.663 599.942 384.332 609.259L384.379 609.281C386.244 613.379 398.496 625.908 416.049 638.399L596.8 742.16C612.535 749.719 627.914 756.267 637.532 758.612C640.667 755.963 644.721 754.365 649.149 754.365C652.439 754.365 655.524 755.247 658.177 756.788C664.345 755.863 679.954 750.749 707.345 737.105L892.872 625.689C901.516 619.622 909.181 613.814 913.966 609.318C913.934 608.882 913.918 608.442 913.918 607.997C913.918 598.07 921.974 590.022 931.912 590.022C941.85 590.022 949.906 598.07 949.906 607.997C949.906 610.957 949.19 613.75 947.922 616.212C950.496 624.084 954.369 635.667 958.576 647.781ZM963.081 664.058C988.545 724.547 1005.76 812.915 973.37 907.066C968.325 917.403 962.169 925.941 957.21 931.675C956.501 931.59 955.779 931.547 955.048 931.547C951.365 931.547 947.942 932.652 945.09 934.547C934.469 930.599 915.658 921.703 895.742 911.803L696.401 798.963C677.605 786.272 663.49 773.969 668.428 768.488C674.446 761.809 698.909 745.717 722.234 731.16L869.093 642.966C886.14 634.172 907.021 624.915 921.445 622.62C924.394 624.73 928.008 625.972 931.912 625.972C933.778 625.972 935.577 625.689 937.269 625.163C945.872 631.655 955.432 648.156 963.081 664.058ZM700.164 804.044L839.142 882.715C838.344 882.293 837.563 881.879 836.801 881.474C871.075 900.733 939.11 941.048 937.053 948.238C935.817 952.561 915.624 963.289 893.851 973.668L594.422 1099.86C577.783 1105.33 562.93 1108.62 559.179 1104.88C556.711 1102.41 557.295 1093.23 559.543 1080.98L633.887 829.405C641.604 807.859 650.045 790.078 656.86 789.031C663.852 787.957 681.461 795.031 700.164 804.044ZM561.943 1063.79L634.788 817.287C637.994 802.715 639.594 791.823 637.581 790.315C634.727 788.177 627.992 790.153 618.342 795.322L559.828 833.764C544.014 846.329 530.619 857.958 525.458 863.255C525.814 868.314 524.036 873.491 520.136 877.329C519.005 878.442 517.765 879.375 516.449 880.128C514.527 888.407 514.781 903.892 515.816 919.357L543.729 1097.45C544.565 1099.63 545.355 1100.9 546.076 1101.03C546.159 1101.03 546.242 1101.03 546.326 1101.03C548.88 1100.51 555.138 1084.13 561.943 1063.79ZM533.745 1050.36L514.881 929.994C510.937 910.219 505.629 888.307 500.844 881.225C498.597 880.332 496.495 878.969 494.69 877.138C488.751 871.116 487.931 861.969 492.191 855.084C489.958 845.711 475.118 815.36 460.21 786.188L398.312 673.766C385.148 652.19 372.067 632.264 367.67 629.824C358.775 624.888 346.08 645.006 337.766 660.403C329.167 679.99 321.305 703.302 315.907 729.269C304.692 783.217 304.131 848.549 329.64 915.684C366.17 1011.82 439.288 1067.34 493.871 1096.76C508.136 1103.53 523.401 1109.9 530.555 1110.34C531.915 1107.87 533.837 1105.76 536.148 1104.17C537.888 1093.69 536.101 1071.12 533.745 1050.36ZM601.119 1132.11C699.706 1144.5 850.863 1121.05 946.191 965.173C944.833 964.404 943.585 963.464 942.476 962.383C937.309 962.59 926.906 964.331 911.483 969.025L598.204 1101.05C581.938 1109.08 568.176 1116.92 568.176 1120.28C568.176 1124.47 584.813 1128.9 601.119 1132.11ZM408.579 637.072L609.777 752.571C622.277 761.572 631.155 769.893 631.155 774.908C631.155 779.34 626.428 785.22 620.093 791.099L544.305 840.888C535.054 846.037 526.181 850.246 520.014 851.599C515.906 847.629 510.364 845.996 505.076 846.713C500.466 842.927 476.391 806.328 455.963 773.145L400.802 672.959C388.604 649.425 377.973 627.501 380.523 625.972C384.194 623.772 391.64 627.856 400.944 632.96C403.373 634.292 405.93 635.695 408.579 637.072ZM338.098 659.65C339.285 656.965 340.486 654.35 341.696 651.809C340.502 654.526 339.287 657.162 338.098 659.65Z"/>
</mask>
<path fill-rule="evenodd" clip-rule="evenodd" d="M958.576 647.781C988.315 709.82 1012.26 808.761 973.535 914.281C971.484 923.617 969.824 932.531 969.333 938.591C971.659 941.62 973.042 945.41 973.042 949.522C973.042 957.927 967.267 964.984 959.465 966.951C958.258 968.203 956.763 969.85 954.716 972.104L954.712 972.109C948.406 979.054 936.872 991.759 912.45 1016.42C802.186 1146.48 646.369 1148.71 562.191 1127.49C559.158 1133.13 553.191 1136.98 546.326 1136.98C536.388 1136.98 528.332 1128.93 528.332 1119C528.332 1118.03 528.409 1117.07 528.557 1116.14C475.605 1094.12 372.985 1037 327.237 916.595C301.522 848.918 302.096 783.076 313.39 728.746C321.635 689.083 335.603 655.514 349.268 631.805C350.414 628.015 351.3 624.383 351.797 621.091C349.654 618.133 348.391 614.496 348.391 610.565C348.391 600.638 356.447 592.59 366.385 592.59C375.883 592.59 383.663 599.942 384.332 609.259L384.379 609.281C386.244 613.379 398.496 625.908 416.049 638.399L596.8 742.16C612.535 749.719 627.914 756.267 637.532 758.612C640.667 755.963 644.721 754.365 649.149 754.365C652.439 754.365 655.524 755.247 658.177 756.788C664.345 755.863 679.954 750.749 707.345 737.105L892.872 625.689C901.516 619.622 909.181 613.814 913.966 609.318C913.934 608.882 913.918 608.442 913.918 607.997C913.918 598.07 921.974 590.022 931.912 590.022C941.85 590.022 949.906 598.07 949.906 607.997C949.906 610.957 949.19 613.75 947.922 616.212C950.496 624.084 954.369 635.667 958.576 647.781ZM963.081 664.058C988.545 724.547 1005.76 812.915 973.37 907.066C968.325 917.403 962.169 925.941 957.21 931.675C956.501 931.59 955.779 931.547 955.048 931.547C951.365 931.547 947.942 932.652 945.09 934.547C934.469 930.599 915.658 921.703 895.742 911.803L696.401 798.963C677.605 786.272 663.49 773.969 668.428 768.488C674.446 761.809 698.909 745.717 722.234 731.16L869.093 642.966C886.14 634.172 907.021 624.915 921.445 622.62C924.394 624.73 928.008 625.972 931.912 625.972C933.778 625.972 935.577 625.689 937.269 625.163C945.872 631.655 955.432 648.156 963.081 664.058ZM700.164 804.044L839.142 882.715C838.344 882.293 837.563 881.879 836.801 881.474C871.075 900.733 939.11 941.048 937.053 948.238C935.817 952.561 915.624 963.289 893.851 973.668L594.422 1099.86C577.783 1105.33 562.93 1108.62 559.179 1104.88C556.711 1102.41 557.295 1093.23 559.543 1080.98L633.887 829.405C641.604 807.859 650.045 790.078 656.86 789.031C663.852 787.957 681.461 795.031 700.164 804.044ZM561.943 1063.79L634.788 817.287C637.994 802.715 639.594 791.823 637.581 790.315C634.727 788.177 627.992 790.153 618.342 795.322L559.828 833.764C544.014 846.329 530.619 857.958 525.458 863.255C525.814 868.314 524.036 873.491 520.136 877.329C519.005 878.442 517.765 879.375 516.449 880.128C514.527 888.407 514.781 903.892 515.816 919.357L543.729 1097.45C544.565 1099.63 545.355 1100.9 546.076 1101.03C546.159 1101.03 546.242 1101.03 546.326 1101.03C548.88 1100.51 555.138 1084.13 561.943 1063.79ZM533.745 1050.36L514.881 929.994C510.937 910.219 505.629 888.307 500.844 881.225C498.597 880.332 496.495 878.969 494.69 877.138C488.751 871.116 487.931 861.969 492.191 855.084C489.958 845.711 475.118 815.36 460.21 786.188L398.312 673.766C385.148 652.19 372.067 632.264 367.67 629.824C358.775 624.888 346.08 645.006 337.766 660.403C329.167 679.99 321.305 703.302 315.907 729.269C304.692 783.217 304.131 848.549 329.64 915.684C366.17 1011.82 439.288 1067.34 493.871 1096.76C508.136 1103.53 523.401 1109.9 530.555 1110.34C531.915 1107.87 533.837 1105.76 536.148 1104.17C537.888 1093.69 536.101 1071.12 533.745 1050.36ZM601.119 1132.11C699.706 1144.5 850.863 1121.05 946.191 965.173C944.833 964.404 943.585 963.464 942.476 962.383C937.309 962.59 926.906 964.331 911.483 969.025L598.204 1101.05C581.938 1109.08 568.176 1116.92 568.176 1120.28C568.176 1124.47 584.813 1128.9 601.119 1132.11ZM408.579 637.072L609.777 752.571C622.277 761.572 631.155 769.893 631.155 774.908C631.155 779.34 626.428 785.22 620.093 791.099L544.305 840.888C535.054 846.037 526.181 850.246 520.014 851.599C515.906 847.629 510.364 845.996 505.076 846.713C500.466 842.927 476.391 806.328 455.963 773.145L400.802 672.959C388.604 649.425 377.973 627.501 380.523 625.972C384.194 623.772 391.64 627.856 400.944 632.96C403.373 634.292 405.93 635.695 408.579 637.072ZM338.098 659.65C339.285 656.965 340.486 654.35 341.696 651.809C340.502 654.526 339.287 657.162 338.098 659.65Z" fill="white"/>
<path fill-rule="evenodd" clip-rule="evenodd" d="M958.576 647.781C988.315 709.82 1012.26 808.761 973.535 914.281C971.484 923.617 969.824 932.531 969.333 938.591C971.659 941.62 973.042 945.41 973.042 949.522C973.042 957.927 967.267 964.984 959.465 966.951C958.258 968.203 956.763 969.85 954.716 972.104L954.712 972.109C948.406 979.054 936.872 991.759 912.45 1016.42C802.186 1146.48 646.369 1148.71 562.191 1127.49C559.158 1133.13 553.191 1136.98 546.326 1136.98C536.388 1136.98 528.332 1128.93 528.332 1119C528.332 1118.03 528.409 1117.07 528.557 1116.14C475.605 1094.12 372.985 1037 327.237 916.595C301.522 848.918 302.096 783.076 313.39 728.746C321.635 689.083 335.603 655.514 349.268 631.805C350.414 628.015 351.3 624.383 351.797 621.091C349.654 618.133 348.391 614.496 348.391 610.565C348.391 600.638 356.447 592.59 366.385 592.59C375.883 592.59 383.663 599.942 384.332 609.259L384.379 609.281C386.244 613.379 398.496 625.908 416.049 638.399L596.8 742.16C612.535 749.719 627.914 756.267 637.532 758.612C640.667 755.963 644.721 754.365 649.149 754.365C652.439 754.365 655.524 755.247 658.177 756.788C664.345 755.863 679.954 750.749 707.345 737.105L892.872 625.689C901.516 619.622 909.181 613.814 913.966 609.318C913.934 608.882 913.918 608.442 913.918 607.997C913.918 598.07 921.974 590.022 931.912 590.022C941.85 590.022 949.906 598.07 949.906 607.997C949.906 610.957 949.19 613.75 947.922 616.212C950.496 624.084 954.369 635.667 958.576 647.781ZM963.081 664.058C988.545 724.547 1005.76 812.915 973.37 907.066C968.325 917.403 962.169 925.941 957.21 931.675C956.501 931.59 955.779 931.547 955.048 931.547C951.365 931.547 947.942 932.652 945.09 934.547C934.469 930.599 915.658 921.703 895.742 911.803L696.401 798.963C677.605 786.272 663.49 773.969 668.428 768.488C674.446 761.809 698.909 745.717 722.234 731.16L869.093 642.966C886.14 634.172 907.021 624.915 921.445 622.62C924.394 624.73 928.008 625.972 931.912 625.972C933.778 625.972 935.577 625.689 937.269 625.163C945.872 631.655 955.432 648.156 963.081 664.058ZM700.164 804.044L839.142 882.715C838.344 882.293 837.563 881.879 836.801 881.474C871.075 900.733 939.11 941.048 937.053 948.238C935.817 952.561 915.624 963.289 893.851 973.668L594.422 1099.86C577.783 1105.33 562.93 1108.62 559.179 1104.88C556.711 1102.41 557.295 1093.23 559.543 1080.98L633.887 829.405C641.604 807.859 650.045 790.078 656.86 789.031C663.852 787.957 681.461 795.031 700.164 804.044ZM561.943 1063.79L634.788 817.287C637.994 802.715 639.594 791.823 637.581 790.315C634.727 788.177 627.992 790.153 618.342 795.322L559.828 833.764C544.014 846.329 530.619 857.958 525.458 863.255C525.814 868.314 524.036 873.491 520.136 877.329C519.005 878.442 517.765 879.375 516.449 880.128C514.527 888.407 514.781 903.892 515.816 919.357L543.729 1097.45C544.565 1099.63 545.355 1100.9 546.076 1101.03C546.159 1101.03 546.242 1101.03 546.326 1101.03C548.88 1100.51 555.138 1084.13 561.943 1063.79ZM533.745 1050.36L514.881 929.994C510.937 910.219 505.629 888.307 500.844 881.225C498.597 880.332 496.495 878.969 494.69 877.138C488.751 871.116 487.931 861.969 492.191 855.084C489.958 845.711 475.118 815.36 460.21 786.188L398.312 673.766C385.148 652.19 372.067 632.264 367.67 629.824C358.775 624.888 346.08 645.006 337.766 660.403C329.167 679.99 321.305 703.302 315.907 729.269C304.692 783.217 304.131 848.549 329.64 915.684C366.17 1011.82 439.288 1067.34 493.871 1096.76C508.136 1103.53 523.401 1109.9 530.555 1110.34C531.915 1107.87 533.837 1105.76 536.148 1104.17C537.888 1093.69 536.101 1071.12 533.745 1050.36ZM601.119 1132.11C699.706 1144.5 850.863 1121.05 946.191 965.173C944.833 964.404 943.585 963.464 942.476 962.383C937.309 962.59 926.906 964.331 911.483 969.025L598.204 1101.05C581.938 1109.08 568.176 1116.92 568.176 1120.28C568.176 1124.47 584.813 1128.9 601.119 1132.11ZM408.579 637.072L609.777 752.571C622.277 761.572 631.155 769.893 631.155 774.908C631.155 779.34 626.428 785.22 620.093 791.099L544.305 840.888C535.054 846.037 526.181 850.246 520.014 851.599C515.906 847.629 510.364 845.996 505.076 846.713C500.466 842.927 476.391 806.328 455.963 773.145L400.802 672.959C388.604 649.425 377.973 627.501 380.523 625.972C384.194 623.772 391.64 627.856 400.944 632.96C403.373 634.292 405.93 635.695 408.579 637.072ZM338.098 659.65C339.285 656.965 340.486 654.35 341.696 651.809C340.502 654.526 339.287 657.162 338.098 659.65Z" stroke="white" stroke-width="1.4" mask="url(#path-1-outside-1_1672_15470)"/>
<mask id="path-2-outside-2_1672_15470" maskUnits="userSpaceOnUse" x="389.806" y="162.759" width="519" height="544" fill="black">
<rect fill="white" x="389.806" y="162.759" width="519" height="544"/>
<path fill-rule="evenodd" clip-rule="evenodd" d="M668.428 181.734C668.428 185.613 667.198 189.205 665.107 192.142C667.828 200.126 671.324 210.152 675.033 219.158L688.61 240.023C696.312 247.387 705.875 257.129 713.756 266.497C714.068 266.481 714.383 266.473 714.699 266.473C724.636 266.473 732.693 274.521 732.693 284.448C732.693 288.107 731.598 291.512 729.718 294.351C732.305 302.372 739.639 316.378 748.072 331.125L868.874 515.685C875.372 523.985 881.729 531.076 886.2 533.831C887.269 533.633 888.371 533.53 889.498 533.53C899.436 533.53 907.492 541.577 907.492 551.505C907.492 561.432 899.436 569.48 889.498 569.48C886.383 569.48 883.454 568.689 880.899 567.298C873.624 568.292 861.056 571.393 845.334 578.737L820.97 592.544C802.095 604.91 783.283 618.385 773.819 628.242C773.821 628.341 773.822 628.44 773.822 628.54C773.822 638.467 765.766 646.515 755.828 646.515C751.849 646.515 748.171 645.225 745.192 643.04C738.985 644.032 728.713 646.689 715.914 651.972L674.061 675.581C670.765 678.55 667.77 681.621 665.584 684.461C665.764 685.48 665.858 686.53 665.858 687.601C665.858 697.528 657.801 705.576 647.864 705.576C639.637 705.576 632.699 700.061 630.554 692.53C626.266 686.354 617.282 674.36 606.247 666.358L458.881 581.338C445.493 574.74 430.132 567.806 420.449 565.205C417.31 567.871 413.243 569.48 408.8 569.48C398.862 569.48 390.806 561.432 390.806 551.505C390.806 542.464 397.487 534.982 406.186 533.718L406.229 533.53C408.963 533.871 418.129 527.95 435.295 504.689L518.862 376.839C526.749 362.616 532.312 350.74 533.311 344.15C530.994 341.124 529.617 337.341 529.617 333.237C529.617 323.31 537.673 315.262 547.611 315.262C548.005 315.262 548.397 315.275 548.785 315.3L548.896 315.262C552.463 314.075 560.112 309.715 568.925 300.641L608.384 241.01C617.678 223.794 629.853 200.073 633.752 188.485C632.906 186.4 632.44 184.121 632.44 181.734C632.44 171.806 640.496 163.759 650.434 163.759C660.372 163.759 668.428 171.806 668.428 181.734ZM872.547 557.551C870.668 559.778 868.017 562.204 864.957 564.665L808.848 596.462C789.85 606.305 772.44 614.041 765.122 613.145C764.179 612.576 763.179 612.09 762.133 611.699C757.631 605.865 752.176 566.468 745.571 518.763L744.754 512.866L744.231 509.092L719.96 306.802C720.271 302.858 721.033 300.68 722.41 301.139C724.128 301.711 727.81 305.877 732.553 312.109L865.855 515.765C870.472 526.046 873.187 535.18 874.525 541.532C872.616 544.386 871.504 547.815 871.504 551.505C871.504 553.626 871.872 555.662 872.547 557.551ZM624.025 673.649L448.936 572.635C437.385 564.36 427.583 555.815 426.763 550.446C426.749 550.208 426.731 549.971 426.708 549.735C426.708 549.459 426.736 549.193 426.793 548.937C427.679 544.955 434.162 539.082 442.728 532.9L509.284 496.303C521.81 491.118 530.747 488.43 535.195 487.479C538.424 490.555 542.797 492.444 547.611 492.444C551.901 492.444 555.841 490.944 558.933 488.441C567.388 492.998 580.17 501.235 593.543 510.28L713.304 597.088C727.709 610.234 737.834 622.363 737.834 629.824C737.834 633.495 730.614 639.594 721.081 646.108L688.409 664.538C688.645 664.386 688.879 664.237 689.111 664.092C690.331 663.418 691.577 662.695 692.849 661.922C691.721 662.51 690.46 663.243 689.111 664.092C674.946 671.916 664.26 673.266 657.927 672.698C655.055 670.758 651.592 669.626 647.864 669.626C642.188 669.626 637.126 672.251 633.828 676.352C630.587 675.69 627.278 674.751 624.025 673.649ZM526.411 483.874L429.486 536.767C424.762 538.369 421.418 538.781 420.367 537.381C419.599 536.358 420.57 533.19 422.61 528.792L496.869 415.182C518.832 384.121 539.942 356.411 542.47 360.2C545.2 364.29 546.193 381.806 546.427 398.254L545.666 440.066C544.115 448.278 541.953 454.552 540.405 457.993C534.054 460.769 529.617 467.101 529.617 474.469C529.617 476.645 530.004 478.731 530.713 480.661C529.387 481.71 527.946 482.783 526.411 483.874ZM723.882 361.066L740.832 502.345C741.726 512.731 742.645 522.853 743.518 532.48V532.481C747.677 578.325 750.82 612.978 745.546 611.849C740.194 610.704 728.519 603.904 714.706 594.932L590.825 505.138C579.117 495.161 569.173 485.675 564.933 479.351C565.371 477.799 565.605 476.161 565.605 474.469C565.605 471.85 565.044 469.362 564.036 467.118C566.993 458.681 574.523 446.837 582.929 435.402L687.905 317.826C697.277 308.693 705.367 301.554 708.051 301.156C708.4 301.295 708.755 301.423 709.115 301.541C713.402 305.437 719.727 336.894 723.882 361.066ZM599.567 412.909L681.309 321.355C690.744 309.834 698.732 299.26 699.275 296.003C699.735 293.245 691.458 293.985 680.252 296.219L596.702 320.616C582.94 325.75 570.65 331.278 565.39 336.026C564.714 340.363 562.485 344.186 559.29 346.912C554.913 359.234 551.398 379.252 549.023 396.883L548.263 438.669C549.081 449.75 550.79 458.927 554.037 456.494C556.489 454.657 561.054 450.167 568.281 443.059L568.281 443.058L568.284 443.055C575.706 435.755 585.935 425.694 599.567 412.909ZM677.109 294.461L618.364 311.615C595.489 316.812 568.903 322.559 562.365 322.945C561.693 321.985 560.929 321.093 560.086 320.283C560.203 319.48 560.482 318.519 560.895 317.433L617.314 232.172C630.013 216.233 644.684 199.709 650.434 199.709C656.092 199.709 666.13 211.454 674.354 222.826L698.244 259.54C700.122 263.802 701.489 268.021 701.912 271.801C698.83 274.91 696.876 279.138 696.715 283.82C692.183 287.514 685.1 291.143 677.109 294.461Z"/>
</mask>
<path fill-rule="evenodd" clip-rule="evenodd" d="M668.428 181.734C668.428 185.613 667.198 189.205 665.107 192.142C667.828 200.126 671.324 210.152 675.033 219.158L688.61 240.023C696.312 247.387 705.875 257.129 713.756 266.497C714.068 266.481 714.383 266.473 714.699 266.473C724.636 266.473 732.693 274.521 732.693 284.448C732.693 288.107 731.598 291.512 729.718 294.351C732.305 302.372 739.639 316.378 748.072 331.125L868.874 515.685C875.372 523.985 881.729 531.076 886.2 533.831C887.269 533.633 888.371 533.53 889.498 533.53C899.436 533.53 907.492 541.577 907.492 551.505C907.492 561.432 899.436 569.48 889.498 569.48C886.383 569.48 883.454 568.689 880.899 567.298C873.624 568.292 861.056 571.393 845.334 578.737L820.97 592.544C802.095 604.91 783.283 618.385 773.819 628.242C773.821 628.341 773.822 628.44 773.822 628.54C773.822 638.467 765.766 646.515 755.828 646.515C751.849 646.515 748.171 645.225 745.192 643.04C738.985 644.032 728.713 646.689 715.914 651.972L674.061 675.581C670.765 678.55 667.77 681.621 665.584 684.461C665.764 685.48 665.858 686.53 665.858 687.601C665.858 697.528 657.801 705.576 647.864 705.576C639.637 705.576 632.699 700.061 630.554 692.53C626.266 686.354 617.282 674.36 606.247 666.358L458.881 581.338C445.493 574.74 430.132 567.806 420.449 565.205C417.31 567.871 413.243 569.48 408.8 569.48C398.862 569.48 390.806 561.432 390.806 551.505C390.806 542.464 397.487 534.982 406.186 533.718L406.229 533.53C408.963 533.871 418.129 527.95 435.295 504.689L518.862 376.839C526.749 362.616 532.312 350.74 533.311 344.15C530.994 341.124 529.617 337.341 529.617 333.237C529.617 323.31 537.673 315.262 547.611 315.262C548.005 315.262 548.397 315.275 548.785 315.3L548.896 315.262C552.463 314.075 560.112 309.715 568.925 300.641L608.384 241.01C617.678 223.794 629.853 200.073 633.752 188.485C632.906 186.4 632.44 184.121 632.44 181.734C632.44 171.806 640.496 163.759 650.434 163.759C660.372 163.759 668.428 171.806 668.428 181.734ZM872.547 557.551C870.668 559.778 868.017 562.204 864.957 564.665L808.848 596.462C789.85 606.305 772.44 614.041 765.122 613.145C764.179 612.576 763.179 612.09 762.133 611.699C757.631 605.865 752.176 566.468 745.571 518.763L744.754 512.866L744.231 509.092L719.96 306.802C720.271 302.858 721.033 300.68 722.41 301.139C724.128 301.711 727.81 305.877 732.553 312.109L865.855 515.765C870.472 526.046 873.187 535.18 874.525 541.532C872.616 544.386 871.504 547.815 871.504 551.505C871.504 553.626 871.872 555.662 872.547 557.551ZM624.025 673.649L448.936 572.635C437.385 564.36 427.583 555.815 426.763 550.446C426.749 550.208 426.731 549.971 426.708 549.735C426.708 549.459 426.736 549.193 426.793 548.937C427.679 544.955 434.162 539.082 442.728 532.9L509.284 496.303C521.81 491.118 530.747 488.43 535.195 487.479C538.424 490.555 542.797 492.444 547.611 492.444C551.901 492.444 555.841 490.944 558.933 488.441C567.388 492.998 580.17 501.235 593.543 510.28L713.304 597.088C727.709 610.234 737.834 622.363 737.834 629.824C737.834 633.495 730.614 639.594 721.081 646.108L688.409 664.538C688.645 664.386 688.879 664.237 689.111 664.092C690.331 663.418 691.577 662.695 692.849 661.922C691.721 662.51 690.46 663.243 689.111 664.092C674.946 671.916 664.26 673.266 657.927 672.698C655.055 670.758 651.592 669.626 647.864 669.626C642.188 669.626 637.126 672.251 633.828 676.352C630.587 675.69 627.278 674.751 624.025 673.649ZM526.411 483.874L429.486 536.767C424.762 538.369 421.418 538.781 420.367 537.381C419.599 536.358 420.57 533.19 422.61 528.792L496.869 415.182C518.832 384.121 539.942 356.411 542.47 360.2C545.2 364.29 546.193 381.806 546.427 398.254L545.666 440.066C544.115 448.278 541.953 454.552 540.405 457.993C534.054 460.769 529.617 467.101 529.617 474.469C529.617 476.645 530.004 478.731 530.713 480.661C529.387 481.71 527.946 482.783 526.411 483.874ZM723.882 361.066L740.832 502.345C741.726 512.731 742.645 522.853 743.518 532.48V532.481C747.677 578.325 750.82 612.978 745.546 611.849C740.194 610.704 728.519 603.904 714.706 594.932L590.825 505.138C579.117 495.161 569.173 485.675 564.933 479.351C565.371 477.799 565.605 476.161 565.605 474.469C565.605 471.85 565.044 469.362 564.036 467.118C566.993 458.681 574.523 446.837 582.929 435.402L687.905 317.826C697.277 308.693 705.367 301.554 708.051 301.156C708.4 301.295 708.755 301.423 709.115 301.541C713.402 305.437 719.727 336.894 723.882 361.066ZM599.567 412.909L681.309 321.355C690.744 309.834 698.732 299.26 699.275 296.003C699.735 293.245 691.458 293.985 680.252 296.219L596.702 320.616C582.94 325.75 570.65 331.278 565.39 336.026C564.714 340.363 562.485 344.186 559.29 346.912C554.913 359.234 551.398 379.252 549.023 396.883L548.263 438.669C549.081 449.75 550.79 458.927 554.037 456.494C556.489 454.657 561.054 450.167 568.281 443.059L568.281 443.058L568.284 443.055C575.706 435.755 585.935 425.694 599.567 412.909ZM677.109 294.461L618.364 311.615C595.489 316.812 568.903 322.559 562.365 322.945C561.693 321.985 560.929 321.093 560.086 320.283C560.203 319.48 560.482 318.519 560.895 317.433L617.314 232.172C630.013 216.233 644.684 199.709 650.434 199.709C656.092 199.709 666.13 211.454 674.354 222.826L698.244 259.54C700.122 263.802 701.489 268.021 701.912 271.801C698.83 274.91 696.876 279.138 696.715 283.82C692.183 287.514 685.1 291.143 677.109 294.461Z" fill="white"/>
<path d="M665.107 192.142L664.537 191.735L664.328 192.028L664.444 192.367L665.107 192.142ZM675.033 219.158L674.386 219.425L674.411 219.485L674.447 219.54L675.033 219.158ZM688.61 240.023L688.023 240.405L688.068 240.473L688.126 240.529L688.61 240.023ZM713.756 266.497L713.221 266.948L713.445 267.214L713.792 267.196L713.756 266.497ZM729.718 294.351L729.134 293.965L728.948 294.246L729.051 294.566L729.718 294.351ZM748.072 331.125L747.464 331.473L747.474 331.491L747.486 331.508L748.072 331.125ZM868.874 515.685L868.288 516.069L868.304 516.093L868.323 516.117L868.874 515.685ZM886.2 533.831L885.833 534.427L886.062 534.568L886.327 534.519L886.2 533.831ZM880.899 567.298L881.234 566.683L881.032 566.573L880.804 566.605L880.899 567.298ZM845.334 578.737L845.038 578.103L845.013 578.115L844.989 578.128L845.334 578.737ZM820.97 592.544L820.625 591.935L820.605 591.946L820.586 591.959L820.97 592.544ZM773.819 628.242L773.315 627.757L773.115 627.965L773.12 628.253L773.819 628.242ZM745.192 643.04L745.605 642.476L745.37 642.303L745.081 642.349L745.192 643.04ZM715.914 651.972L715.647 651.325L715.607 651.341L715.57 651.362L715.914 651.972ZM674.061 675.581L673.717 674.971L673.65 675.009L673.592 675.061L674.061 675.581ZM665.584 684.461L665.029 684.034L664.841 684.278L664.895 684.582L665.584 684.461ZM630.554 692.53L631.228 692.338L631.196 692.226L631.129 692.131L630.554 692.53ZM606.247 666.358L606.658 665.791L606.628 665.769L606.597 665.751L606.247 666.358ZM458.881 581.338L459.231 580.732L459.211 580.721L459.191 580.71L458.881 581.338ZM420.449 565.205L420.631 564.529L420.276 564.433L419.996 564.671L420.449 565.205ZM406.186 533.718L406.287 534.411L406.764 534.341L406.869 533.872L406.186 533.718ZM406.229 533.53L406.315 532.835L405.685 532.756L405.546 533.376L406.229 533.53ZM435.295 504.689L435.858 505.104L435.87 505.088L435.881 505.072L435.295 504.689ZM518.862 376.839L519.447 377.222L519.461 377.201L519.474 377.178L518.862 376.839ZM533.311 344.15L534.004 344.255L534.048 343.961L533.867 343.724L533.311 344.15ZM548.785 315.3L548.74 315.998L548.879 316.007L549.01 315.963L548.785 315.3ZM548.896 315.262L548.675 314.598L548.671 314.599L548.896 315.262ZM568.925 300.641L569.427 301.129L569.473 301.082L569.509 301.027L568.925 300.641ZM608.384 241.01L608.968 241.396L608.985 241.37L609 241.343L608.384 241.01ZM633.752 188.485L634.416 188.708L634.498 188.462L634.401 188.221L633.752 188.485ZM864.957 564.665L865.302 565.274L865.351 565.246L865.395 565.21L864.957 564.665ZM872.547 557.551L873.082 558.003L873.342 557.695L873.207 557.316L872.547 557.551ZM808.848 596.462L809.17 597.083L809.182 597.077L809.193 597.071L808.848 596.462ZM765.122 613.145L764.76 613.745L764.888 613.822L765.037 613.84L765.122 613.145ZM762.133 611.699L761.579 612.127L761.701 612.285L761.888 612.355L762.133 611.699ZM745.571 518.763L746.264 518.667V518.666L745.571 518.763ZM744.754 512.866L745.447 512.77V512.77L744.754 512.866ZM744.231 509.092L743.535 509.175L743.537 509.188L744.231 509.092ZM719.96 306.802L719.263 306.747L719.257 306.817L719.265 306.886L719.96 306.802ZM722.41 301.139L722.189 301.803L722.41 301.139ZM732.553 312.109L733.139 311.725L733.125 311.705L733.11 311.685L732.553 312.109ZM865.855 515.765L866.493 515.478L866.471 515.428L866.44 515.382L865.855 515.765ZM874.525 541.532L875.107 541.921L875.27 541.676L875.21 541.388L874.525 541.532ZM448.936 572.635L448.529 573.204L448.557 573.225L448.587 573.242L448.936 572.635ZM624.025 673.649L623.675 674.255L623.735 674.29L623.8 674.312L624.025 673.649ZM426.763 550.446L426.064 550.487L426.066 550.52L426.071 550.552L426.763 550.446ZM426.708 549.735L426.008 549.733L426.008 549.768L426.011 549.803L426.708 549.735ZM426.793 548.937L427.477 549.089L426.793 548.937ZM442.728 532.9L442.391 532.287L442.353 532.308L442.319 532.333L442.728 532.9ZM509.284 496.303L509.016 495.656L508.98 495.671L508.947 495.69L509.284 496.303ZM535.195 487.479L535.678 486.972L535.41 486.717L535.048 486.795L535.195 487.479ZM558.933 488.441L559.265 487.825L558.854 487.604L558.492 487.897L558.933 488.441ZM593.543 510.28L593.954 509.714L593.945 509.707L593.935 509.701L593.543 510.28ZM713.304 597.088L713.776 596.571L713.747 596.544L713.715 596.521L713.304 597.088ZM721.081 646.108L721.424 646.718L721.451 646.703L721.475 646.686L721.081 646.108ZM688.409 664.538L688.03 663.95L688.753 665.148L688.409 664.538ZM692.849 661.922L693.212 662.52L692.525 661.302L692.849 661.922ZM657.927 672.698L657.536 673.278L657.685 673.379L657.865 673.395L657.927 672.698ZM633.828 676.352L633.688 677.037L634.106 677.123L634.373 676.79L633.828 676.352ZM429.486 536.767L429.711 537.43L429.768 537.411L429.822 537.382L429.486 536.767ZM526.411 483.874L526.746 484.488L526.782 484.469L526.816 484.445L526.411 483.874ZM420.367 537.381L420.927 536.961H420.927L420.367 537.381ZM422.61 528.792L422.024 528.409L421.996 528.451L421.975 528.497L422.61 528.792ZM496.869 415.182L496.298 414.778L496.29 414.788L496.283 414.799L496.869 415.182ZM542.47 360.2L543.052 359.811V359.811L542.47 360.2ZM546.427 398.254L547.127 398.267L547.127 398.255L547.127 398.244L546.427 398.254ZM545.666 440.066L546.354 440.196L546.365 440.138L546.366 440.079L545.666 440.066ZM540.405 457.993L540.685 458.635L540.932 458.527L541.043 458.281L540.405 457.993ZM530.713 480.661L531.147 481.21L531.545 480.896L531.37 480.42L530.713 480.661ZM740.832 502.345L741.53 502.285L741.529 502.273L741.527 502.261L740.832 502.345ZM723.882 361.066L724.577 360.982L724.575 360.965L724.572 360.947L723.882 361.066ZM743.518 532.48H744.218V532.448L744.215 532.417L743.518 532.48ZM743.518 532.481H742.818V532.512L742.821 532.544L743.518 532.481ZM745.546 611.849L745.399 612.534L745.546 611.849ZM714.706 594.932L714.296 595.499L714.31 595.509L714.325 595.519L714.706 594.932ZM590.825 505.138L590.371 505.67L590.392 505.688L590.414 505.704L590.825 505.138ZM564.933 479.351L564.26 479.161L564.172 479.472L564.352 479.741L564.933 479.351ZM564.036 467.118L563.376 466.886L563.283 467.15L563.398 467.405L564.036 467.118ZM582.929 435.402L582.407 434.935L582.384 434.96L582.365 434.987L582.929 435.402ZM687.905 317.826L687.416 317.325L687.399 317.342L687.382 317.36L687.905 317.826ZM708.051 301.156L708.309 300.506L708.135 300.436L707.948 300.464L708.051 301.156ZM709.115 301.541L709.585 301.022L709.474 300.921L709.331 300.875L709.115 301.541ZM681.309 321.355L681.832 321.821L681.841 321.81L681.851 321.799L681.309 321.355ZM599.567 412.909L600.046 413.419L600.068 413.398L600.089 413.375L599.567 412.909ZM699.275 296.003L698.585 295.888L699.275 296.003ZM680.252 296.219L680.115 295.533L680.085 295.539L680.056 295.547L680.252 296.219ZM596.702 320.616L596.505 319.944L596.481 319.951L596.457 319.96L596.702 320.616ZM565.39 336.026L564.921 335.506L564.736 335.673L564.698 335.918L565.39 336.026ZM559.29 346.912L558.836 346.379L558.694 346.501L558.631 346.677L559.29 346.912ZM549.023 396.883L548.33 396.789L548.324 396.829L548.323 396.87L549.023 396.883ZM548.263 438.669L547.563 438.656L547.562 438.688L547.565 438.72L548.263 438.669ZM554.037 456.494L553.618 455.934L554.037 456.494ZM568.281 443.059L568.772 443.558L568.776 443.554L568.281 443.059ZM568.281 443.058L567.792 442.558L567.787 442.563L568.281 443.058ZM568.284 443.055L568.774 443.556L568.775 443.554L568.284 443.055ZM618.364 311.615L618.519 312.298L618.54 312.293L618.56 312.287L618.364 311.615ZM677.109 294.461L677.306 295.133L677.342 295.123L677.378 295.108L677.109 294.461ZM562.365 322.945L561.792 323.347L562.016 323.667L562.407 323.644L562.365 322.945ZM560.086 320.283L559.393 320.182L559.341 320.538L559.601 320.788L560.086 320.283ZM560.895 317.433L560.311 317.047L560.268 317.111L560.241 317.184L560.895 317.433ZM617.314 232.172L616.766 231.736L616.747 231.76L616.73 231.786L617.314 232.172ZM674.354 222.826L674.941 222.444L674.931 222.43L674.921 222.416L674.354 222.826ZM698.244 259.54L698.884 259.258L698.862 259.206L698.831 259.159L698.244 259.54ZM701.912 271.801L702.409 272.294L702.645 272.056L702.607 271.723L701.912 271.801ZM696.715 283.82L697.158 284.363L697.404 284.162L697.415 283.844L696.715 283.82ZM665.677 192.548C667.85 189.496 669.128 185.763 669.128 181.734H667.728C667.728 185.462 666.546 188.913 664.537 191.735L665.677 192.548ZM675.681 218.891C671.98 209.907 668.49 199.899 665.769 191.916L664.444 192.367C667.166 200.353 670.668 210.396 674.386 219.425L675.681 218.891ZM689.197 239.641L675.62 218.776L674.447 219.54L688.023 240.405L689.197 239.641ZM714.292 266.046C706.388 256.652 696.806 246.892 689.094 239.517L688.126 240.529C695.818 247.883 705.361 257.606 713.221 266.948L714.292 266.046ZM714.699 265.773C714.37 265.773 714.044 265.781 713.72 265.798L713.792 267.196C714.092 267.181 714.395 267.173 714.699 267.173V265.773ZM733.393 284.448C733.393 274.133 725.022 265.773 714.699 265.773V267.173C724.251 267.173 731.993 274.908 731.993 284.448H733.393ZM730.301 294.738C732.255 291.787 733.393 288.249 733.393 284.448H731.993C731.993 287.966 730.941 291.236 729.134 293.965L730.301 294.738ZM748.679 330.778C740.24 316.019 732.945 302.076 730.384 294.136L729.051 294.566C731.665 302.668 739.038 316.737 747.464 331.473L748.679 330.778ZM869.459 515.302L748.657 330.742L747.486 331.508L868.288 516.069L869.459 515.302ZM868.323 516.117C871.579 520.276 874.807 524.141 877.787 527.316C880.757 530.482 883.516 532.999 885.833 534.427L886.567 533.235C884.413 531.908 881.758 529.502 878.807 526.358C875.866 523.224 872.667 519.394 869.425 515.254L868.323 516.117ZM889.498 532.83C888.328 532.83 887.183 532.937 886.072 533.143L886.327 534.519C887.354 534.329 888.414 534.23 889.498 534.23V532.83ZM908.192 551.505C908.192 541.19 899.822 532.83 889.498 532.83V534.23C899.05 534.23 906.792 541.965 906.792 551.505H908.192ZM889.498 570.18C899.822 570.18 908.192 561.819 908.192 551.505H906.792C906.792 561.045 899.05 568.78 889.498 568.78V570.18ZM880.564 567.913C883.219 569.358 886.264 570.18 889.498 570.18V568.78C886.503 568.78 883.688 568.02 881.234 566.683L880.564 567.913ZM880.804 566.605C873.453 567.609 860.817 570.731 845.038 578.103L845.63 579.371C861.294 572.054 873.795 568.975 880.994 567.992L880.804 566.605ZM821.315 593.153L845.679 579.346L844.989 578.128L820.625 591.935L821.315 593.153ZM774.324 628.727C783.726 618.935 802.472 605.5 821.354 593.13L820.586 591.959C801.718 604.321 782.841 617.835 773.315 627.757L774.324 628.727ZM774.522 628.54C774.522 628.437 774.521 628.333 774.519 628.23L773.12 628.253C773.121 628.349 773.122 628.444 773.122 628.54H774.522ZM755.828 647.215C766.152 647.215 774.522 638.855 774.522 628.54H773.122C773.122 638.08 765.38 645.815 755.828 645.815V647.215ZM744.778 643.605C747.873 645.874 751.695 647.215 755.828 647.215V645.815C752.002 645.815 748.469 644.575 745.605 642.476L744.778 643.605ZM716.181 652.619C728.939 647.353 739.158 644.713 745.302 643.732L745.081 642.349C738.812 643.35 728.487 646.025 715.647 651.325L716.181 652.619ZM674.405 676.191L716.258 652.581L715.57 651.362L673.717 674.971L674.405 676.191ZM666.139 684.888C668.289 682.093 671.251 679.054 674.529 676.101L673.592 675.061C670.279 678.046 667.251 681.148 665.029 684.034L666.139 684.888ZM666.558 687.601C666.558 686.489 666.46 685.399 666.273 684.339L664.895 684.582C665.067 685.562 665.158 686.571 665.158 687.601H666.558ZM647.864 706.276C658.187 706.276 666.558 697.915 666.558 687.601H665.158C665.158 697.141 657.415 704.876 647.864 704.876V706.276ZM629.881 692.722C632.11 700.546 639.316 706.276 647.864 706.276V704.876C639.957 704.876 633.289 699.576 631.228 692.338L629.881 692.722ZM605.836 666.924C616.771 674.854 625.699 686.766 629.979 692.929L631.129 692.131C626.833 685.943 617.793 673.866 606.658 665.791L605.836 666.924ZM458.532 581.945L605.897 666.964L606.597 665.751L459.231 580.732L458.532 581.945ZM420.268 565.881C429.875 568.462 445.178 575.365 458.572 581.966L459.191 580.71C445.808 574.114 430.389 567.15 420.631 564.529L420.268 565.881ZM408.8 570.18C413.415 570.18 417.641 568.508 420.902 565.738L419.996 564.671C416.979 567.234 413.071 568.78 408.8 568.78V570.18ZM390.106 551.505C390.106 561.819 398.476 570.18 408.8 570.18V568.78C399.248 568.78 391.506 561.045 391.506 551.505H390.106ZM406.086 533.025C397.048 534.339 390.106 542.111 390.106 551.505H391.506C391.506 542.817 397.926 535.626 406.287 534.411L406.086 533.025ZM405.546 533.376L405.503 533.564L406.869 533.872L406.912 533.683L405.546 533.376ZM434.731 504.273C426.164 515.883 419.612 523.139 414.879 527.442C412.512 529.595 410.614 530.995 409.16 531.832C407.671 532.689 406.758 532.89 406.315 532.835L406.142 534.224C407.066 534.34 408.325 533.928 409.859 533.045C411.429 532.141 413.409 530.671 415.821 528.478C420.646 524.091 427.26 516.756 435.858 505.104L434.731 504.273ZM518.276 376.456L434.709 504.306L435.881 505.072L519.447 377.222L518.276 376.456ZM532.619 344.045C532.135 347.24 530.528 351.784 528.031 357.345C525.54 362.891 522.188 369.397 518.249 376.5L519.474 377.178C523.422 370.058 526.795 363.514 529.308 357.919C531.814 352.338 533.489 347.649 534.004 344.255L532.619 344.045ZM528.917 333.237C528.917 337.5 530.348 341.432 532.756 344.576L533.867 343.724C531.64 340.816 530.317 337.182 530.317 333.237H528.917ZM547.611 314.562C537.287 314.562 528.917 322.922 528.917 333.237H530.317C530.317 323.697 538.059 315.962 547.611 315.962V314.562ZM548.83 314.601C548.427 314.575 548.02 314.562 547.611 314.562V315.962C547.99 315.962 548.367 315.974 548.74 315.998L548.83 314.601ZM548.671 314.599L548.56 314.637L549.01 315.963L549.121 315.925L548.671 314.599ZM568.423 300.153C559.658 309.177 552.101 313.457 548.675 314.598L549.117 315.926C552.824 314.692 560.565 310.253 569.427 301.129L568.423 300.153ZM607.8 240.624L568.341 300.255L569.509 301.027L608.968 241.396L607.8 240.624ZM633.089 188.262C629.213 199.782 617.07 223.446 607.768 240.677L609 241.343C618.285 224.142 630.494 200.365 634.416 188.708L633.089 188.262ZM631.74 181.734C631.74 184.213 632.224 186.581 633.104 188.748L634.401 188.221C633.588 186.219 633.14 184.03 633.14 181.734H631.74ZM650.434 163.059C640.11 163.059 631.74 171.419 631.74 181.734H633.14C633.14 172.194 640.882 164.459 650.434 164.459V163.059ZM669.128 181.734C669.128 171.419 660.758 163.059 650.434 163.059V164.459C659.986 164.459 667.728 172.194 667.728 181.734H669.128ZM865.395 565.21C868.471 562.737 871.162 560.279 873.082 558.003L872.012 557.1C870.175 559.277 867.562 561.671 864.518 564.119L865.395 565.21ZM809.193 597.071L865.302 565.274L864.611 564.056L808.503 595.853L809.193 597.071ZM765.037 613.84C766.997 614.08 769.559 613.739 772.543 612.979C775.542 612.216 779.029 611.013 782.865 609.481C790.538 606.416 799.664 602.009 809.17 597.083L808.526 595.84C799.034 600.758 789.956 605.141 782.346 608.181C778.54 609.701 775.115 610.88 772.197 611.622C769.265 612.369 766.906 612.659 765.207 612.451L765.037 613.84ZM761.888 612.355C762.893 612.731 763.854 613.197 764.76 613.745L765.484 612.546C764.504 611.955 763.465 611.45 762.378 611.044L761.888 612.355ZM744.877 518.859C748.179 542.707 751.196 564.494 753.95 581.047C755.327 589.323 756.64 596.304 757.893 601.587C758.52 604.228 759.134 606.456 759.737 608.215C760.334 609.955 760.941 611.301 761.579 612.127L762.687 611.272C762.199 610.639 761.651 609.478 761.062 607.761C760.479 606.062 759.877 603.882 759.256 601.264C758.013 596.028 756.706 589.084 755.331 580.818C752.581 564.287 749.567 542.523 746.264 518.667L744.877 518.859ZM744.061 512.962L744.877 518.859L746.264 518.666L745.447 512.77L744.061 512.962ZM743.537 509.188L744.061 512.962L745.447 512.77L744.924 508.996L743.537 509.188ZM719.265 306.886L743.536 509.175L744.926 509.009L720.655 306.719L719.265 306.886ZM722.631 300.475C722.078 300.291 721.532 300.371 721.072 300.714C720.654 301.026 720.359 301.514 720.138 302.054C719.693 303.14 719.419 304.762 719.263 306.747L720.658 306.857C720.812 304.898 721.075 303.459 721.433 302.585C721.613 302.145 721.786 301.928 721.909 301.837C721.988 301.778 722.054 301.758 722.189 301.803L722.631 300.475ZM733.11 311.685C730.734 308.562 728.613 305.944 726.864 304.029C725.99 303.072 725.199 302.281 724.509 301.687C723.836 301.108 723.197 300.663 722.631 300.475L722.189 301.803C722.482 301.901 722.948 302.191 723.596 302.749C724.227 303.291 724.976 304.038 725.83 304.973C727.538 306.843 729.63 309.423 731.996 312.533L733.11 311.685ZM866.44 515.382L733.139 311.725L731.968 312.492L865.269 516.148L866.44 515.382ZM875.21 541.388C873.862 534.986 871.131 525.805 866.493 515.478L865.216 516.052C869.813 526.288 872.513 535.374 873.84 541.677L875.21 541.388ZM872.204 551.505C872.204 547.958 873.273 544.663 875.107 541.921L873.943 541.143C871.96 544.108 870.804 547.673 870.804 551.505H872.204ZM873.207 557.316C872.558 555.501 872.204 553.545 872.204 551.505H870.804C870.804 553.708 871.186 555.823 871.888 557.787L873.207 557.316ZM448.587 573.242L623.675 674.255L624.375 673.043L449.286 572.029L448.587 573.242ZM426.071 550.552C426.301 552.055 427.141 553.703 428.381 555.424C429.629 557.156 431.325 559.018 433.34 560.956C437.372 564.831 442.741 569.058 448.529 573.204L449.344 572.066C443.58 567.937 438.273 563.754 434.31 559.946C432.329 558.042 430.698 556.244 429.517 554.605C428.328 552.955 427.635 551.522 427.455 550.341L426.071 550.552ZM426.011 549.803C426.033 550.03 426.051 550.258 426.064 550.487L427.462 550.406C427.448 550.158 427.428 549.912 427.404 549.667L426.011 549.803ZM426.11 548.785C426.041 549.094 426.008 549.411 426.008 549.733L427.408 549.736C427.408 549.507 427.432 549.292 427.477 549.089L426.11 548.785ZM442.319 532.333C438.023 535.433 434.229 538.47 431.391 541.243C429.973 542.629 428.781 543.961 427.884 545.212C426.991 546.457 426.36 547.659 426.11 548.785L427.477 549.089C427.669 548.223 428.182 547.198 429.021 546.028C429.856 544.865 430.987 543.596 432.37 542.244C435.137 539.54 438.868 536.549 443.138 533.468L442.319 532.333ZM508.947 495.69L442.391 532.287L443.066 533.514L509.621 496.916L508.947 495.69ZM535.048 486.795C530.544 487.758 521.565 490.462 509.016 495.656L509.552 496.95C522.056 491.774 530.949 489.103 535.341 488.164L535.048 486.795ZM547.611 491.744C542.983 491.744 538.782 489.929 535.678 486.972L534.712 487.986C538.066 491.181 542.61 493.144 547.611 493.144V491.744ZM558.492 487.897C555.52 490.303 551.735 491.744 547.611 491.744V493.144C552.067 493.144 556.161 491.586 559.373 488.985L558.492 487.897ZM593.935 509.701C580.563 500.655 567.754 492.401 559.265 487.825L558.6 489.057C567.021 493.596 579.778 501.815 593.151 510.86L593.935 509.701ZM713.715 596.521L593.954 509.714L593.132 510.847L712.893 597.655L713.715 596.521ZM738.534 629.824C738.534 627.81 737.854 625.543 736.655 623.102C735.453 620.654 733.708 617.987 731.525 615.16C727.158 609.507 720.993 603.157 713.776 596.571L712.832 597.605C720.02 604.165 726.12 610.453 730.417 616.016C732.565 618.797 734.252 621.383 735.398 623.719C736.548 626.061 737.134 628.108 737.134 629.824H738.534ZM721.475 646.686C726.252 643.422 730.475 640.245 733.51 637.412C735.027 635.995 736.267 634.647 737.132 633.4C737.987 632.169 738.534 630.955 738.534 629.824H737.134C737.134 630.529 736.779 631.454 735.982 632.602C735.195 633.735 734.034 635.007 732.555 636.388C729.597 639.15 725.442 642.28 720.686 645.53L721.475 646.686ZM688.753 665.148L721.424 646.718L720.737 645.498L688.065 663.928L688.753 665.148ZM688.738 663.499C688.504 663.646 688.268 663.796 688.03 663.95L688.788 665.127C689.022 664.976 689.254 664.828 689.483 664.684L688.738 663.499ZM689.449 664.704C690.678 664.025 691.933 663.298 693.212 662.52L692.485 661.324C691.222 662.092 689.984 662.81 688.772 663.479L689.449 664.704ZM692.525 661.302C691.376 661.9 690.099 662.643 688.738 663.499L689.483 664.684C690.821 663.843 692.065 663.12 693.172 662.543L692.525 661.302ZM657.865 673.395C664.361 673.978 675.185 672.583 689.449 664.704L688.772 663.479C674.707 671.248 664.159 672.554 657.99 672.001L657.865 673.395ZM647.864 670.326C651.448 670.326 654.775 671.414 657.536 673.278L658.319 672.118C655.334 670.103 651.735 668.926 647.864 668.926V670.326ZM634.373 676.79C637.544 672.848 642.409 670.326 647.864 670.326V668.926C641.967 668.926 636.708 671.654 633.283 675.913L634.373 676.79ZM623.8 674.312C627.075 675.422 630.413 676.368 633.688 677.037L633.968 675.666C630.762 675.011 627.481 674.081 624.25 672.986L623.8 674.312ZM429.822 537.382L526.746 484.488L526.075 483.259L429.151 536.153L429.822 537.382ZM419.808 537.802C420.573 538.821 422.028 539.028 423.607 538.897C425.249 538.762 427.329 538.237 429.711 537.43L429.262 536.104C426.919 536.898 424.965 537.381 423.492 537.502C421.955 537.629 421.213 537.342 420.927 536.961L419.808 537.802ZM421.975 528.497C420.949 530.709 420.177 532.642 419.76 534.168C419.552 534.929 419.424 535.618 419.407 536.206C419.39 536.776 419.474 537.358 419.808 537.802L420.927 536.961C420.876 536.893 420.793 536.696 420.806 536.246C420.819 535.815 420.917 535.245 421.111 534.537C421.497 533.123 422.231 531.273 423.245 529.086L421.975 528.497ZM496.283 414.799L422.024 528.409L423.196 529.175L497.455 415.565L496.283 414.799ZM543.052 359.811C542.751 359.36 542.289 359.147 541.777 359.152C541.314 359.155 540.829 359.333 540.358 359.582C539.407 360.085 538.232 361.034 536.884 362.318C534.171 364.901 530.586 369.01 526.413 374.183C518.059 384.537 507.281 399.245 496.298 414.778L497.441 415.586C508.42 400.058 519.178 385.381 527.502 375.062C531.668 369.898 535.207 365.849 537.849 363.331C539.179 362.065 540.24 361.228 541.013 360.819C541.404 360.613 541.653 360.553 541.788 360.551C541.874 360.551 541.873 360.566 541.888 360.588L543.052 359.811ZM547.127 398.244C547.01 390.013 546.703 381.502 546.082 374.531C545.771 371.046 545.381 367.932 544.894 365.425C544.413 362.949 543.82 360.962 543.052 359.811L541.888 360.588C542.485 361.483 543.039 363.218 543.52 365.692C543.994 368.133 544.379 371.193 544.687 374.655C545.304 381.576 545.61 390.047 545.727 398.264L547.127 398.244ZM546.366 440.079L547.127 398.267L545.727 398.241L544.966 440.053L546.366 440.079ZM541.043 458.281C542.617 454.783 544.794 448.455 546.354 440.196L544.979 439.936C543.436 448.1 541.289 454.321 539.766 457.706L541.043 458.281ZM530.317 474.469C530.317 467.39 534.58 461.303 540.685 458.635L540.124 457.352C533.528 460.235 528.917 466.813 528.917 474.469H530.317ZM531.37 480.42C530.689 478.566 530.317 476.561 530.317 474.469H528.917C528.917 476.729 529.319 478.896 530.056 480.903L531.37 480.42ZM526.816 484.445C528.359 483.348 529.811 482.267 531.147 481.21L530.279 480.112C528.964 481.152 527.532 482.218 526.005 483.303L526.816 484.445ZM741.527 502.261L724.577 360.982L723.187 361.149L740.137 502.428L741.527 502.261ZM744.215 532.417C743.342 522.789 742.424 512.67 741.53 502.285L740.135 502.405C741.029 512.793 741.947 522.916 742.821 532.543L744.215 532.417ZM744.218 532.481V532.48H742.818V532.481H744.218ZM745.399 612.534C745.932 612.648 746.437 612.529 746.863 612.204C747.26 611.9 747.555 611.444 747.784 610.926C748.241 609.892 748.543 608.36 748.735 606.441C749.123 602.58 749.092 596.878 748.769 589.748C748.121 575.476 746.294 555.332 744.215 532.418L742.821 532.544C744.901 555.473 746.724 575.578 747.37 589.812C747.693 596.934 747.719 602.549 747.342 606.301C747.153 608.189 746.867 609.537 746.503 610.36C746.321 610.772 746.147 610.989 746.013 611.091C745.907 611.172 745.818 611.192 745.692 611.165L745.399 612.534ZM714.325 595.519C721.237 600.008 727.624 603.961 732.958 606.937C738.265 609.897 742.607 611.936 745.399 612.534L745.692 611.165C743.132 610.617 738.961 608.682 733.64 605.714C728.345 602.76 721.988 598.827 715.088 594.345L714.325 595.519ZM590.414 505.704L714.296 595.499L715.117 594.365L591.236 504.571L590.414 505.704ZM564.352 479.741C568.653 486.157 578.672 495.701 590.371 505.67L591.279 504.605C579.562 494.62 569.692 485.193 565.515 478.961L564.352 479.741ZM564.905 474.469C564.905 476.096 564.68 477.67 564.26 479.161L565.607 479.541C566.062 477.927 566.305 476.226 566.305 474.469H564.905ZM563.398 467.405C564.366 469.56 564.905 471.951 564.905 474.469H566.305C566.305 471.749 565.723 469.163 564.675 466.831L563.398 467.405ZM582.365 434.987C573.958 446.423 566.37 458.342 563.376 466.886L564.697 467.349C567.616 459.021 575.088 447.25 583.493 435.816L582.365 434.987ZM687.382 317.36L582.407 434.935L583.451 435.868L688.427 318.293L687.382 317.36ZM707.948 300.464C707.504 300.53 707.006 300.723 706.483 300.988C705.952 301.257 705.352 301.621 704.697 302.065C703.385 302.952 701.808 304.185 700.035 305.68C696.486 308.672 692.106 312.754 687.416 317.325L688.393 318.328C693.075 313.765 697.426 309.711 700.937 306.751C702.693 305.27 704.228 304.072 705.481 303.224C706.108 302.8 706.654 302.47 707.115 302.237C707.585 301.999 707.927 301.882 708.154 301.849L707.948 300.464ZM709.331 300.875C708.986 300.762 708.645 300.639 708.309 300.506L707.793 301.807C708.155 301.951 708.524 302.084 708.898 302.206L709.331 300.875ZM724.572 360.947C722.493 348.855 719.871 334.933 717.23 323.542C715.91 317.848 714.582 312.772 713.312 308.869C712.677 306.919 712.052 305.247 711.445 303.932C710.848 302.64 710.232 301.611 709.585 301.022L708.644 302.059C709.068 302.445 709.588 303.251 710.174 304.519C710.749 305.764 711.355 307.378 711.981 309.303C713.232 313.149 714.549 318.179 715.866 323.858C718.498 335.212 721.116 349.104 723.192 361.184L724.572 360.947ZM680.787 320.889L599.045 412.443L600.089 413.375L681.832 321.821L680.787 320.889ZM698.585 295.888C698.473 296.556 697.941 297.724 696.964 299.36C696.007 300.964 694.676 302.933 693.059 305.17C689.827 309.644 685.482 315.155 680.768 320.912L681.851 321.799C686.572 316.034 690.938 310.498 694.194 305.99C695.822 303.737 697.179 301.732 698.167 300.077C699.135 298.454 699.805 297.079 699.966 296.118L698.585 295.888ZM680.389 296.906C685.985 295.79 690.81 295.056 694.163 294.938C695.853 294.879 697.094 294.981 697.859 295.226C698.241 295.348 698.432 295.483 698.517 295.583C698.577 295.654 698.611 295.732 698.585 295.888L699.966 296.118C700.055 295.585 699.93 295.082 699.582 294.675C699.259 294.296 698.791 294.054 698.286 293.892C697.279 293.57 695.836 293.479 694.114 293.539C690.642 293.661 685.725 294.414 680.115 295.533L680.389 296.906ZM596.898 321.288L680.448 296.891L680.056 295.547L596.505 319.944L596.898 321.288ZM565.859 336.546C568.41 334.242 572.721 331.709 578.161 329.097C583.585 326.492 590.076 323.835 596.946 321.272L596.457 319.96C589.565 322.531 583.031 325.205 577.555 327.835C572.094 330.457 567.63 333.061 564.921 335.506L565.859 336.546ZM559.745 347.444C563.063 344.613 565.379 340.641 566.081 336.134L564.698 335.918C564.049 340.084 561.908 343.758 558.836 346.379L559.745 347.444ZM549.717 396.976C552.092 379.345 555.6 359.392 559.95 347.146L558.631 346.677C554.227 359.075 550.705 379.159 548.33 396.789L549.717 396.976ZM548.963 438.681L549.723 396.895L548.323 396.87L547.563 438.656L548.963 438.681ZM553.618 455.934C553.306 456.167 553.098 456.2 552.968 456.185C552.832 456.17 552.641 456.089 552.398 455.822C551.888 455.262 551.378 454.138 550.914 452.462C549.998 449.158 549.37 444.152 548.961 438.617L547.565 438.72C547.974 444.267 548.61 449.39 549.565 452.836C550.036 454.536 550.614 455.942 551.363 456.765C551.749 457.189 552.231 457.512 552.814 457.577C553.401 457.642 553.957 457.429 554.457 457.054L553.618 455.934ZM567.79 442.56C560.538 449.693 556.021 454.133 553.618 455.934L554.457 457.054C556.958 455.181 561.57 450.642 568.772 443.558L567.79 442.56ZM567.787 442.563L567.786 442.564L568.776 443.554L568.776 443.554L567.787 442.563ZM567.795 442.555L567.792 442.558L568.771 443.558L568.774 443.556L567.795 442.555ZM599.088 412.398C585.45 425.19 575.216 435.256 567.794 442.556L568.775 443.554C576.197 436.255 586.421 426.199 600.046 413.419L599.088 412.398ZM618.56 312.287L677.306 295.133L676.913 293.79L618.168 310.943L618.56 312.287ZM562.407 323.644C565.738 323.447 574.078 321.9 584.38 319.77C594.709 317.634 607.08 314.897 618.519 312.298L618.209 310.932C606.773 313.531 594.413 316.266 584.096 318.399C573.751 320.538 565.53 322.057 562.324 322.246L562.407 323.644ZM559.601 320.788C560.411 321.567 561.146 322.424 561.792 323.347L562.939 322.544C562.24 321.546 561.446 320.62 560.571 319.778L559.601 320.788ZM560.241 317.184C559.818 318.294 559.52 319.308 559.393 320.182L560.778 320.384C560.885 319.651 561.145 318.743 561.549 317.682L560.241 317.184ZM616.73 231.786L560.311 317.047L561.479 317.819L617.897 232.558L616.73 231.786ZM650.434 199.009C649.561 199.009 648.59 199.318 647.57 199.822C646.541 200.332 645.409 201.067 644.197 201.981C641.774 203.81 638.976 206.402 635.979 209.474C629.981 215.623 623.121 223.76 616.766 231.736L617.861 232.608C624.205 224.645 631.031 216.551 636.981 210.452C639.957 207.401 642.699 204.866 645.041 203.098C646.212 202.215 647.268 201.534 648.191 201.077C649.124 200.616 649.87 200.409 650.434 200.409V199.009ZM674.921 222.416C670.801 216.718 666.212 210.908 661.933 206.515C659.795 204.319 657.716 202.46 655.798 201.144C653.9 199.843 652.066 199.009 650.434 199.009V200.409C651.632 200.409 653.174 201.043 655.006 202.299C656.818 203.541 658.824 205.329 660.93 207.491C665.141 211.814 669.683 217.562 673.787 223.236L674.921 222.416ZM698.831 259.159L674.941 222.444L673.767 223.208L697.657 259.922L698.831 259.159ZM702.607 271.723C702.174 267.844 700.777 263.553 698.884 259.258L697.603 259.823C699.467 264.051 700.805 268.197 701.216 271.879L702.607 271.723ZM697.415 283.844C697.569 279.345 699.446 275.283 702.409 272.294L701.415 271.308C698.213 274.538 696.183 278.931 696.016 283.796L697.415 283.844ZM677.378 295.108C685.382 291.784 692.544 288.123 697.158 284.363L696.273 283.278C691.823 286.905 684.817 290.502 676.841 293.815L677.378 295.108Z" fill="white" mask="url(#path-2-outside-2_1672_15470)"/>
</svg>
