<svg width="1300" height="1301" viewBox="0 0 1300 1301" fill="none" xmlns="http://www.w3.org/2000/svg">
<g clip-path="url(#clip0_1561_5344)">
<rect width="1300" height="1300" transform="translate(0 0.758789)" fill="white"/>
<g opacity="0.5" filter="url(#filter0_f_1561_5344)">
<path d="M986.721 603.022L704.697 772.136L1012.96 946.375C1086.95 797.76 1026.11 655.55 986.721 603.022Z" fill="url(#paint0_radial_1561_5344)"/>
<path d="M986.721 603.022L704.697 772.136L1012.96 946.375C1086.95 797.76 1026.11 655.55 986.721 603.022Z" fill="url(#paint1_linear_1561_5344)" fill-opacity="0.5"/>
<path d="M986.721 603.022L704.697 772.136L1012.96 946.375C1086.95 797.76 1026.11 655.55 986.721 603.022Z" fill="url(#paint2_radial_1561_5344)"/>
<path d="M601.942 1119.33C691.425 1148.37 898.905 1153.41 1012.96 946.375L601.942 1119.33Z" fill="url(#paint3_radial_1561_5344)"/>
<path d="M601.942 1119.33C691.425 1148.37 898.905 1153.41 1012.96 946.375L601.942 1119.33Z" fill="url(#paint4_linear_1561_5344)" fill-opacity="0.5"/>
<path d="M601.942 1119.33C691.425 1148.37 898.905 1153.41 1012.96 946.375L601.942 1119.33Z" fill="url(#paint5_radial_1561_5344)"/>
<path d="M384.316 914.345C333.125 779.823 386.583 652.56 420.835 609.427L562.124 865.661L601.942 1119.33C558.271 1103.96 435.506 1048.87 384.316 914.345Z" fill="url(#paint6_radial_1561_5344)"/>
<path d="M384.316 914.345C333.125 779.823 386.583 652.56 420.835 609.427L562.124 865.661L601.942 1119.33C558.271 1103.96 435.506 1048.87 384.316 914.345Z" fill="url(#paint7_linear_1561_5344)"/>
<path d="M384.316 914.345C333.125 779.823 386.583 652.56 420.835 609.427L562.124 865.661L601.942 1119.33C558.271 1103.96 435.506 1048.87 384.316 914.345Z" fill="url(#paint8_radial_1561_5344)"/>
<path d="M562.125 865.661L704.699 772.136L420.836 609.427L562.125 865.661Z" fill="url(#paint9_linear_1561_5344)"/>
<path d="M562.125 865.661L704.699 772.136L420.836 609.427L562.125 865.661Z" fill="url(#paint10_radial_1561_5344)"/>
<path d="M704.698 772.137L562.125 865.662L601.942 1119.33L704.698 772.137Z" fill="url(#paint11_radial_1561_5344)"/>
<path d="M704.698 772.137L562.125 865.662L601.942 1119.33L704.698 772.137Z" fill="url(#paint12_linear_1561_5344)" fill-opacity="0.8"/>
<path d="M704.697 772.137L601.942 1119.33L1012.96 946.376L704.697 772.137Z" fill="url(#paint13_radial_1561_5344)"/>
<path d="M704.697 772.137L601.942 1119.33L1012.96 946.376L704.697 772.137Z" fill="url(#paint14_radial_1561_5344)" fill-opacity="0.2"/>
<path d="M605.913 332.695L463.34 550.494L603.344 473.624L605.913 332.695Z" fill="url(#paint15_radial_1561_5344)" fill-opacity="0.98"/>
<path d="M772.89 284.009L603.344 473.622L605.912 332.694L772.89 284.009Z" fill="url(#paint16_radial_1561_5344)" fill-opacity="0.6"/>
<path d="M772.89 284.009L603.344 473.622L605.912 332.694L772.89 284.009Z" fill="url(#paint17_radial_1561_5344)"/>
<path d="M772.89 284.009L603.344 473.622L605.912 332.694L772.89 284.009Z" fill="url(#paint18_linear_1561_5344)"/>
<path d="M706.099 181.516L605.913 332.694L772.891 284.01L706.099 181.516Z" fill="url(#paint19_radial_1561_5344)"/>
<path d="M601.871 473.047L463.151 548.636L703.342 687.002L812.52 625.506L601.871 473.047Z" fill="url(#paint20_radial_1561_5344)"/>
<path d="M601.871 473.047L463.151 548.636L703.342 687.002L812.52 625.506L601.871 473.047Z" fill="url(#paint21_linear_1561_5344)"/>
<path d="M772.89 284.009L603.344 473.622L813.992 626.081L772.89 284.009Z" fill="url(#paint22_radial_1561_5344)" fill-opacity="0.9"/>
<path d="M772.89 284.009L603.344 473.622L813.992 626.081L772.89 284.009Z" fill="url(#paint23_radial_1561_5344)"/>
<path d="M772.89 284.009L603.344 473.622L813.992 626.081L772.89 284.009Z" fill="url(#paint24_linear_1561_5344)" fill-opacity="0.6"/>
<path d="M772.889 284.009L813.992 626.081L947.574 550.492L772.889 284.009Z" fill="url(#paint25_radial_1561_5344)" fill-opacity="0.9"/>
<path d="M772.889 284.009L813.992 626.081L947.574 550.492L772.889 284.009Z" fill="url(#paint26_radial_1561_5344)"/>
<path d="M465.219 570.712C469.548 570.712 473.74 569.232 477.104 566.548C487.385 569.404 503.237 576.734 514.743 582.411L661.919 667.185C671.941 674.446 680.462 685.165 685.879 692.925C688.242 700.943 695.729 706.517 704.129 706.517C714.617 706.517 723.139 698 723.139 687.556C723.139 686.61 723.07 685.647 722.932 684.7C724.898 682.205 727.658 679.349 730.918 676.407L772.525 652.955C787.067 646.968 797.106 644.852 801.125 644.181C804.334 646.417 808.077 647.587 812.01 647.587C822.463 647.587 830.967 639.139 831.019 628.73C841.335 618.131 862.052 603.781 877.611 593.595L901.882 579.848C919.304 571.727 931.879 569.266 936.795 568.561C939.486 569.954 942.522 570.694 945.575 570.694C956.063 570.694 964.585 562.177 964.585 551.733C964.585 541.29 956.046 532.755 945.575 532.755C944.54 532.755 943.505 532.841 942.488 532.996C938.641 530.484 932.88 524.393 925.824 515.412L805.127 331.309C795.502 314.499 789.413 302.369 787.015 295.263C788.895 292.252 789.878 288.794 789.878 285.232C789.878 274.616 781.046 265.979 770.386 266.271C761.382 255.638 751.049 245.452 745.598 240.239L732.16 219.592C728.555 210.834 725.105 200.992 722.466 193.267C724.57 190.135 725.674 186.505 725.674 182.72C725.674 172.258 717.136 163.759 706.665 163.759C696.194 163.759 687.656 172.276 687.656 182.72C687.656 185.06 688.07 187.331 688.898 189.482C684.326 202.764 669.802 230.139 663.782 241.306L624.4 300.735C616.276 309.079 608.962 313.57 604.943 314.964C604.598 314.947 604.253 314.929 603.908 314.929C593.42 314.929 584.898 323.446 584.898 333.89C584.898 337.934 586.157 341.788 588.538 345.04C587.486 351.044 582.69 361.764 574.324 376.836L490.852 504.366C473.154 528.316 464.546 532.962 462.769 532.738L461.838 532.618L461.734 533.048C452.816 534.7 446.192 542.58 446.192 551.699C446.192 562.16 454.731 570.66 465.201 570.66L465.219 570.712ZM798.693 532.859C801.953 568.767 805.645 609.476 801.97 610.939C797.347 609.958 787.101 604.315 771.542 594.232L647.808 504.675C635.061 493.819 626.281 485.147 622.382 479.538C622.762 478.006 622.969 476.441 622.969 474.858C622.969 472.294 622.468 469.816 621.485 467.476C624.866 458.151 633.439 445.505 640.029 436.558L744.891 319.282C758.639 305.896 762.917 303.384 764.228 302.989C764.417 303.057 764.624 303.126 764.814 303.195C767.988 306.585 773.439 328.935 779.097 361.815L796.036 502.766C796.916 512.969 797.813 522.896 798.676 532.36L798.727 532.824L798.693 532.859ZM748.651 661.094L748.599 661.008C747.461 661.593 746.184 662.333 744.822 663.193C729.901 671.417 719.533 672.054 714.531 671.658C711.443 669.628 707.838 668.561 704.129 668.561C698.558 668.561 693.331 670.953 689.708 675.168C686.897 674.566 683.878 673.723 680.738 672.656L505.894 571.933C492.56 562.384 484.849 554.779 484.211 550.598C484.211 550.34 484.176 550.099 484.159 549.944C484.159 549.738 484.176 549.548 484.228 549.376C484.746 547.088 487.851 542.563 499.649 534.046L566.061 497.569C580.172 491.737 588.417 489.586 591.246 488.932C594.748 492.081 599.233 493.801 603.959 493.801C608.082 493.801 612.101 492.459 615.379 489.999C622.934 494.128 634.336 501.32 649.257 511.403L768.851 597.948C784.669 612.367 793.035 623.396 793.035 629.848C793.035 631.448 790.913 635.578 776.82 645.196L748.686 661.042L748.651 661.094ZM751.929 284.131C747.84 287.366 741.458 290.772 733.057 294.265L674.373 311.368C657.02 315.308 627.229 321.898 619.174 322.603C618.673 321.932 618.104 321.278 617.518 320.676C617.638 320.108 617.845 319.42 618.139 318.663L674.408 233.752C697.454 204.864 704.664 201.749 706.699 201.749C710.943 201.749 719.344 210.008 729.728 224.341L753.516 260.834C755.413 265.153 756.603 269.007 757.035 272.293C753.981 275.528 752.187 279.709 751.911 284.131H751.929ZM622.658 337.263C627.316 333.236 637.907 328.075 653.277 322.345L736.68 298.016C752.791 294.816 754.361 296.399 754.464 296.622C754.206 298.119 751.584 303.333 736.749 321.416L655.14 412.693C641.461 425.494 631.283 435.491 623.745 442.906C616.741 449.789 612.119 454.331 609.738 456.103C609.428 456.344 609.307 456.293 609.255 456.275C608.841 456.086 606.754 454.383 605.615 439.173L606.374 397.603C608.444 382.307 611.86 361.351 616.5 348.205C619.743 345.349 621.934 341.495 622.675 337.28L622.658 337.263ZM600.958 440.446C599.216 449.634 596.852 455.604 595.955 457.669C589.245 460.766 584.933 467.494 584.933 474.892C584.933 476.888 585.243 478.832 585.847 480.708C584.726 481.585 583.501 482.48 582.276 483.375L485.505 536.111C478.984 538.296 477.811 537.281 477.639 537.057C477.604 537.005 477.035 535.887 479.916 529.658L554.107 416.323C589.28 366.65 596.576 361.729 598.043 361.557C600.113 364.912 601.458 378.471 601.751 398.825L600.992 440.463L600.958 440.446ZM927.48 557.566C925.807 559.476 923.444 561.644 920.477 564.036L864.518 595.712C841.835 607.446 827.793 612.849 821.635 612.281C820.773 611.782 819.893 611.352 818.979 610.99C814.666 604.607 809.164 564.896 802.798 518.974L801.47 509.338L777.234 307.582C777.579 303.419 778.321 302.937 778.321 302.937C778.959 303.143 781.15 304.606 787.912 313.467L921.046 516.548C926.169 527.921 928.55 537.005 929.55 541.634C927.618 544.662 926.601 548.172 926.601 551.785C926.601 553.764 926.911 555.725 927.515 557.601L927.48 557.566Z" fill="url(#paint27_radial_1561_5344)"/>
<path d="M1048.8 764.397C1043.38 713.588 1027.74 672.707 1015.61 647.483C1010.71 633.409 1006.71 621.33 1005.1 616.409C1006.35 613.846 1007 610.989 1007 608.133C1007 597.672 998.462 589.172 987.992 589.172C977.521 589.172 968.982 597.689 968.982 608.133C968.982 608.426 968.982 608.735 969 609.028C964.635 613.054 957.718 618.405 948.438 624.909L763.105 736.042C737.61 748.722 721.447 754.4 714.633 755.536C711.821 753.987 708.647 753.161 705.422 753.161C701.109 753.161 696.918 754.624 693.554 757.308C682.738 754.572 665.885 747.002 653.62 741.117L473.066 637.641C455.747 625.339 443.603 612.951 441.775 609.045C440.93 599.324 432.667 591.736 422.835 591.736C412.347 591.736 403.825 600.253 403.825 610.714C403.825 614.585 404.981 618.302 407.172 621.468C406.706 624.41 405.895 627.765 404.774 631.499C388.904 659.028 376.139 693.457 368.86 728.437C359.562 773.12 354.404 842.012 382.746 916.462C402.825 969.215 435.858 1015.24 480.932 1053.25C519.02 1085.35 557.729 1104.99 583.759 1115.86C583.672 1116.58 583.638 1117.32 583.638 1118.06C583.638 1128.52 592.176 1137.02 602.647 1137.02C609.392 1137.02 615.602 1133.48 619.017 1127.72C645.22 1134.24 673.82 1137.51 702.748 1137.51C730.106 1137.51 757.775 1134.58 783.96 1128.73C857.634 1112.26 919.993 1074.46 969.258 1016.43C993.667 991.824 1005.28 979.057 1011.52 972.175L1011.68 972.003C1013.52 969.972 1014.9 968.458 1016.04 967.271C1024.34 965.051 1030.1 957.55 1030.1 948.947C1030.1 944.869 1028.82 940.998 1026.42 937.729C1026.89 932.36 1028.29 924.394 1030.55 914.07C1048.12 866.238 1054.25 815.877 1048.76 764.431L1048.8 764.397ZM992.132 947.347C991.683 948.895 986.646 954.401 949.542 972.054L650.395 1097.95C624.572 1106.43 617.913 1104.88 616.223 1103.21C615.102 1102.1 613.687 1097.62 616.844 1080.38L691.122 829.4C703.076 796.056 710.131 790.274 713.253 789.793C713.65 789.724 714.133 789.689 714.668 789.689C719.601 789.689 730.762 792.58 755.86 804.641L892.445 881.844L892.41 881.913C949.628 914.019 993.425 942.77 992.114 947.347H992.132ZM654.897 1101.06L967.861 969.353C985.715 963.933 995.133 962.952 998.135 962.797C998.963 963.572 999.859 964.26 1000.81 964.879C958.149 1034.15 900.914 1082.91 830.656 1109.82C777.423 1130.23 715.927 1137.42 657.588 1130.11C626.4 1123.96 625.503 1119.77 625.503 1119.32C625.503 1118.7 626.918 1114.86 654.88 1101.08L654.897 1101.06ZM952.353 910.371L753.204 797.811C730.486 782.497 725.19 774.961 724.742 771.348C724.621 770.384 724.845 769.61 725.432 768.956C730.331 763.519 749.357 750.357 778.958 731.895L925.668 643.921C938.071 637.521 961.185 626.457 977.262 623.791C980.419 625.941 984.11 627.077 987.974 627.077C989.717 627.077 991.442 626.836 993.115 626.371C1002.05 633.409 1011.66 650.924 1018.18 664.448C1037.4 710.044 1064.3 802.06 1028.46 906.139C1022.94 917.426 1016.44 925.805 1012.83 930.003C1008.67 929.625 1004.53 930.623 1001.03 932.808C991.562 929.246 975.175 921.693 952.353 910.371ZM675.804 789.965L600.129 839.604C589.968 845.247 582.085 848.757 576.669 850.065C573.15 846.847 568.613 845.127 563.904 845.127C563.197 845.127 562.489 845.161 561.782 845.247C556.935 840.584 535.097 807.807 513.276 772.415L458.162 672.466C439.481 636.488 437.221 628.402 437.635 626.87C440.861 625.167 448.295 629.228 456.886 633.942C459.318 635.267 461.888 636.678 464.493 638.037L665.506 753.265C683.687 766.341 686.395 772.294 686.395 774.686C686.395 777.077 684.532 781.878 675.804 789.982V789.965ZM550.311 877.405C552.105 879.211 554.175 880.622 556.504 881.586C560.35 887.539 565.198 904.556 570.2 929.59L589.037 1049.64C591.987 1075.6 592.832 1093.89 591.504 1102.63C589.416 1104.14 587.623 1106.09 586.294 1108.29C580.188 1107.65 567.595 1102.92 550.691 1094.92C496.129 1065.57 423.456 1010.47 387.041 914.776C359.114 841.376 364.185 773.413 373.362 729.331C378.347 705.415 385.661 682.359 395.097 660.886C407.5 637.951 415.158 631.654 419.402 630.432C420.023 630.26 420.609 630.157 421.161 630.157C422.024 630.157 422.817 630.363 423.576 630.793C427.095 632.755 438.118 648.601 453.798 674.238L515.639 786.386C534.338 822.931 545.309 846.451 547.413 854.504C543.066 861.902 544.205 871.262 550.277 877.405H550.311ZM573.202 918.733C571.994 900.702 572.167 887.453 573.719 880.313C574.978 879.556 576.151 878.626 577.221 877.594C581.068 873.809 583.12 868.595 582.879 863.21C588.606 857.429 602.423 845.608 616.74 834.253L675.131 795.935C687.775 789.173 691.915 789.861 693.243 790.859C693.606 791.152 695.106 793.802 690.069 816.685L617.292 1062.59C606.822 1093.85 603.423 1098.41 602.561 1099.02C602.371 1098.84 601.854 1098.22 601.077 1096.25L573.219 918.733H573.202Z" fill="url(#paint28_linear_1561_5344)"/>
<path d="M1048.8 764.397C1043.38 713.588 1027.74 672.707 1015.61 647.483C1010.71 633.409 1006.71 621.33 1005.1 616.409C1006.35 613.846 1007 610.989 1007 608.133C1007 597.672 998.462 589.172 987.992 589.172C977.521 589.172 968.982 597.689 968.982 608.133C968.982 608.426 968.982 608.735 969 609.028C964.635 613.054 957.718 618.405 948.438 624.909L763.105 736.042C737.61 748.722 721.447 754.4 714.633 755.536C711.821 753.987 708.647 753.161 705.422 753.161C701.109 753.161 696.918 754.624 693.554 757.308C682.738 754.572 665.885 747.002 653.62 741.117L473.066 637.641C455.747 625.339 443.603 612.951 441.775 609.045C440.93 599.324 432.667 591.736 422.835 591.736C412.347 591.736 403.825 600.253 403.825 610.714C403.825 614.585 404.981 618.302 407.172 621.468C406.706 624.41 405.895 627.765 404.774 631.499C388.904 659.028 376.139 693.457 368.86 728.437C359.562 773.12 354.404 842.012 382.746 916.462C402.825 969.215 435.858 1015.24 480.932 1053.25C519.02 1085.35 557.729 1104.99 583.759 1115.86C583.672 1116.58 583.638 1117.32 583.638 1118.06C583.638 1128.52 592.176 1137.02 602.647 1137.02C609.392 1137.02 615.602 1133.48 619.017 1127.72C645.22 1134.24 673.82 1137.51 702.748 1137.51C730.106 1137.51 757.775 1134.58 783.96 1128.73C857.634 1112.26 919.993 1074.46 969.258 1016.43C993.667 991.824 1005.28 979.057 1011.52 972.175L1011.68 972.003C1013.52 969.972 1014.9 968.458 1016.04 967.271C1024.34 965.051 1030.1 957.55 1030.1 948.947C1030.1 944.869 1028.82 940.998 1026.42 937.729C1026.89 932.36 1028.29 924.394 1030.55 914.07C1048.12 866.238 1054.25 815.877 1048.76 764.431L1048.8 764.397ZM992.132 947.347C991.683 948.895 986.646 954.401 949.542 972.054L650.395 1097.95C624.572 1106.43 617.913 1104.88 616.223 1103.21C615.102 1102.1 613.687 1097.62 616.844 1080.38L691.122 829.4C703.076 796.056 710.131 790.274 713.253 789.793C713.65 789.724 714.133 789.689 714.668 789.689C719.601 789.689 730.762 792.58 755.86 804.641L892.445 881.844L892.41 881.913C949.628 914.019 993.425 942.77 992.114 947.347H992.132ZM654.897 1101.06L967.861 969.353C985.715 963.933 995.133 962.952 998.135 962.797C998.963 963.572 999.859 964.26 1000.81 964.879C958.149 1034.15 900.914 1082.91 830.656 1109.82C777.423 1130.23 715.927 1137.42 657.588 1130.11C626.4 1123.96 625.503 1119.77 625.503 1119.32C625.503 1118.7 626.918 1114.86 654.88 1101.08L654.897 1101.06ZM952.353 910.371L753.204 797.811C730.486 782.497 725.19 774.961 724.742 771.348C724.621 770.384 724.845 769.61 725.432 768.956C730.331 763.519 749.357 750.357 778.958 731.895L925.668 643.921C938.071 637.521 961.185 626.457 977.262 623.791C980.419 625.941 984.11 627.077 987.974 627.077C989.717 627.077 991.442 626.836 993.115 626.371C1002.05 633.409 1011.66 650.924 1018.18 664.448C1037.4 710.044 1064.3 802.06 1028.46 906.139C1022.94 917.426 1016.44 925.805 1012.83 930.003C1008.67 929.625 1004.53 930.623 1001.03 932.808C991.562 929.246 975.175 921.693 952.353 910.371ZM675.804 789.965L600.129 839.604C589.968 845.247 582.085 848.757 576.669 850.065C573.15 846.847 568.613 845.127 563.904 845.127C563.197 845.127 562.489 845.161 561.782 845.247C556.935 840.584 535.097 807.807 513.276 772.415L458.162 672.466C439.481 636.488 437.221 628.402 437.635 626.87C440.861 625.167 448.295 629.228 456.886 633.942C459.318 635.267 461.888 636.678 464.493 638.037L665.506 753.265C683.687 766.341 686.395 772.294 686.395 774.686C686.395 777.077 684.532 781.878 675.804 789.982V789.965ZM550.311 877.405C552.105 879.211 554.175 880.622 556.504 881.586C560.35 887.539 565.198 904.556 570.2 929.59L589.037 1049.64C591.987 1075.6 592.832 1093.89 591.504 1102.63C589.416 1104.14 587.623 1106.09 586.294 1108.29C580.188 1107.65 567.595 1102.92 550.691 1094.92C496.129 1065.57 423.456 1010.47 387.041 914.776C359.114 841.376 364.185 773.413 373.362 729.331C378.347 705.415 385.661 682.359 395.097 660.886C407.5 637.951 415.158 631.654 419.402 630.432C420.023 630.26 420.609 630.157 421.161 630.157C422.024 630.157 422.817 630.363 423.576 630.793C427.095 632.755 438.118 648.601 453.798 674.238L515.639 786.386C534.338 822.931 545.309 846.451 547.413 854.504C543.066 861.902 544.205 871.262 550.277 877.405H550.311ZM573.202 918.733C571.994 900.702 572.167 887.453 573.719 880.313C574.978 879.556 576.151 878.626 577.221 877.594C581.068 873.809 583.12 868.595 582.879 863.21C588.606 857.429 602.423 845.608 616.74 834.253L675.131 795.935C687.775 789.173 691.915 789.861 693.243 790.859C693.606 791.152 695.106 793.802 690.069 816.685L617.292 1062.59C606.822 1093.85 603.423 1098.41 602.561 1099.02C602.371 1098.84 601.854 1098.22 601.077 1096.25L573.219 918.733H573.202Z" fill="url(#paint29_linear_1561_5344)"/>
</g>
<path d="M927.379 603.022L645.356 772.137L953.622 946.376C1027.61 797.76 966.769 655.55 927.379 603.022Z" fill="url(#paint30_radial_1561_5344)"/>
<path d="M927.379 603.022L645.356 772.137L953.622 946.376C1027.61 797.76 966.769 655.55 927.379 603.022Z" fill="url(#paint31_linear_1561_5344)" fill-opacity="0.5"/>
<path d="M927.379 603.022L645.356 772.137L953.622 946.376C1027.61 797.76 966.769 655.55 927.379 603.022Z" fill="url(#paint32_radial_1561_5344)"/>
<path d="M542.599 1119.33C632.082 1148.37 839.563 1153.41 953.622 946.375L542.599 1119.33Z" fill="url(#paint33_radial_1561_5344)"/>
<path d="M542.599 1119.33C632.082 1148.37 839.563 1153.41 953.622 946.375L542.599 1119.33Z" fill="url(#paint34_linear_1561_5344)" fill-opacity="0.5"/>
<path d="M542.599 1119.33C632.082 1148.37 839.563 1153.41 953.622 946.375L542.599 1119.33Z" fill="url(#paint35_radial_1561_5344)"/>
<path d="M324.974 914.346C273.784 779.823 327.242 652.56 361.494 609.428L502.783 865.661L542.6 1119.33C498.929 1103.96 376.165 1048.87 324.974 914.346Z" fill="url(#paint36_radial_1561_5344)"/>
<path d="M324.974 914.346C273.784 779.823 327.242 652.56 361.494 609.428L502.783 865.661L542.6 1119.33C498.929 1103.96 376.165 1048.87 324.974 914.346Z" fill="url(#paint37_linear_1561_5344)"/>
<path d="M324.974 914.346C273.784 779.823 327.242 652.56 361.494 609.428L502.783 865.661L542.6 1119.33C498.929 1103.96 376.165 1048.87 324.974 914.346Z" fill="url(#paint38_radial_1561_5344)"/>
<path d="M502.783 865.661L645.356 772.136L361.494 609.428L502.783 865.661Z" fill="url(#paint39_linear_1561_5344)"/>
<path d="M502.783 865.661L645.356 772.136L361.494 609.428L502.783 865.661Z" fill="url(#paint40_radial_1561_5344)"/>
<path d="M645.356 772.137L502.783 865.662L542.601 1119.33L645.356 772.137Z" fill="url(#paint41_radial_1561_5344)"/>
<path d="M645.356 772.137L502.783 865.662L542.601 1119.33L645.356 772.137Z" fill="url(#paint42_linear_1561_5344)" fill-opacity="0.8"/>
<path d="M645.355 772.137L542.599 1119.33L953.622 946.376L645.355 772.137Z" fill="url(#paint43_radial_1561_5344)"/>
<path d="M645.355 772.137L542.599 1119.33L953.622 946.376L645.355 772.137Z" fill="url(#paint44_radial_1561_5344)" fill-opacity="0.2"/>
<path d="M546.571 332.695L403.998 550.493L544.002 473.623L546.571 332.695Z" fill="url(#paint45_radial_1561_5344)" fill-opacity="0.98"/>
<path d="M713.55 284.01L544.003 473.623L546.572 332.694L713.55 284.01Z" fill="url(#paint46_radial_1561_5344)" fill-opacity="0.6"/>
<path d="M713.55 284.01L544.003 473.623L546.572 332.694L713.55 284.01Z" fill="url(#paint47_radial_1561_5344)"/>
<path d="M713.55 284.01L544.003 473.623L546.572 332.694L713.55 284.01Z" fill="url(#paint48_linear_1561_5344)"/>
<path d="M646.758 181.517L546.571 332.694L713.549 284.01L646.758 181.517Z" fill="url(#paint49_radial_1561_5344)"/>
<path d="M542.529 473.048L403.809 548.637L644 687.003L753.178 625.507L542.529 473.048Z" fill="url(#paint50_radial_1561_5344)"/>
<path d="M542.529 473.048L403.809 548.637L644 687.003L753.178 625.507L542.529 473.048Z" fill="url(#paint51_linear_1561_5344)"/>
<path d="M713.55 284.01L544.003 473.623L754.652 626.082L713.55 284.01Z" fill="url(#paint52_radial_1561_5344)" fill-opacity="0.9"/>
<path d="M713.55 284.01L544.003 473.623L754.652 626.082L713.55 284.01Z" fill="url(#paint53_radial_1561_5344)" fill-opacity="0.7"/>
<path d="M713.55 284.01L544.003 473.623L754.652 626.082L713.55 284.01Z" fill="url(#paint54_linear_1561_5344)" fill-opacity="0.6"/>
<path d="M713.548 284.01L754.65 626.082L888.232 550.493L713.548 284.01Z" fill="url(#paint55_radial_1561_5344)" fill-opacity="0.9"/>
<path d="M713.548 284.01L754.65 626.082L888.232 550.493L713.548 284.01Z" fill="url(#paint56_radial_1561_5344)" fill-opacity="0.7"/>
<g filter="url(#filter1_b_1561_5344)">
<path d="M405.877 570.712C410.206 570.712 414.398 569.232 417.762 566.548C428.043 569.404 443.895 576.734 455.401 582.411L602.577 667.185C612.599 674.446 621.12 685.165 626.537 692.925C628.9 700.943 636.387 706.517 644.787 706.517C655.275 706.517 663.797 698 663.797 687.556C663.797 686.61 663.728 685.647 663.59 684.7C665.556 682.205 668.316 679.349 671.576 676.407L713.183 652.955C727.725 646.968 737.764 644.852 741.783 644.181C744.992 646.417 748.735 647.587 752.668 647.587C763.121 647.587 771.625 639.139 771.677 628.73C781.993 618.131 802.71 603.781 818.269 593.595L842.54 579.848C859.962 571.727 872.537 569.266 877.453 568.561C880.144 569.954 883.18 570.694 886.233 570.694C896.721 570.694 905.243 562.177 905.243 551.733C905.243 541.29 896.704 532.755 886.233 532.755C885.198 532.755 884.163 532.841 883.146 532.996C879.299 530.484 873.538 524.393 866.482 515.412L745.785 331.309C736.16 314.499 730.071 302.369 727.673 295.263C729.553 292.252 730.536 288.794 730.536 285.232C730.536 274.616 721.704 265.979 711.044 266.271C702.04 255.638 691.707 245.452 686.256 240.239L672.818 219.592C669.213 210.834 665.763 200.992 663.124 193.267C665.228 190.135 666.332 186.505 666.332 182.72C666.332 172.258 657.794 163.759 647.323 163.759C636.852 163.759 628.314 172.276 628.314 182.72C628.314 185.06 628.728 187.331 629.556 189.482C624.984 202.764 610.46 230.139 604.44 241.306L565.058 300.735C556.934 309.079 549.62 313.57 545.601 314.964C545.256 314.947 544.911 314.929 544.566 314.929C534.078 314.929 525.556 323.446 525.556 333.89C525.556 337.934 526.815 341.788 529.196 345.04C528.144 351.044 523.348 361.764 514.982 376.836L431.51 504.366C413.812 528.316 405.204 532.962 403.427 532.738L402.496 532.618L402.392 533.048C393.474 534.7 386.85 542.58 386.85 551.699C386.85 562.16 395.389 570.66 405.86 570.66L405.877 570.712ZM739.351 532.859C742.611 568.767 746.303 609.476 742.628 610.939C738.005 609.958 727.759 604.315 712.2 594.232L588.466 504.675C575.719 493.819 566.939 485.147 563.04 479.538C563.42 478.006 563.627 476.441 563.627 474.858C563.627 472.294 563.126 469.816 562.143 467.476C565.524 458.151 574.097 445.505 580.687 436.558L685.549 319.282C699.297 305.896 703.575 303.384 704.886 302.989C705.076 303.057 705.282 303.126 705.472 303.195C708.646 306.585 714.097 328.935 719.755 361.815L736.694 502.766C737.574 512.969 738.471 522.896 739.334 532.36L739.385 532.824L739.351 532.859ZM689.309 661.094L689.257 661.008C688.119 661.593 686.842 662.333 685.48 663.193C670.559 671.417 660.191 672.054 655.189 671.658C652.101 669.628 648.496 668.561 644.787 668.561C639.216 668.561 633.989 670.953 630.366 675.168C627.555 674.566 624.536 673.723 621.396 672.656L446.552 571.933C433.218 562.384 425.507 554.779 424.869 550.598C424.869 550.34 424.834 550.099 424.817 549.944C424.817 549.738 424.834 549.548 424.886 549.376C425.404 547.088 428.509 542.563 440.307 534.046L506.719 497.569C520.83 491.737 529.075 489.586 531.904 488.932C535.406 492.081 539.891 493.801 544.617 493.801C548.74 493.801 552.759 492.459 556.037 489.999C563.592 494.128 574.994 501.32 589.915 511.403L709.509 597.948C725.327 612.367 733.693 623.396 733.693 629.848C733.693 631.448 731.571 635.578 717.478 645.196L689.344 661.042L689.309 661.094ZM692.587 284.131C688.498 287.366 682.116 290.772 673.715 294.265L615.031 311.368C597.678 315.308 567.887 321.898 559.832 322.603C559.331 321.932 558.762 321.278 558.176 320.676C558.296 320.108 558.503 319.42 558.797 318.663L615.066 233.752C638.112 204.864 645.322 201.749 647.357 201.749C651.601 201.749 660.002 210.008 670.386 224.341L694.174 260.834C696.071 265.153 697.261 269.007 697.693 272.293C694.639 275.528 692.845 279.709 692.569 284.131H692.587ZM563.316 337.263C567.974 333.236 578.565 328.075 593.935 322.345L677.338 298.016C693.449 294.816 695.019 296.399 695.122 296.622C694.864 298.119 692.242 303.333 677.407 321.416L595.798 412.693C582.119 425.494 571.941 435.491 564.403 442.906C557.399 449.789 552.777 454.331 550.396 456.103C550.086 456.344 549.965 456.293 549.913 456.275C549.499 456.086 547.412 454.383 546.273 439.173L547.032 397.603C549.102 382.307 552.518 361.351 557.158 348.205C560.401 345.349 562.592 341.495 563.333 337.28L563.316 337.263ZM541.616 440.446C539.874 449.634 537.51 455.604 536.613 457.669C529.903 460.766 525.591 467.494 525.591 474.892C525.591 476.888 525.901 478.832 526.505 480.708C525.384 481.585 524.159 482.48 522.934 483.375L426.163 536.111C419.642 538.296 418.469 537.281 418.297 537.057C418.262 537.005 417.693 535.887 420.574 529.658L494.765 416.323C529.938 366.65 537.234 361.729 538.701 361.557C540.771 364.912 542.116 378.471 542.409 398.825L541.65 440.463L541.616 440.446ZM868.138 557.566C866.465 559.476 864.102 561.644 861.135 564.036L805.176 595.712C782.493 607.446 768.451 612.849 762.293 612.281C761.431 611.782 760.551 611.352 759.637 610.99C755.324 604.607 749.822 564.896 743.456 518.974L742.128 509.338L717.892 307.582C718.237 303.419 718.979 302.937 718.979 302.937C719.617 303.143 721.808 304.606 728.57 313.467L861.704 516.548C866.827 527.921 869.208 537.005 870.208 541.634C868.276 544.662 867.259 548.172 867.259 551.785C867.259 553.764 867.569 555.725 868.173 557.601L868.138 557.566Z" fill="url(#paint57_radial_1561_5344)" fill-opacity="0.7"/>
</g>
<g filter="url(#filter2_b_1561_5344)">
<path d="M989.455 764.397C984.039 713.588 968.393 672.707 956.267 647.483C951.368 633.409 947.366 621.33 945.761 616.409C947.003 613.846 947.659 610.989 947.659 608.133C947.659 597.672 939.12 589.172 928.65 589.172C918.179 589.172 909.64 597.689 909.64 608.133C909.64 608.426 909.64 608.735 909.658 609.028C905.293 613.054 898.376 618.405 889.096 624.909L703.763 736.042C678.268 748.722 662.105 754.4 655.291 755.536C652.479 753.987 649.306 753.161 646.08 753.161C641.767 753.161 637.576 754.624 634.212 757.308C623.396 754.572 606.543 747.002 594.278 741.117L413.724 637.641C396.405 625.339 384.261 612.951 382.433 609.045C381.588 599.324 373.325 591.736 363.493 591.736C353.005 591.736 344.483 600.253 344.483 610.714C344.483 614.585 345.639 618.302 347.83 621.468C347.364 624.41 346.553 627.765 345.432 631.499C329.562 659.028 316.797 693.457 309.518 728.437C300.22 773.12 295.062 842.012 323.404 916.462C343.483 969.215 376.516 1015.24 421.59 1053.25C459.678 1085.35 498.387 1104.99 524.417 1115.86C524.33 1116.58 524.296 1117.32 524.296 1118.06C524.296 1128.52 532.834 1137.02 543.305 1137.02C550.05 1137.02 556.26 1133.48 559.675 1127.72C585.878 1134.24 614.478 1137.51 643.406 1137.51C670.764 1137.51 698.433 1134.58 724.618 1128.73C798.293 1112.26 860.651 1074.46 909.916 1016.43C934.325 991.824 945.934 979.057 952.178 972.175L952.334 972.003C954.179 969.972 955.559 968.458 956.698 967.271C964.995 965.051 970.757 957.55 970.757 948.947C970.757 944.869 969.48 940.998 967.082 937.729C967.548 932.36 968.945 924.394 971.205 914.07C988.783 866.238 994.906 815.877 989.421 764.431L989.455 764.397ZM932.79 947.347C932.341 948.895 927.304 954.401 890.2 972.054L591.053 1097.95C565.23 1106.43 558.571 1104.88 556.881 1103.21C555.76 1102.1 554.345 1097.62 557.502 1080.38L631.78 829.4C643.734 796.056 650.789 790.274 653.911 789.793C654.308 789.724 654.791 789.689 655.326 789.689C660.259 789.689 671.42 792.58 696.518 804.641L833.103 881.844L833.068 881.913C890.286 914.019 934.083 942.77 932.772 947.347H932.79ZM595.555 1101.06L908.519 969.353C926.373 963.933 935.791 962.952 938.793 962.797C939.621 963.572 940.518 964.26 941.466 964.879C898.807 1034.15 841.572 1082.91 771.314 1109.82C718.081 1130.23 656.585 1137.42 598.246 1130.11C567.058 1123.96 566.161 1119.77 566.161 1119.32C566.161 1118.7 567.576 1114.86 595.538 1101.08L595.555 1101.06ZM893.011 910.371L693.862 797.811C671.144 782.497 665.848 774.961 665.4 771.348C665.279 770.384 665.503 769.61 666.09 768.956C670.989 763.519 690.015 750.357 719.616 731.895L866.326 643.921C878.729 637.521 901.843 626.457 917.92 623.791C921.077 625.941 924.768 627.077 928.632 627.077C930.375 627.077 932.1 626.836 933.773 626.371C942.708 633.409 952.316 650.924 958.837 664.448C978.053 710.044 1004.96 802.06 969.118 906.139C963.598 917.426 957.095 925.805 953.489 930.003C949.332 929.625 945.192 930.623 941.691 932.808C932.22 929.246 915.833 921.693 893.011 910.371ZM616.462 789.965L540.787 839.604C530.626 845.247 522.743 848.757 517.327 850.065C513.808 846.847 509.271 845.127 504.562 845.127C503.855 845.127 503.147 845.161 502.44 845.247C497.593 840.584 475.755 807.807 453.934 772.415L398.82 672.466C380.139 636.488 377.879 628.402 378.293 626.87C381.519 625.167 388.953 629.228 397.544 633.942C399.976 635.267 402.546 636.678 405.151 638.037L606.164 753.265C624.345 766.341 627.053 772.294 627.053 774.686C627.053 777.077 625.19 781.878 616.462 789.982V789.965ZM490.969 877.405C492.763 879.211 494.833 880.622 497.162 881.586C501.008 887.539 505.856 904.556 510.858 929.59L529.695 1049.64C532.645 1075.6 533.49 1093.89 532.162 1102.63C530.074 1104.14 528.281 1106.09 526.952 1108.29C520.846 1107.65 508.253 1102.92 491.349 1094.92C436.787 1065.57 364.114 1010.47 327.699 914.776C299.772 841.376 304.843 773.413 314.02 729.331C319.005 705.415 326.319 682.359 335.755 660.886C348.158 637.951 355.816 631.654 360.06 630.432C360.681 630.26 361.267 630.157 361.819 630.157C362.682 630.157 363.475 630.363 364.234 630.793C367.753 632.755 378.776 648.601 394.456 674.238L456.297 786.386C474.996 822.931 485.967 846.451 488.071 854.504C483.724 861.902 484.863 871.262 490.935 877.405H490.969ZM513.86 918.733C512.652 900.702 512.825 887.453 514.377 880.313C515.636 879.556 516.809 878.626 517.879 877.594C521.726 873.809 523.778 868.595 523.537 863.21C529.264 857.429 543.081 845.608 557.398 834.253L615.789 795.935C628.433 789.173 632.573 789.861 633.901 790.859C634.264 791.152 635.764 793.802 630.727 816.685L557.95 1062.59C547.48 1093.85 544.081 1098.41 543.219 1099.02C543.029 1098.84 542.512 1098.22 541.735 1096.25L513.877 918.733H513.86Z" fill="url(#paint58_linear_1561_5344)" fill-opacity="0.7"/>
<path d="M989.455 764.397C984.039 713.588 968.393 672.707 956.267 647.483C951.368 633.409 947.366 621.33 945.761 616.409C947.003 613.846 947.659 610.989 947.659 608.133C947.659 597.672 939.12 589.172 928.65 589.172C918.179 589.172 909.64 597.689 909.64 608.133C909.64 608.426 909.64 608.735 909.658 609.028C905.293 613.054 898.376 618.405 889.096 624.909L703.763 736.042C678.268 748.722 662.105 754.4 655.291 755.536C652.479 753.987 649.306 753.161 646.08 753.161C641.767 753.161 637.576 754.624 634.212 757.308C623.396 754.572 606.543 747.002 594.278 741.117L413.724 637.641C396.405 625.339 384.261 612.951 382.433 609.045C381.588 599.324 373.325 591.736 363.493 591.736C353.005 591.736 344.483 600.253 344.483 610.714C344.483 614.585 345.639 618.302 347.83 621.468C347.364 624.41 346.553 627.765 345.432 631.499C329.562 659.028 316.797 693.457 309.518 728.437C300.22 773.12 295.062 842.012 323.404 916.462C343.483 969.215 376.516 1015.24 421.59 1053.25C459.678 1085.35 498.387 1104.99 524.417 1115.86C524.33 1116.58 524.296 1117.32 524.296 1118.06C524.296 1128.52 532.834 1137.02 543.305 1137.02C550.05 1137.02 556.26 1133.48 559.675 1127.72C585.878 1134.24 614.478 1137.51 643.406 1137.51C670.764 1137.51 698.433 1134.58 724.618 1128.73C798.293 1112.26 860.651 1074.46 909.916 1016.43C934.325 991.824 945.934 979.057 952.178 972.175L952.334 972.003C954.179 969.972 955.559 968.458 956.698 967.271C964.995 965.051 970.757 957.55 970.757 948.947C970.757 944.869 969.48 940.998 967.082 937.729C967.548 932.36 968.945 924.394 971.205 914.07C988.783 866.238 994.906 815.877 989.421 764.431L989.455 764.397ZM932.79 947.347C932.341 948.895 927.304 954.401 890.2 972.054L591.053 1097.95C565.23 1106.43 558.571 1104.88 556.881 1103.21C555.76 1102.1 554.345 1097.62 557.502 1080.38L631.78 829.4C643.734 796.056 650.789 790.274 653.911 789.793C654.308 789.724 654.791 789.689 655.326 789.689C660.259 789.689 671.42 792.58 696.518 804.641L833.103 881.844L833.068 881.913C890.286 914.019 934.083 942.77 932.772 947.347H932.79ZM595.555 1101.06L908.519 969.353C926.373 963.933 935.791 962.952 938.793 962.797C939.621 963.572 940.518 964.26 941.466 964.879C898.807 1034.15 841.572 1082.91 771.314 1109.82C718.081 1130.23 656.585 1137.42 598.246 1130.11C567.058 1123.96 566.161 1119.77 566.161 1119.32C566.161 1118.7 567.576 1114.86 595.538 1101.08L595.555 1101.06ZM893.011 910.371L693.862 797.811C671.144 782.497 665.848 774.961 665.4 771.348C665.279 770.384 665.503 769.61 666.09 768.956C670.989 763.519 690.015 750.357 719.616 731.895L866.326 643.921C878.729 637.521 901.843 626.457 917.92 623.791C921.077 625.941 924.768 627.077 928.632 627.077C930.375 627.077 932.1 626.836 933.773 626.371C942.708 633.409 952.316 650.924 958.837 664.448C978.053 710.044 1004.96 802.06 969.118 906.139C963.598 917.426 957.095 925.805 953.489 930.003C949.332 929.625 945.192 930.623 941.691 932.808C932.22 929.246 915.833 921.693 893.011 910.371ZM616.462 789.965L540.787 839.604C530.626 845.247 522.743 848.757 517.327 850.065C513.808 846.847 509.271 845.127 504.562 845.127C503.855 845.127 503.147 845.161 502.44 845.247C497.593 840.584 475.755 807.807 453.934 772.415L398.82 672.466C380.139 636.488 377.879 628.402 378.293 626.87C381.519 625.167 388.953 629.228 397.544 633.942C399.976 635.267 402.546 636.678 405.151 638.037L606.164 753.265C624.345 766.341 627.053 772.294 627.053 774.686C627.053 777.077 625.19 781.878 616.462 789.982V789.965ZM490.969 877.405C492.763 879.211 494.833 880.622 497.162 881.586C501.008 887.539 505.856 904.556 510.858 929.59L529.695 1049.64C532.645 1075.6 533.49 1093.89 532.162 1102.63C530.074 1104.14 528.281 1106.09 526.952 1108.29C520.846 1107.65 508.253 1102.92 491.349 1094.92C436.787 1065.57 364.114 1010.47 327.699 914.776C299.772 841.376 304.843 773.413 314.02 729.331C319.005 705.415 326.319 682.359 335.755 660.886C348.158 637.951 355.816 631.654 360.06 630.432C360.681 630.26 361.267 630.157 361.819 630.157C362.682 630.157 363.475 630.363 364.234 630.793C367.753 632.755 378.776 648.601 394.456 674.238L456.297 786.386C474.996 822.931 485.967 846.451 488.071 854.504C483.724 861.902 484.863 871.262 490.935 877.405H490.969ZM513.86 918.733C512.652 900.702 512.825 887.453 514.377 880.313C515.636 879.556 516.809 878.626 517.879 877.594C521.726 873.809 523.778 868.595 523.537 863.21C529.264 857.429 543.081 845.608 557.398 834.253L615.789 795.935C628.433 789.173 632.573 789.861 633.901 790.859C634.264 791.152 635.764 793.802 630.727 816.685L557.95 1062.59C547.48 1093.85 544.081 1098.41 543.219 1099.02C543.029 1098.84 542.512 1098.22 541.735 1096.25L513.877 918.733H513.86Z" fill="url(#paint59_linear_1561_5344)"/>
</g>
</g>
<defs>
<filter id="filter0_f_1561_5344" x="187.492" y="-10.2412" width="1037.22" height="1321.75" filterUnits="userSpaceOnUse" color-interpolation-filters="sRGB">
<feFlood flood-opacity="0" result="BackgroundImageFix"/>
<feBlend mode="normal" in="SourceGraphic" in2="BackgroundImageFix" result="shape"/>
<feGaussianBlur stdDeviation="87" result="effect1_foregroundBlur_1561_5344"/>
</filter>
<filter id="filter1_b_1561_5344" x="342.85" y="119.759" width="606.393" height="630.758" filterUnits="userSpaceOnUse" color-interpolation-filters="sRGB">
<feFlood flood-opacity="0" result="BackgroundImageFix"/>
<feGaussianBlur in="BackgroundImageFix" stdDeviation="22"/>
<feComposite in2="SourceAlpha" operator="in" result="effect1_backgroundBlur_1561_5344"/>
<feBlend mode="normal" in="SourceGraphic" in2="effect1_backgroundBlur_1561_5344" result="shape"/>
</filter>
<filter id="filter2_b_1561_5344" x="268.15" y="555.172" width="757.217" height="616.333" filterUnits="userSpaceOnUse" color-interpolation-filters="sRGB">
<feFlood flood-opacity="0" result="BackgroundImageFix"/>
<feGaussianBlur in="BackgroundImageFix" stdDeviation="17"/>
<feComposite in2="SourceAlpha" operator="in" result="effect1_backgroundBlur_1561_5344"/>
<feBlend mode="normal" in="SourceGraphic" in2="effect1_backgroundBlur_1561_5344" result="shape"/>
</filter>
<radialGradient id="paint0_radial_1561_5344" cx="0" cy="0" r="1" gradientUnits="userSpaceOnUse" gradientTransform="translate(1090.18 919.54) rotate(-133.95) scale(372.82 528.345)">
<stop stop-color="#8AFBED" stop-opacity="0.7"/>
<stop offset="0.671495" stop-color="#00A3FF" stop-opacity="0.45726"/>
<stop offset="1" stop-color="#0066FF"/>
</radialGradient>
<linearGradient id="paint1_linear_1561_5344" x1="652.298" y1="269.698" x2="1113.13" y2="354.72" gradientUnits="userSpaceOnUse">
<stop stop-color="#2A26FF"/>
<stop offset="1" stop-color="#00A3FF" stop-opacity="0"/>
</linearGradient>
<radialGradient id="paint2_radial_1561_5344" cx="0" cy="0" r="1" gradientUnits="userSpaceOnUse" gradientTransform="translate(1025.89 552.771) rotate(90.1475) scale(250.551 250.38)">
<stop stop-color="#2A6BFF"/>
<stop offset="1" stop-color="#2A6BFF" stop-opacity="0"/>
</radialGradient>
<radialGradient id="paint3_radial_1561_5344" cx="0" cy="0" r="1" gradientUnits="userSpaceOnUse" gradientTransform="translate(960.031 1098.68) rotate(-157.832) scale(331.251 330.036)">
<stop stop-color="#8AFBED" stop-opacity="0.6"/>
<stop offset="0.582168" stop-color="#00A3FF" stop-opacity="0.45726"/>
<stop offset="1" stop-color="#198CF6" stop-opacity="0.19"/>
</radialGradient>
<linearGradient id="paint4_linear_1561_5344" x1="539.173" y1="764.27" x2="1029.72" y2="962.711" gradientUnits="userSpaceOnUse">
<stop stop-color="#35C2FF"/>
<stop offset="1" stop-color="#00A3FF" stop-opacity="0"/>
</linearGradient>
<radialGradient id="paint5_radial_1561_5344" cx="0" cy="0" r="1" gradientUnits="userSpaceOnUse" gradientTransform="translate(986.696 918.921) rotate(90.3234) scale(136.886 299.928)">
<stop stop-color="#2A6BFF"/>
<stop offset="1" stop-color="#2A6BFF" stop-opacity="0"/>
</radialGradient>
<radialGradient id="paint6_radial_1561_5344" cx="0" cy="0" r="1" gradientUnits="userSpaceOnUse" gradientTransform="translate(571.19 1023.43) rotate(-119.705) scale(607.899 712.899)">
<stop stop-color="#8AFBED" stop-opacity="0"/>
<stop offset="0.671495" stop-color="#00A3FF" stop-opacity="0.45726"/>
<stop offset="1" stop-color="#198CF6"/>
</radialGradient>
<linearGradient id="paint7_linear_1561_5344" x1="326.686" y1="114.417" x2="655.853" y2="142.876" gradientUnits="userSpaceOnUse">
<stop stop-color="#35C2FF"/>
<stop offset="1" stop-color="#00A3FF" stop-opacity="0"/>
</linearGradient>
<radialGradient id="paint8_radial_1561_5344" cx="0" cy="0" r="1" gradientUnits="userSpaceOnUse" gradientTransform="translate(586.681 534.801) rotate(90.0691) scale(372.086 174.25)">
<stop stop-color="#2A6BFF"/>
<stop offset="1" stop-color="#2A6BFF" stop-opacity="0"/>
</radialGradient>
<linearGradient id="paint9_linear_1561_5344" x1="296.69" y1="597.79" x2="795.711" y2="377.021" gradientUnits="userSpaceOnUse">
<stop stop-color="#1BBBFF"/>
<stop offset="1" stop-color="#00A3FF" stop-opacity="0"/>
</linearGradient>
<radialGradient id="paint10_radial_1561_5344" cx="0" cy="0" r="1" gradientUnits="userSpaceOnUse" gradientTransform="translate(531.288 592.628) rotate(47.059) scale(227.136 251.033)">
<stop stop-color="#2A6BFF"/>
<stop offset="1" stop-color="#2A6BFF" stop-opacity="0"/>
</radialGradient>
<radialGradient id="paint11_radial_1561_5344" cx="0" cy="0" r="1" gradientUnits="userSpaceOnUse" gradientTransform="translate(751.224 1065.79) rotate(-137.094) scale(259.051 279.897)">
<stop stop-color="#8AFBED" stop-opacity="0"/>
<stop offset="0.449372" stop-color="#00A3FF" stop-opacity="0.15"/>
<stop offset="1" stop-color="#198CF6"/>
</radialGradient>
<linearGradient id="paint12_linear_1561_5344" x1="561.476" y1="826.63" x2="690.796" y2="1056.07" gradientUnits="userSpaceOnUse">
<stop stop-color="#35C2FF"/>
<stop offset="1" stop-color="#00A3FF" stop-opacity="0"/>
</linearGradient>
<radialGradient id="paint13_radial_1561_5344" cx="0" cy="0" r="1" gradientUnits="userSpaceOnUse" gradientTransform="translate(959.084 1040.84) rotate(-142.335) scale(342.122 480.772)">
<stop stop-color="#8AFBED" stop-opacity="0.3"/>
<stop offset="0.590599" stop-color="#00A3FF" stop-opacity="0.6573"/>
<stop offset="1" stop-color="#0066FF"/>
</radialGradient>
<radialGradient id="paint14_radial_1561_5344" cx="0" cy="0" r="1" gradientUnits="userSpaceOnUse" gradientTransform="translate(529.562 552.196) rotate(61.0824) scale(433.431 1046.26)">
<stop stop-color="#2A6BFF"/>
<stop offset="1" stop-color="#2A6BFF" stop-opacity="0"/>
</radialGradient>
<radialGradient id="paint15_radial_1561_5344" cx="0" cy="0" r="1" gradientUnits="userSpaceOnUse" gradientTransform="translate(463.151 472.188) rotate(2.32458) scale(148.471 378.591)">
<stop stop-color="#0085FF"/>
<stop offset="1" stop-color="#0085FF" stop-opacity="0"/>
</radialGradient>
<radialGradient id="paint16_radial_1561_5344" cx="0" cy="0" r="1" gradientUnits="userSpaceOnUse" gradientTransform="translate(791.929 290.754) rotate(100.833) scale(318.358 240.468)">
<stop stop-color="#FFBFAB"/>
<stop offset="0.364808" stop-color="#FF67A8" stop-opacity="0.87"/>
<stop offset="0.723967" stop-color="#6BAFFF" stop-opacity="0"/>
</radialGradient>
<radialGradient id="paint17_radial_1561_5344" cx="0" cy="0" r="1" gradientUnits="userSpaceOnUse" gradientTransform="translate(772.89 443.965) rotate(-147.372) scale(136.715 191.583)">
<stop stop-color="#2238FF"/>
<stop offset="1" stop-color="#0047FF" stop-opacity="0"/>
</radialGradient>
<linearGradient id="paint18_linear_1561_5344" x1="602.448" y1="450.71" x2="685.551" y2="347.243" gradientUnits="userSpaceOnUse">
<stop stop-color="#7572FF"/>
<stop offset="0.504042" stop-color="#5FC1FE" stop-opacity="0.495958"/>
<stop offset="1" stop-color="#29EDFE" stop-opacity="0"/>
</linearGradient>
<radialGradient id="paint19_radial_1561_5344" cx="0" cy="0" r="1" gradientUnits="userSpaceOnUse" gradientTransform="translate(830.573 210.658) rotate(-170.943) scale(382.542 348.762)">
<stop stop-color="#FFBFAB"/>
<stop offset="0.280518" stop-color="#FF67A8" stop-opacity="0.87"/>
<stop offset="0.723967" stop-color="#6BAFFF" stop-opacity="0"/>
</radialGradient>
<radialGradient id="paint20_radial_1561_5344" cx="0" cy="0" r="1" gradientUnits="userSpaceOnUse" gradientTransform="translate(463.151 461.864) rotate(39.5837) scale(379.379 388.446)">
<stop stop-color="#3448FB"/>
<stop offset="1" stop-color="#0085FF" stop-opacity="0"/>
</radialGradient>
<linearGradient id="paint21_linear_1561_5344" x1="664.974" y1="740.598" x2="553.236" y2="579.456" gradientUnits="userSpaceOnUse">
<stop stop-color="#5FC5FF"/>
<stop offset="1" stop-color="#00A2FF" stop-opacity="0"/>
</linearGradient>
<radialGradient id="paint22_radial_1561_5344" cx="0" cy="0" r="1" gradientUnits="userSpaceOnUse" gradientTransform="translate(837.647 296.178) rotate(97.5077) scale(568.978 301.576)">
<stop stop-color="#FFBFAB"/>
<stop offset="0.364808" stop-color="#FF67A8" stop-opacity="0.87"/>
<stop offset="0.723967" stop-color="#6BAFFF" stop-opacity="0"/>
</radialGradient>
<radialGradient id="paint23_radial_1561_5344" cx="0" cy="0" r="1" gradientUnits="userSpaceOnUse" gradientTransform="translate(813.992 572.578) rotate(-137.089) scale(195.317 300.574)">
<stop stop-color="#2238FF"/>
<stop offset="1" stop-color="#0047FF" stop-opacity="0"/>
</radialGradient>
<linearGradient id="paint24_linear_1561_5344" x1="602.23" y1="584.747" x2="726.303" y2="511.542" gradientUnits="userSpaceOnUse">
<stop stop-color="#29EDFE"/>
<stop offset="1" stop-color="#29EDFE" stop-opacity="0"/>
</linearGradient>
<radialGradient id="paint25_radial_1561_5344" cx="0" cy="0" r="1" gradientUnits="userSpaceOnUse" gradientTransform="translate(806.421 195.173) rotate(81.5237) scale(672.45 297.137)">
<stop stop-color="#FFBFAB"/>
<stop offset="0.364808" stop-color="#FF67A8" stop-opacity="0.87"/>
<stop offset="0.723967" stop-color="#6BAFFF" stop-opacity="0"/>
</radialGradient>
<radialGradient id="paint26_radial_1561_5344" cx="0" cy="0" r="1" gradientUnits="userSpaceOnUse" gradientTransform="translate(899.57 581.444) rotate(-124.324) scale(241.673 370.718)">
<stop stop-color="#2238FF"/>
<stop offset="1" stop-color="#0047FF" stop-opacity="0"/>
</radialGradient>
<radialGradient id="paint27_radial_1561_5344" cx="0" cy="0" r="1" gradientUnits="userSpaceOnUse" gradientTransform="translate(773.204 256.793) rotate(117.57) scale(469.6 440.229)">
<stop offset="0.237514" stop-color="#E13793"/>
<stop offset="0.510163" stop-color="#4E38DA"/>
<stop offset="1" stop-color="#0E34FF"/>
</radialGradient>
<linearGradient id="paint28_linear_1561_5344" x1="803.447" y1="621.381" x2="706.426" y2="1137.57" gradientUnits="userSpaceOnUse">
<stop stop-color="#000AFF"/>
<stop offset="0.946758" stop-color="#057EFF"/>
<stop offset="1" stop-color="#0085FF"/>
</linearGradient>
<linearGradient id="paint29_linear_1561_5344" x1="173.083" y1="542.588" x2="723.586" y2="917.1" gradientUnits="userSpaceOnUse">
<stop stop-color="#5CA5FF"/>
<stop offset="1" stop-color="#3D94FF" stop-opacity="0"/>
</linearGradient>
<radialGradient id="paint30_radial_1561_5344" cx="0" cy="0" r="1" gradientUnits="userSpaceOnUse" gradientTransform="translate(1030.84 919.541) rotate(-133.95) scale(372.82 528.345)">
<stop stop-color="#8AFBED" stop-opacity="0.7"/>
<stop offset="0.671495" stop-color="#00A3FF" stop-opacity="0.45726"/>
<stop offset="1" stop-color="#0066FF"/>
</radialGradient>
<linearGradient id="paint31_linear_1561_5344" x1="592.957" y1="269.699" x2="1053.79" y2="354.72" gradientUnits="userSpaceOnUse">
<stop stop-color="#2A26FF"/>
<stop offset="1" stop-color="#00A3FF" stop-opacity="0"/>
</linearGradient>
<radialGradient id="paint32_radial_1561_5344" cx="0" cy="0" r="1" gradientUnits="userSpaceOnUse" gradientTransform="translate(966.545 552.772) rotate(90.1475) scale(250.551 250.38)">
<stop stop-color="#2A6BFF"/>
<stop offset="1" stop-color="#2A6BFF" stop-opacity="0"/>
</radialGradient>
<radialGradient id="paint33_radial_1561_5344" cx="0" cy="0" r="1" gradientUnits="userSpaceOnUse" gradientTransform="translate(900.689 1098.68) rotate(-157.832) scale(331.251 330.036)">
<stop stop-color="#8AFBED" stop-opacity="0.6"/>
<stop offset="0.582168" stop-color="#00A3FF" stop-opacity="0.45726"/>
<stop offset="1" stop-color="#198CF6" stop-opacity="0.19"/>
</radialGradient>
<linearGradient id="paint34_linear_1561_5344" x1="479.83" y1="764.27" x2="970.378" y2="962.712" gradientUnits="userSpaceOnUse">
<stop stop-color="#35C2FF"/>
<stop offset="1" stop-color="#00A3FF" stop-opacity="0"/>
</linearGradient>
<radialGradient id="paint35_radial_1561_5344" cx="0" cy="0" r="1" gradientUnits="userSpaceOnUse" gradientTransform="translate(927.353 918.922) rotate(90.3234) scale(136.886 299.928)">
<stop stop-color="#2A6BFF"/>
<stop offset="1" stop-color="#2A6BFF" stop-opacity="0"/>
</radialGradient>
<radialGradient id="paint36_radial_1561_5344" cx="0" cy="0" r="1" gradientUnits="userSpaceOnUse" gradientTransform="translate(511.848 1023.43) rotate(-119.705) scale(607.899 712.899)">
<stop stop-color="#8AFBED" stop-opacity="0"/>
<stop offset="0.671495" stop-color="#00A3FF" stop-opacity="0.45726"/>
<stop offset="1" stop-color="#198CF6"/>
</radialGradient>
<linearGradient id="paint37_linear_1561_5344" x1="267.345" y1="114.417" x2="596.512" y2="142.877" gradientUnits="userSpaceOnUse">
<stop stop-color="#35C2FF"/>
<stop offset="1" stop-color="#00A3FF" stop-opacity="0.2"/>
</linearGradient>
<radialGradient id="paint38_radial_1561_5344" cx="0" cy="0" r="1" gradientUnits="userSpaceOnUse" gradientTransform="translate(527.339 534.802) rotate(90.0691) scale(372.086 174.25)">
<stop stop-color="#2A6BFF"/>
<stop offset="1" stop-color="#2A6BFF" stop-opacity="0"/>
</radialGradient>
<linearGradient id="paint39_linear_1561_5344" x1="237.348" y1="597.791" x2="736.369" y2="377.022" gradientUnits="userSpaceOnUse">
<stop stop-color="#1BBBFF"/>
<stop offset="1" stop-color="#00A3FF" stop-opacity="0"/>
</linearGradient>
<radialGradient id="paint40_radial_1561_5344" cx="0" cy="0" r="1" gradientUnits="userSpaceOnUse" gradientTransform="translate(471.946 592.629) rotate(47.059) scale(227.136 251.033)">
<stop stop-color="#2A6BFF"/>
<stop offset="1" stop-color="#2A6BFF" stop-opacity="0"/>
</radialGradient>
<radialGradient id="paint41_radial_1561_5344" cx="0" cy="0" r="1" gradientUnits="userSpaceOnUse" gradientTransform="translate(691.883 1065.79) rotate(-137.094) scale(259.051 279.897)">
<stop stop-color="#8AFBED" stop-opacity="0"/>
<stop offset="0.449372" stop-color="#00A3FF" stop-opacity="0.15"/>
<stop offset="1" stop-color="#198CF6"/>
</radialGradient>
<linearGradient id="paint42_linear_1561_5344" x1="502.135" y1="826.63" x2="631.455" y2="1056.07" gradientUnits="userSpaceOnUse">
<stop stop-color="#35C2FF"/>
<stop offset="1" stop-color="#00A3FF" stop-opacity="0"/>
</linearGradient>
<radialGradient id="paint43_radial_1561_5344" cx="0" cy="0" r="1" gradientUnits="userSpaceOnUse" gradientTransform="translate(899.741 1040.84) rotate(-142.335) scale(342.122 480.772)">
<stop stop-color="#8AFBED" stop-opacity="0.3"/>
<stop offset="0.590599" stop-color="#00A3FF" stop-opacity="0.6573"/>
<stop offset="1" stop-color="#0066FF"/>
</radialGradient>
<radialGradient id="paint44_radial_1561_5344" cx="0" cy="0" r="1" gradientUnits="userSpaceOnUse" gradientTransform="translate(470.22 552.197) rotate(61.0824) scale(433.431 1046.26)">
<stop stop-color="#2A6BFF"/>
<stop offset="1" stop-color="#2A6BFF" stop-opacity="0"/>
</radialGradient>
<radialGradient id="paint45_radial_1561_5344" cx="0" cy="0" r="1" gradientUnits="userSpaceOnUse" gradientTransform="translate(403.809 472.188) rotate(2.32458) scale(148.471 378.591)">
<stop stop-color="#0085FF"/>
<stop offset="1" stop-color="#0085FF" stop-opacity="0"/>
</radialGradient>
<radialGradient id="paint46_radial_1561_5344" cx="0" cy="0" r="1" gradientUnits="userSpaceOnUse" gradientTransform="translate(732.589 290.755) rotate(100.833) scale(318.358 240.468)">
<stop stop-color="#FFBFAB"/>
<stop offset="0.364808" stop-color="#FF67A8" stop-opacity="0.87"/>
<stop offset="0.723967" stop-color="#6BAFFF" stop-opacity="0"/>
</radialGradient>
<radialGradient id="paint47_radial_1561_5344" cx="0" cy="0" r="1" gradientUnits="userSpaceOnUse" gradientTransform="translate(713.55 443.966) rotate(-147.372) scale(136.715 191.583)">
<stop stop-color="#2238FF"/>
<stop offset="1" stop-color="#0047FF" stop-opacity="0"/>
</radialGradient>
<linearGradient id="paint48_linear_1561_5344" x1="543.107" y1="450.711" x2="626.21" y2="347.244" gradientUnits="userSpaceOnUse">
<stop stop-color="#7572FF"/>
<stop offset="0.504042" stop-color="#5FC1FE" stop-opacity="0.495958"/>
<stop offset="1" stop-color="#29EDFE" stop-opacity="0"/>
</linearGradient>
<radialGradient id="paint49_radial_1561_5344" cx="0" cy="0" r="1" gradientUnits="userSpaceOnUse" gradientTransform="translate(771.231 210.658) rotate(-170.943) scale(382.542 348.762)">
<stop stop-color="#FFBFAB"/>
<stop offset="0.280518" stop-color="#FF67A8" stop-opacity="0.87"/>
<stop offset="0.723967" stop-color="#6BAFFF" stop-opacity="0"/>
</radialGradient>
<radialGradient id="paint50_radial_1561_5344" cx="0" cy="0" r="1" gradientUnits="userSpaceOnUse" gradientTransform="translate(403.809 461.864) rotate(39.5837) scale(379.379 388.446)">
<stop stop-color="#3448FB"/>
<stop offset="1" stop-color="#0085FF" stop-opacity="0"/>
</radialGradient>
<linearGradient id="paint51_linear_1561_5344" x1="605.632" y1="740.599" x2="493.894" y2="579.457" gradientUnits="userSpaceOnUse">
<stop stop-color="#5FC5FF"/>
<stop offset="1" stop-color="#00A2FF" stop-opacity="0"/>
</linearGradient>
<radialGradient id="paint52_radial_1561_5344" cx="0" cy="0" r="1" gradientUnits="userSpaceOnUse" gradientTransform="translate(778.306 296.178) rotate(97.5077) scale(568.978 301.576)">
<stop stop-color="#FFBFAB"/>
<stop offset="0.364808" stop-color="#FF67A8" stop-opacity="0.87"/>
<stop offset="0.723967" stop-color="#6BAFFF" stop-opacity="0"/>
</radialGradient>
<radialGradient id="paint53_radial_1561_5344" cx="0" cy="0" r="1" gradientUnits="userSpaceOnUse" gradientTransform="translate(754.652 572.579) rotate(-137.089) scale(195.317 300.574)">
<stop stop-color="#2238FF"/>
<stop offset="1" stop-color="#0047FF" stop-opacity="0"/>
</radialGradient>
<linearGradient id="paint54_linear_1561_5344" x1="542.89" y1="584.747" x2="666.963" y2="511.542" gradientUnits="userSpaceOnUse">
<stop stop-color="#29EDFE"/>
<stop offset="1" stop-color="#29EDFE" stop-opacity="0"/>
</linearGradient>
<radialGradient id="paint55_radial_1561_5344" cx="0" cy="0" r="1" gradientUnits="userSpaceOnUse" gradientTransform="translate(747.08 195.173) rotate(81.5237) scale(672.45 297.137)">
<stop stop-color="#FFBFAB"/>
<stop offset="0.364808" stop-color="#FF67A8" stop-opacity="0.87"/>
<stop offset="0.723967" stop-color="#6BAFFF" stop-opacity="0"/>
</radialGradient>
<radialGradient id="paint56_radial_1561_5344" cx="0" cy="0" r="1" gradientUnits="userSpaceOnUse" gradientTransform="translate(840.229 581.445) rotate(-124.324) scale(241.673 370.718)">
<stop stop-color="#2238FF"/>
<stop offset="1" stop-color="#0047FF" stop-opacity="0"/>
</radialGradient>
<radialGradient id="paint57_radial_1561_5344" cx="0" cy="0" r="1" gradientUnits="userSpaceOnUse" gradientTransform="translate(713.862 256.793) rotate(117.57) scale(469.6 440.229)">
<stop offset="0.237514" stop-color="#FF1175" stop-opacity="0.84"/>
<stop offset="0.510163" stop-color="#4E38DA"/>
<stop offset="1" stop-color="#0E34FF"/>
</radialGradient>
<linearGradient id="paint58_linear_1561_5344" x1="744.105" y1="621.381" x2="647.084" y2="1137.57" gradientUnits="userSpaceOnUse">
<stop stop-color="#000AFF"/>
<stop offset="0.946758" stop-color="#057EFF"/>
<stop offset="1" stop-color="#0085FF"/>
</linearGradient>
<linearGradient id="paint59_linear_1561_5344" x1="113.741" y1="542.588" x2="664.245" y2="917.1" gradientUnits="userSpaceOnUse">
<stop stop-color="#5CA5FF"/>
<stop offset="1" stop-color="#3D94FF" stop-opacity="0"/>
</linearGradient>
<clipPath id="clip0_1561_5344">
<rect width="1300" height="1300" fill="white" transform="translate(0 0.758789)"/>
</clipPath>
</defs>
</svg>
